<svg width="112" height="69" viewBox="0 0 112 69" fill="none" xmlns="http://www.w3.org/2000/svg">
<path d="M37.2148 0.711426C38.0465 0.711426 38.7832 0.996582 39.4248 1.56689C40.0902 2.13721 40.5179 2.99268 40.708 4.1333C40.708 5.01253 40.4941 6.72347 40.0664 9.26611C39.6624 11.8088 39.1396 14.7197 38.498 17.999C37.8802 21.2783 37.5475 23.0605 37.5 23.3457V23.417V23.4883C37.6426 23.4408 38.0109 23.2744 38.605 22.9893C39.2466 22.6566 39.71 22.4546 39.9951 22.3833C40.1852 22.3358 40.8625 22.0506 42.0269 21.5278C44.9972 20.1733 46.4824 19.5436 46.4824 19.6387C46.4824 19.6624 46.3636 19.7575 46.126 19.9238C47.4805 19.2822 48.1577 19.1159 48.1577 19.4248C48.1577 19.4723 48.1221 19.5674 48.0508 19.71C47.9795 19.9238 47.9914 20.0426 48.0864 20.0664C48.0627 20.0902 45.2824 21.4684 39.7456 24.2012C38.4149 24.8428 37.5238 25.3062 37.0723 25.5913C36.7396 27.2547 36.4663 28.6092 36.2524 29.6548C36.0623 30.6766 35.8722 31.6628 35.6821 32.6133C35.492 33.54 35.1712 35.049 34.7197 37.1401C32.391 47.6909 31.488 57.9565 32.0107 67.937C31.987 68.2697 31.7137 68.4717 31.1909 68.543C30.6681 68.6143 30.0978 68.543 29.48 68.3291C28.8859 68.1152 28.4701 67.8182 28.2324 67.438C27.6859 66.4399 27.4126 63.4696 27.4126 58.5269C27.4126 58.0516 27.4007 57.612 27.377 57.208C27.377 56.804 27.377 56.5426 27.377 56.4238C27.4007 56.305 27.4126 56.1862 27.4126 56.0674C27.4126 55.9486 27.4245 55.806 27.4482 55.6396C27.472 55.4971 27.4958 55.307 27.5195 55.0693C27.5671 54.8317 27.6265 54.4277 27.6978 53.8574C27.769 53.2871 27.8522 52.6336 27.9473 51.897C28.6602 46.3127 30.0978 38.3758 32.2603 28.0864C32.1414 28.1577 31.7969 28.3241 31.2266 28.5854C30.68 28.8231 30.1929 29.0488 29.7651 29.2627C29.3612 29.4528 28.9097 29.6667 28.4106 29.9043C27.9354 30.1419 27.5433 30.332 27.2344 30.4746C26.9492 30.6172 26.771 30.7004 26.6997 30.7241L26.1294 31.0093C26.0106 31.1043 25.9036 31.1756 25.8086 31.2231C24.9769 31.5796 23.1353 32.3875 20.2837 33.647C17.8361 37.3778 15.8044 40.6689 14.1885 43.5205C12.5964 46.3483 11.5151 48.2137 10.9448 49.1167C11.1587 49.4494 11.3013 49.7821 11.3726 50.1147C11.8478 51.7306 12.0617 53.1921 12.0142 54.499C11.9666 55.806 11.7884 56.8634 11.4795 57.6714C11.1706 58.4793 10.7666 59.1566 10.2676 59.7031L10.4102 59.8457H10.4458C9.78044 60.5824 8.80615 61.3428 7.52295 62.127C5.17041 63.6003 3.45947 63.8141 2.39014 62.7686C1.72477 62.1507 1.29704 61.3547 1.10693 60.3804C0.940592 59.4061 0.928711 58.5506 1.07129 57.814C1.23763 57.0773 1.4515 56.5308 1.71289 56.1743C2.2832 55.4139 2.84163 54.5465 3.38818 53.5723C3.9585 52.598 4.62386 51.3979 5.38428 49.9722C6.14469 48.5226 6.67936 47.5246 6.98828 46.978C6.91699 46.8354 6.72689 46.5503 6.41797 46.1226C6.10905 45.6711 5.8833 45.3265 5.74072 45.0889C4.98031 43.8057 4.56445 42.5819 4.49316 41.4175C4.42188 40.2531 4.71891 39.2669 5.38428 38.459C5.52686 38.2926 5.64567 38.1619 5.74072 38.0669C5.83577 37.9481 5.93083 37.8293 6.02588 37.7104C6.14469 37.5916 6.27539 37.4847 6.41797 37.3896C6.58431 37.2946 6.72689 37.1995 6.8457 37.1045C6.98828 36.9857 7.20215 36.8669 7.4873 36.748C7.77246 36.6055 8.03385 36.4748 8.27148 36.356C8.50911 36.2371 8.87744 36.0708 9.37646 35.8569C9.87549 35.6193 10.327 35.4054 10.731 35.2153C11.1587 35.0252 11.7528 34.752 12.5132 34.3955C13.2974 34.0391 14.034 33.7064 14.7231 33.3975C15.4836 32.5658 16.3153 31.4132 17.2183 29.9399C18.1213 28.4666 19.0361 26.8864 19.9629 25.1992C20.8896 23.4883 21.5312 22.3358 21.8877 21.7417C21.8877 21.7179 23.0283 19.8288 25.3096 16.0742C27.5908 12.2959 29.6701 8.96908 31.5474 6.09375C33.4246 3.19466 34.5534 1.69759 34.9336 1.60254C35.5277 1.00846 36.2881 0.711426 37.2148 0.711426ZM36.1099 8.51758C35.9198 8.49382 34.791 10.0859 32.7236 13.2939C30.68 16.4782 28.6602 19.6981 26.6641 22.9536C24.668 26.2091 23.1471 28.728 22.1016 30.5103C23.2897 29.8211 25.167 28.9181 27.7334 27.8013C30.3236 26.6606 32.0226 25.9002 32.8306 25.52C32.9019 25.1873 33.0326 24.5339 33.2227 23.5596C33.4365 22.5853 33.6029 21.8249 33.7217 21.2783L33.5435 22.0269C35.1118 14.8504 35.991 10.5731 36.1812 9.19482C36.2524 8.74333 36.2287 8.51758 36.1099 8.51758ZM38.3198 12.3315C37.8921 12.5692 37.4168 14.2088 36.894 17.2505C36.395 20.2684 36.0386 21.9556 35.8247 22.312C35.5633 23.3813 35.5039 23.8804 35.6465 23.8091C35.8604 23.6665 36.0861 22.9417 36.3237 21.6348L36.395 21.2783C36.4663 20.9932 36.7871 19.508 37.3574 16.8228C37.9277 14.1375 38.2485 12.6405 38.3198 12.3315ZM29.2661 15.2544C29.1473 15.3732 28.8265 15.7534 28.3037 16.395C27.8047 17.0366 27.2106 17.8683 26.5215 18.8901C25.8324 19.9119 25.3571 20.7437 25.0957 21.3853C24.5254 22.0269 24.0145 22.7397 23.563 23.5239C23.1115 24.3081 22.7313 25.0448 22.4224 25.7339C22.1134 26.423 21.9352 26.8151 21.8877 26.9102C21.6025 27.3854 21.1748 28.027 20.6045 28.835C20.0342 29.6191 19.5352 30.2845 19.1074 30.8311C18.7035 31.3776 18.4777 31.6746 18.4302 31.7222C19.048 31.4132 19.3926 31.2231 19.4639 31.1519C19.8203 30.4152 21.8402 27.0765 25.5234 21.1357C26.0225 20.3278 26.6047 19.401 27.27 18.3555C27.9591 17.3099 28.4701 16.5376 28.8027 16.0386C29.1354 15.5158 29.2899 15.2544 29.2661 15.2544ZM40.708 22.3833C40.5179 22.4308 40.2565 22.5259 39.9238 22.6685C39.71 23.0249 38.9733 23.3932 37.7139 23.7734C37.6663 23.7972 37.6069 23.821 37.5356 23.8447C37.4644 23.8685 37.4049 23.8923 37.3574 23.916V24.2012C39.6862 23.0605 40.8031 22.4546 40.708 22.3833ZM32.6167 26.625V26.7676V26.625ZM32.5454 26.625C32.284 26.7438 31.9632 26.8983 31.583 27.0884C31.2028 27.2785 30.9058 27.4329 30.6919 27.5518C30.478 27.6468 30.3354 27.7062 30.2642 27.73L29.9077 27.9438C29.5988 28.0389 29.2542 28.1815 28.874 28.3716L26.771 29.4053C24.0145 30.5934 22.256 31.3657 21.4956 31.7222C21.4956 31.7222 21.4243 31.8053 21.2817 31.9717C21.2817 32.0192 21.3293 32.0192 21.4243 31.9717L26.4146 29.7617C26.9373 29.5954 27.3532 29.4053 27.6621 29.1914C28.0661 28.93 28.6958 28.6092 29.5513 28.229C29.8364 28.1102 30.2523 27.9201 30.7988 27.6587C31.3691 27.3735 31.7256 27.1953 31.8682 27.124C32.1058 27.0052 32.3315 26.9102 32.5454 26.8389V26.625ZM32.5454 27.1953C32.5454 27.2191 32.5335 27.2666 32.5098 27.3379C32.486 27.3854 32.4741 27.4211 32.4741 27.4448C32.4741 27.4211 32.486 27.3854 32.5098 27.3379C32.5335 27.2666 32.5454 27.2191 32.5454 27.1953ZM32.4741 27.1953C32.0464 27.3854 31.5949 27.5993 31.1196 27.8369C30.6681 28.0745 30.3117 28.2528 30.0503 28.3716C29.8127 28.4904 29.6701 28.5617 29.6226 28.5854L29.48 28.6567C29.4562 28.6567 28.7196 29.0013 27.27 29.6904C25.8442 30.3558 24.4185 31.0212 22.9927 31.6865C21.5907 32.3281 20.8778 32.6608 20.854 32.6846C20.8302 32.7083 21.3293 32.4945 22.3511 32.043C23.3966 31.5915 24.4303 31.14 25.4521 30.6885C26.4977 30.237 27.0086 30.0231 26.9849 30.0469C27.0086 30.0469 27.3532 29.8687 28.0186 29.5122C28.7077 29.1558 29.0641 28.9775 29.0879 28.9775C29.1354 28.9775 29.2305 28.9419 29.373 28.8706C29.5394 28.7756 29.7414 28.6686 29.979 28.5498C30.2404 28.4072 30.4543 28.3003 30.6206 28.229C30.7869 28.1577 31.084 28.0389 31.5117 27.8726C31.9395 27.7062 32.2365 27.5874 32.4028 27.5161C32.4028 27.4924 32.4147 27.4448 32.4385 27.3735C32.4622 27.2785 32.4741 27.2191 32.4741 27.1953ZM34.4346 28.3003C34.387 28.3003 34.292 28.6211 34.1494 29.2627C32.486 36.0827 31.6305 39.564 31.583 39.7065C31.2979 40.8947 31.1315 41.667 31.084 42.0234C31.0602 42.1185 30.9889 42.5225 30.8701 43.2354C30.7513 43.9245 30.6681 44.471 30.6206 44.875C30.5731 45.4928 30.4305 46.1463 30.1929 46.8354C30.0741 47.1681 30.0503 47.3701 30.1216 47.4414C30.1216 47.4176 30.1335 47.382 30.1572 47.3345C30.181 47.2869 30.1929 47.2513 30.1929 47.2275V47.1562V47.1206V47.085V47.1206V47.1562V47.5127V47.9404C30.1929 48.2969 30.1691 48.8434 30.1216 49.5801C30.0741 50.3167 30.0503 50.887 30.0503 51.291V48.7603C29.9552 49.3306 29.9077 49.687 29.9077 49.8296C29.9077 50.1147 29.8602 50.8514 29.7651 52.0396C29.7651 52.1108 29.7533 52.2059 29.7295 52.3247C29.7057 52.4435 29.6938 52.5386 29.6938 52.6099C29.5988 53.703 29.5513 54.3802 29.5513 54.6416C29.5037 55.7347 29.48 56.6377 29.48 57.3506C29.48 58.0872 29.4919 58.61 29.5156 58.9189C29.5394 59.2516 29.6107 59.9289 29.7295 60.9507C29.8721 61.9725 29.979 62.8398 30.0503 63.5527C30.1691 63.0299 30.2523 62.4359 30.2998 61.7705C30.3473 61.1051 30.3592 60.321 30.3354 59.418C30.3354 58.5387 30.3236 57.8021 30.2998 57.208C30.2998 56.6377 30.276 55.7822 30.2285 54.6416C30.181 53.5247 30.1453 52.7762 30.1216 52.396C30.2166 51.992 30.276 51.4217 30.2998 50.6851C30.3236 49.9484 30.383 49.3781 30.478 48.9741C30.6444 48.1899 30.7988 47.2632 30.9414 46.1938C30.9652 45.9562 31.0008 45.7186 31.0483 45.481C31.0959 45.2196 31.1315 45.0176 31.1553 44.875L31.2266 44.6611L31.2979 44.4473C31.3216 44.3047 31.3573 44.1146 31.4048 43.877C31.4523 43.6156 31.488 43.366 31.5117 43.1284C31.6781 41.8927 31.8444 41.2749 32.0107 41.2749C32.0345 41.2749 32.0583 41.2868 32.082 41.3105C32.1771 41.3818 32.284 41.263 32.4028 40.9541C32.5692 40.5501 32.7118 39.9561 32.8306 39.1719C32.9494 38.3164 32.9613 37.9124 32.8662 37.96C32.8187 37.9837 32.7355 38.2451 32.6167 38.7441C32.5216 39.1956 32.4028 39.4927 32.2603 39.6353C32.2365 39.659 32.2246 39.6471 32.2246 39.5996L32.3315 39.1006C32.3078 39.4095 32.3672 39.3263 32.5098 38.8511C32.6286 38.3045 32.9494 36.8312 33.4722 34.4312C34.1138 31.3182 34.4821 29.6904 34.5771 29.5479C34.5771 28.7161 34.5296 28.3003 34.4346 28.3003ZM30.0503 51.291C30.0503 51.4098 30.0622 51.5999 30.0859 51.8613C30.1097 52.099 30.1216 52.2772 30.1216 52.396V52.4673C30.0741 52.5623 30.0503 52.6336 30.0503 52.6812V52.895V52.8594V52.8237V52.7881V52.7524V52.7168V52.6812V52.6455V52.6099V52.5742V52.5386V52.5029V52.4673V52.4316V52.396V52.3604V52.3247V52.2891V52.2534V52.2178V52.1821V52.1465V52.1108V52.0752V52.0396V52.0039V51.9683V51.9326V51.8613V51.8257V51.79V51.7544V51.7188V51.6831V51.6475V51.291ZM16.6836 35.8926C16.541 35.9876 16.3747 36.1302 16.1846 36.3203L15.6143 36.9263L13.0479 40.6333C12.5488 41.4175 12.2518 41.8571 12.1567 41.9521C11.9191 42.1423 11.8478 42.2848 11.9429 42.3799C11.9904 42.4274 11.8241 42.6769 11.4438 43.1284C11.3488 43.2235 11.2537 43.3423 11.1587 43.4849C11.0874 43.6037 11.0042 43.7344 10.9092 43.877C10.8379 44.0195 10.7904 44.1146 10.7666 44.1621C10.529 44.8512 10.3151 45.3265 10.125 45.5879C10.0537 45.6829 9.88737 45.8849 9.62598 46.1938C9.38835 46.5028 9.23389 46.7404 9.1626 46.9067L9.4834 47.2275C9.53092 47.1325 9.60221 47.0256 9.69727 46.9067C9.79232 46.7642 9.86361 46.6572 9.91113 46.5859C9.95866 46.4909 9.98242 46.4315 9.98242 46.4077L10.1963 46.1226C10.3864 45.8612 10.5765 45.5879 10.7666 45.3027L11.9429 43.6274C11.7528 43.1047 12.2161 42.4749 13.333 41.7383C13.4756 41.5482 13.6182 41.2511 13.7607 40.8472C13.9033 40.4194 14.0578 40.0868 14.2241 39.8491C14.6281 39.3739 14.8182 38.958 14.7944 38.6016C14.8182 38.6491 14.8538 38.661 14.9014 38.6372C14.9727 38.5897 15.0558 38.5065 15.1509 38.3877C15.2459 38.2451 15.3291 38.1144 15.4004 37.9956C15.4954 37.8768 15.6261 37.6986 15.7925 37.4609C15.9588 37.1995 16.0895 36.9976 16.1846 36.855C16.5885 36.2134 16.7549 35.8926 16.6836 35.8926ZM13.333 35.8926C12.4538 36.3916 11.9429 36.6649 11.8003 36.7124L8.73486 38.3164L13.0479 36.3203L13.333 35.8926ZM14.5806 36.6411C14.3429 36.6411 14.1172 36.8075 13.9033 37.1401C13.3568 37.9481 12.7271 38.9818 12.0142 40.2412C11.325 41.4769 10.8854 42.2135 10.6953 42.4512C10.7666 42.4987 10.9211 42.3561 11.1587 42.0234C11.3963 41.667 11.6696 41.2155 11.9785 40.6689C12.2874 40.0986 12.5964 39.5283 12.9053 38.958C13.238 38.3877 13.5588 37.8768 13.8677 37.4253C14.1766 36.9738 14.4142 36.7124 14.5806 36.6411ZM12.9766 36.855C12.6676 37.1401 12.1092 37.4728 11.3013 37.853C10.4933 38.2095 9.74479 38.5422 9.05566 38.8511C8.36654 39.1362 7.7487 39.5877 7.20215 40.2056C6.6556 40.7996 6.39421 41.4769 6.41797 42.2373C6.37044 42.9977 6.88135 44.0433 7.95068 45.374L8.37842 44.7324C8.75863 44.1859 9.32894 43.2591 10.0894 41.9521C10.8735 40.6452 11.5508 39.4689 12.1211 38.4233L12.9766 36.855ZM15.7568 39.1719C15.6855 39.1719 15.6261 39.2075 15.5786 39.2788C15.5311 39.3263 15.5192 39.3857 15.543 39.457C15.543 39.5046 15.5905 39.5283 15.6855 39.5283L15.8281 39.457C15.8519 39.4095 15.8519 39.3501 15.8281 39.2788C15.8281 39.2075 15.8044 39.1719 15.7568 39.1719ZM15.0083 40.1343L14.7231 40.2769C14.2954 40.6333 14.141 40.8709 14.2598 40.9897C14.3786 41.1086 14.5568 41.0254 14.7944 40.7402C14.9132 40.5739 14.9845 40.3719 15.0083 40.1343ZM32.082 42.2373C32.1296 42.2373 32.1533 42.3324 32.1533 42.5225V42.7007C32.1533 42.7482 32.082 42.772 31.9395 42.772C31.8682 42.7244 31.8444 42.6413 31.8682 42.5225C31.8919 42.3799 31.9395 42.2848 32.0107 42.2373H32.082ZM31.7969 43.6274C31.7018 43.7225 31.6305 43.8413 31.583 43.9839C31.4167 44.4829 31.3691 44.8512 31.4404 45.0889C31.488 45.3027 31.5592 45.2909 31.6543 45.0532L31.7969 44.4473V44.3047V43.6274ZM9.69727 44.376C9.6735 44.3997 9.63786 44.4235 9.59033 44.4473C9.54281 44.471 9.50716 44.4948 9.4834 44.5186C9.19824 44.8037 8.9012 45.1958 8.59229 45.6948C8.56852 45.7186 8.54476 45.7661 8.521 45.8374C8.49723 45.9087 8.47347 45.9562 8.44971 45.98C8.47347 46.0037 8.50911 46.0513 8.55664 46.1226C8.60417 46.1938 8.63981 46.2414 8.66357 46.2651C9.13883 45.5522 9.41211 45.1602 9.4834 45.0889L9.55469 44.9463C9.64974 44.8512 9.69727 44.7324 9.69727 44.5898V44.376ZM7.41602 47.7266C7.39225 47.7741 7.28532 47.9761 7.09521 48.3325C6.90511 48.689 6.75065 48.9979 6.63184 49.2593C6.44173 49.6395 6.18034 50.1029 5.84766 50.6494C5.53874 51.1722 5.26546 51.6118 5.02783 51.9683C4.7902 52.3247 4.65951 52.5148 4.63574 52.5386C4.56445 52.6099 4.3387 52.9425 3.9585 53.5366C3.57829 54.1069 3.34066 54.5347 3.24561 54.8198C3.22184 55.105 3.11491 55.402 2.9248 55.7109C2.75846 56.0199 2.58024 56.2931 2.39014 56.5308C2.2238 56.7922 2.05745 57.208 1.89111 57.7783C1.74854 58.3724 1.66536 59.0615 1.6416 59.8457C1.66536 59.7269 1.70101 59.5011 1.74854 59.1685C1.81982 58.8358 1.89111 58.5387 1.9624 58.2773C2.05745 58.0397 2.29508 57.5288 2.67529 56.7446C3.0555 55.9604 3.59017 54.9505 4.2793 53.7148C4.39811 53.2158 4.7902 52.4792 5.45557 51.5049C6.45361 49.9128 6.96452 49.0929 6.98828 49.0454C7.20215 48.689 7.39225 48.3444 7.55859 48.0117C7.53483 47.988 7.51107 47.9404 7.4873 47.8691C7.46354 47.7979 7.43978 47.7503 7.41602 47.7266ZM8.09326 48.6533L7.95068 48.8315C7.68929 49.188 7.55859 49.4019 7.55859 49.4731C7.55859 49.5682 7.46354 49.7583 7.27344 50.0435C6.8457 50.7088 6.42985 51.4455 6.02588 52.2534C5.93083 52.4435 5.76449 52.7406 5.52686 53.1445C5.31299 53.5485 5.13477 53.8812 4.99219 54.1426C4.87337 54.404 4.80208 54.5703 4.77832 54.6416C4.73079 54.7367 4.64762 54.9149 4.52881 55.1763C4.43376 55.4614 4.32682 55.7109 4.20801 55.9248C4.08919 56.1387 3.94661 56.3288 3.78027 56.4951C3.75651 56.5902 3.51888 57.1961 3.06738 58.313C2.63965 59.4299 2.4139 60.0358 2.39014 60.1309C2.604 60.2259 2.75846 60.2021 2.85352 60.0596C2.97233 59.917 3.0555 59.6912 3.10303 59.3823C3.17432 59.0972 3.23372 58.7882 3.28125 58.4556C3.32878 58.1229 3.41195 57.7902 3.53076 57.4575C3.67334 57.1486 3.85156 56.9229 4.06543 56.7803C4.44564 55.806 5.15853 54.4871 6.2041 52.8237C7.27344 51.1603 7.99821 49.9484 8.37842 49.188C8.35465 49.1405 8.30713 49.0573 8.23584 48.9385C8.16455 48.7959 8.11702 48.7008 8.09326 48.6533ZM28.8027 51.0059C28.6839 51.0059 28.577 51.2197 28.4819 51.6475C28.3869 52.0752 28.375 52.396 28.4463 52.6099C28.4463 52.6336 28.4344 52.6812 28.4106 52.7524C28.3869 52.8237 28.375 52.8713 28.375 52.895C28.375 53.1326 28.4463 53.4416 28.5889 53.8218C28.7552 54.202 28.8265 54.4753 28.8027 54.6416C28.2324 58.1348 28.2324 61.0339 28.8027 63.3389C28.8978 63.5527 28.9453 63.1488 28.9453 62.127C28.9453 61.1289 28.9215 59.5843 28.874 57.4932C28.8265 55.402 28.8027 53.7743 28.8027 52.6099C28.8027 52.491 28.8027 52.3722 28.8027 52.2534C28.8265 52.1346 28.8384 52.0396 28.8384 51.9683C28.8621 51.897 28.874 51.8494 28.874 51.8257L28.9453 51.6475C28.9453 51.2197 28.8978 51.0059 28.8027 51.0059ZM9.55469 51.1484C9.38835 51.3861 8.99626 52.0158 8.37842 53.0376C7.76058 54.0594 7.22591 54.8911 6.77441 55.5327C6.53678 55.8892 6.14469 56.5783 5.59814 57.6001C5.0516 58.6457 4.70703 59.2992 4.56445 59.5605C4.54069 59.6318 4.54069 59.6675 4.56445 59.6675C4.58822 59.6912 4.67139 59.6556 4.81396 59.5605C5.14665 59.3467 5.47933 59.1685 5.81201 59.0259C6.61995 58.6457 7.23779 58.3011 7.66553 57.9922C8.11702 57.707 8.40218 57.5407 8.521 57.4932C9.02002 57.1367 9.50716 56.6021 9.98242 55.8892C10.7191 54.6772 10.5765 53.097 9.55469 51.1484ZM30.9414 51.6475C30.8464 52.0039 30.7988 52.3485 30.7988 52.6812C30.7988 52.7287 30.7869 52.8118 30.7632 52.9307C30.7394 53.0495 30.7275 53.1326 30.7275 53.1802C30.7275 54.0356 30.6681 54.701 30.5493 55.1763V56.2456C30.5968 56.103 30.6681 55.5327 30.7632 54.5347L30.9414 53.1089C30.9414 53.0614 30.9533 52.9901 30.9771 52.895C31.0008 52.8 31.0127 52.7287 31.0127 52.6812V52.4673L30.9414 51.6475ZM10.8379 55.604L10.1963 57.0654C10.0062 57.4932 9.47152 58.0041 8.59229 58.5981C7.71305 59.216 6.86947 59.7269 6.06152 60.1309L4.88525 60.7012C4.88525 60.7012 4.81396 60.7843 4.67139 60.9507C4.69515 61.0695 5.39616 60.7725 6.77441 60.0596C7.46354 59.7507 8.08138 59.3823 8.62793 58.9546C9.17448 58.5269 9.57845 58.1229 9.83984 57.7427C10.125 57.3862 10.3626 57.0298 10.5527 56.6733C10.7666 56.3407 10.8735 56.0793 10.8735 55.8892C10.8735 55.7228 10.8617 55.6278 10.8379 55.604ZM84.4795 6.55713V6.48584C85.1211 6.48584 85.6795 6.72347 86.1548 7.19873C86.63 7.67399 86.7845 8.1849 86.6182 8.73145C86.2142 9.56315 85.4775 11.2028 84.4082 13.6504C83.3626 16.098 82.5428 17.8446 81.9487 18.8901L81.5566 19.8525L81.1289 20.708C81.0814 20.8031 81.022 20.9813 80.9507 21.2427C80.8794 21.4803 80.82 21.6466 80.7725 21.7417L80.3447 22.5972C80.2972 22.6922 80.214 22.8586 80.0952 23.0962C80.0002 23.3101 79.9289 23.4645 79.8813 23.5596C79.8338 23.6546 79.7625 23.821 79.6675 24.0586C79.5724 24.2725 79.5011 24.4269 79.4536 24.522C79.4061 24.617 79.3467 24.7715 79.2754 24.9854C79.2041 25.1992 79.1447 25.3537 79.0972 25.4487C78.7645 26.2091 78.5863 26.6963 78.5625 26.9102C78.515 27.0527 78.4437 27.2904 78.3486 27.623C78.2536 27.932 78.1823 28.1577 78.1348 28.3003C77.9447 28.6567 77.8258 28.9538 77.7783 29.1914C77.7546 29.2627 77.6951 29.4053 77.6001 29.6191C77.505 29.833 77.4456 29.9756 77.4219 30.0469C77.4219 30.0706 77.41 30.1063 77.3862 30.1538C77.3625 30.2013 77.3506 30.237 77.3506 30.2607C77.3268 30.332 77.2555 30.4627 77.1367 30.6528C77.0417 30.8192 76.9823 30.938 76.9585 31.0093C76.9347 31.0806 76.8872 31.1875 76.8159 31.3301C76.7446 31.4727 76.6971 31.5796 76.6733 31.6509C76.7922 31.6034 76.9941 31.5321 77.2793 31.437C77.5882 31.342 77.8021 31.2707 77.9209 31.2231C78.0635 31.1756 78.2773 31.1043 78.5625 31.0093C78.8714 30.9142 79.0972 30.8429 79.2397 30.7954C79.3823 30.7479 79.5843 30.6647 79.8457 30.5459C80.1309 30.4033 80.3447 30.3083 80.4873 30.2607C80.6299 30.2132 80.8438 30.1419 81.1289 30.0469C81.4378 29.9518 81.6636 29.8805 81.8062 29.833C81.9487 29.7855 82.1507 29.7261 82.4121 29.6548C82.6735 29.5835 82.8755 29.5241 83.0181 29.4766C83.1606 29.429 83.3745 29.3577 83.6597 29.2627C83.9686 29.1676 84.1943 29.0964 84.3369 29.0488C84.4795 29.0013 84.6934 28.93 84.9785 28.835C85.2874 28.7161 85.5132 28.633 85.6558 28.5854C85.7983 28.5379 86.0122 28.4666 86.2974 28.3716C86.6063 28.2765 86.832 28.2052 86.9746 28.1577C87.1885 28.0864 87.3786 28.027 87.5449 27.9795C87.735 27.932 87.937 27.8726 88.1509 27.8013C88.2697 27.7537 88.4598 27.6825 88.7212 27.5874C88.9826 27.4686 89.1727 27.3854 89.2915 27.3379C89.4578 27.3141 89.7311 27.2666 90.1113 27.1953C90.4915 27.124 90.7648 27.0765 90.9312 27.0527C90.9549 27.0527 91.0143 27.0409 91.1094 27.0171C91.2044 26.9933 91.2638 26.9814 91.2876 26.9814C92.2144 26.7676 92.8678 26.6012 93.248 26.4824C93.3906 26.4349 93.6164 26.3636 93.9253 26.2686C94.258 26.1735 94.4956 26.1022 94.6382 26.0547C94.7808 26.0072 94.9827 25.9359 95.2441 25.8408C95.5293 25.722 95.7432 25.6388 95.8857 25.5913C96.0283 25.5438 96.2422 25.4844 96.5273 25.4131C96.8363 25.3418 97.062 25.2824 97.2046 25.2349C97.3472 25.1873 97.5492 25.1279 97.8105 25.0566C98.0719 24.9854 98.2739 24.9259 98.4165 24.8784C98.5591 24.8309 98.7729 24.7596 99.0581 24.6646C99.367 24.5695 99.5928 24.4982 99.7354 24.4507C99.8779 24.4032 100.092 24.3319 100.377 24.2368C100.686 24.118 100.912 24.0348 101.054 23.9873L102.302 23.6309C102.444 23.5833 102.67 23.5239 102.979 23.4526C103.312 23.3813 103.549 23.3219 103.692 23.2744C103.811 23.2507 104.369 23.0487 105.367 22.6685H105.438L106.472 22.4546C106.639 22.4071 106.888 22.3358 107.221 22.2407C107.577 22.1457 107.839 22.0744 108.005 22.0269C108.742 21.8605 109.264 21.8486 109.573 21.9912C109.906 22.11 110.084 22.3358 110.108 22.6685C110.155 23.0011 110.12 23.3457 110.001 23.7021C109.882 24.0348 109.763 24.3438 109.645 24.6289L109.466 25.021C109.514 25.021 109.347 25.2111 108.967 25.5913C108.611 25.9478 108.183 26.328 107.684 26.7319C107.209 27.1359 106.876 27.3735 106.686 27.4448C106.591 27.4686 106.543 27.4092 106.543 27.2666C106.567 27.1478 106.639 26.9102 106.757 26.5537C106.971 26.0072 107.019 25.7339 106.9 25.7339C102.48 27.0884 100.27 27.825 100.27 27.9438C102.219 27.4686 104.381 26.8626 106.757 26.126C106.615 26.1735 106.437 26.2329 106.223 26.3042L105.866 26.4111C105.819 26.4111 105.747 26.4349 105.652 26.4824C105.557 26.5299 105.486 26.5537 105.438 26.5537C105.415 26.5537 105.391 26.5656 105.367 26.5894C105.343 26.6131 105.32 26.625 105.296 26.625C105.248 26.625 105.165 26.6369 105.046 26.6606C104.928 26.6844 104.844 26.6963 104.797 26.6963C104.393 26.8151 103.728 27.029 102.801 27.3379L102.729 27.4448C102.706 27.4448 102.67 27.4567 102.623 27.4805C102.575 27.5042 102.539 27.5161 102.516 27.5161C102.373 27.5636 102.135 27.6349 101.803 27.73C101.494 27.825 101.268 27.8963 101.125 27.9438C100.959 27.9914 100.71 28.0508 100.377 28.1221C100.068 28.1934 99.8304 28.2528 99.6641 28.3003C99.5215 28.3003 99.4977 28.2528 99.5928 28.1577C99.7591 27.9914 99.4383 28.027 98.6304 28.2646C98.5828 28.2884 98.5472 28.3003 98.5234 28.3003C97.7868 28.5379 97.3828 28.7161 97.3115 28.835L97.4541 28.8706C97.6204 28.8706 97.87 28.8231 98.2026 28.728L98.7017 28.6211C98.6779 28.6211 98.6423 28.633 98.5947 28.6567C98.5234 28.6805 98.1789 28.8112 97.561 29.0488C97.6323 29.0251 97.6204 29.0251 97.5254 29.0488C97.4541 29.0726 97.3353 29.1201 97.1689 29.1914L96.7769 29.334H96.8125L96.2065 29.5122C96.2303 29.5122 96.266 29.5003 96.3135 29.4766C96.1234 29.5479 95.8145 29.6429 95.3867 29.7617C94.959 29.8805 94.6382 29.9756 94.4243 30.0469C94.4006 30.0469 94.3768 30.0588 94.353 30.0825C94.3293 30.1063 94.3055 30.1182 94.2817 30.1182H94.2104L94.353 30.0469C94.0916 30.1182 93.5094 30.3201 92.6064 30.6528C92.5352 30.6766 92.4163 30.7122 92.25 30.7598C92.1074 30.8073 92.0005 30.8429 91.9292 30.8667C91.8341 30.8905 91.6916 30.9499 91.5015 31.0449C91.3114 31.14 91.1688 31.1994 91.0737 31.2231C90.9787 31.2707 90.8955 31.2944 90.8242 31.2944C90.5866 31.3657 90.2183 31.4845 89.7192 31.6509C89.244 31.7935 88.8875 31.9004 88.6499 31.9717L88.5786 32.043C87.7231 32.2093 87.3311 32.2212 87.4023 32.0786C87.4499 31.9836 87.842 31.8172 88.5786 31.5796L89.5767 31.2231H89.541C89.137 31.2231 87.4261 31.734 84.4082 32.7559L80.3447 34.0747C80.82 33.8846 81.1527 33.6945 81.3428 33.5044C81.5566 33.3618 81.6755 33.3024 81.6992 33.3262C81.6992 33.3499 81.8418 33.3262 82.127 33.2549C82.4121 33.1836 82.8398 33.0648 83.4102 32.8984C83.5527 32.8509 83.7428 32.7915 83.9805 32.7202L84.5508 32.5063C84.5033 32.5063 84.325 32.542 84.0161 32.6133C83.8735 32.637 83.7666 32.6608 83.6953 32.6846C83.5527 32.7083 83.3389 32.7677 83.0537 32.8628C82.7923 32.9578 82.5903 33.0173 82.4478 33.041C82.5903 32.9935 82.8042 32.9222 83.0894 32.8271C83.3983 32.7321 83.624 32.6608 83.7666 32.6133C84.7171 32.3281 85.2518 32.1855 85.3706 32.1855C85.5369 32.2331 85.8221 32.1261 86.2261 31.8647C86.9152 31.4845 87.3429 31.3182 87.5093 31.3657C87.533 31.3657 87.5212 31.3895 87.4736 31.437C87.4261 31.4608 87.7113 31.3776 88.3291 31.1875C88.9469 30.9974 89.6361 30.7835 90.3965 30.5459C91.1807 30.2845 91.7391 30.0944 92.0718 29.9756C92.1668 29.9281 92.2381 29.9043 92.2856 29.9043C93.1174 29.5954 94.7926 29.0726 97.3115 28.3359C99.8304 27.5993 101.304 27.1953 101.731 27.124C102.302 27.0527 102.587 26.9577 102.587 26.8389C102.587 26.7676 104.274 26.2091 107.648 25.1636L108.54 24.8428C108.302 24.7477 107.173 25.021 105.153 25.6626C104.227 25.9478 103.395 26.2448 102.658 26.5537C102.088 26.7201 101.47 26.9102 100.805 27.124C100.139 27.3141 99.5571 27.4924 99.0581 27.6587C98.5591 27.8013 98.0363 27.9557 97.4897 28.1221C96.967 28.2884 96.5036 28.431 96.0996 28.5498C95.7194 28.6686 95.3392 28.7874 94.959 28.9062C94.5788 29.0013 94.258 29.0964 93.9966 29.1914C93.759 29.2627 93.5451 29.3221 93.355 29.3696C93.1649 29.4172 93.0342 29.4528 92.9629 29.4766C92.8916 29.5003 92.8678 29.5003 92.8916 29.4766H92.856C92.6183 29.5716 92.3807 29.6429 92.1431 29.6904C92.0243 29.738 91.7747 29.8211 91.3945 29.9399C91.0143 30.035 90.7054 30.1182 90.4678 30.1895C88.3766 30.9261 87.1885 31.2944 86.9033 31.2944C86.4993 31.2944 85.8696 31.437 85.0142 31.7222C84.4201 31.8885 84.123 31.9954 84.123 32.043C84.123 32.0667 84.2419 32.0667 84.4795 32.043C84.7409 32.0192 84.7765 32.043 84.5864 32.1143C84.4201 32.1855 83.9092 32.3638 83.0537 32.6489H83.0181L82.9824 32.6846H82.9468C81.4259 33.2074 80.6299 33.3975 80.5586 33.2549C80.5348 33.2074 80.4635 33.1955 80.3447 33.2192C80.2497 33.2192 80.1903 33.2549 80.1665 33.3262C80.119 33.4212 79.917 33.5638 79.5605 33.7539C79.2041 33.944 78.8001 34.0985 78.3486 34.2173C77.2793 34.5975 76.6971 34.7401 76.6021 34.645C76.5308 34.5737 76.4119 34.6213 76.2456 34.7876C76.1981 34.8351 75.8298 35.0133 75.1406 35.3223C74.9505 35.75 74.6891 36.3441 74.3564 37.1045C74.0238 37.8649 73.7743 38.4352 73.6079 38.8154C73.394 39.362 73.1445 39.9323 72.8594 40.5264C72.5742 41.1204 72.3841 41.5482 72.2891 41.8096H72.3604C72.099 41.7145 71.9564 41.6551 71.9326 41.6313L72.5029 41.8809C72.8831 42.0234 73.0851 42.1066 73.1089 42.1304L72.6812 41.9521L72.9663 42.0947C72.9901 42.0947 73.0376 42.1066 73.1089 42.1304C73.1802 42.1541 73.2277 42.166 73.2515 42.166C73.2752 42.166 73.299 42.1779 73.3228 42.2017C73.3465 42.2254 73.3703 42.2373 73.394 42.2373C73.4891 42.3324 73.5604 42.3799 73.6079 42.3799C82.1388 46.5146 89.446 49.687 95.5293 51.897C95.6006 51.9207 95.6481 51.9326 95.6719 51.9326C95.6956 51.9326 95.7432 51.9445 95.8145 51.9683C96.0996 52.1108 96.266 52.1821 96.3135 52.1821H96.3848C96.5273 52.2297 96.6224 52.2534 96.6699 52.2534C96.6937 52.2534 96.7531 52.2772 96.8481 52.3247C96.967 52.3722 97.0382 52.396 97.062 52.396C97.0858 52.396 97.1214 52.4079 97.1689 52.4316C97.2165 52.4554 97.2521 52.4673 97.2759 52.4673C97.2996 52.4673 97.3472 52.4792 97.4185 52.5029C97.4897 52.5267 97.5373 52.5386 97.561 52.5386C97.7511 52.6336 97.87 52.6812 97.9175 52.6812C97.9412 52.6812 97.9888 52.693 98.0601 52.7168C98.1313 52.7406 98.1789 52.7524 98.2026 52.7524C98.2264 52.7524 98.262 52.7762 98.3096 52.8237C98.3571 52.8713 98.3927 52.895 98.4165 52.895H98.7373L98.8086 52.9663C98.9036 53.0614 99.07 53.1326 99.3076 53.1802H99.3789C99.4027 53.1802 99.4502 53.2158 99.5215 53.2871C99.5928 53.3346 99.6403 53.3584 99.6641 53.3584C99.8066 53.4059 99.9611 53.4297 100.127 53.4297H100.27C100.294 53.4297 100.329 53.4416 100.377 53.4653C100.424 53.4891 100.46 53.501 100.484 53.501H100.27C100.294 53.501 100.329 53.5129 100.377 53.5366C100.424 53.5604 100.46 53.5723 100.484 53.5723C100.508 53.5723 100.555 53.596 100.626 53.6436C100.698 53.6911 100.745 53.7148 100.769 53.7148L101.054 53.8574C101.197 53.9049 101.316 53.9287 101.411 53.9287C101.434 53.9287 101.458 53.9406 101.482 53.9644C101.529 53.9881 101.565 54 101.589 54H101.66C101.755 54.0475 101.922 54.0713 102.159 54.0713C102.254 54.1188 102.48 54.2139 102.836 54.3564C103.193 54.499 103.478 54.6178 103.692 54.7129C103.953 54.8317 104.25 54.9624 104.583 55.105C104.939 55.2476 105.201 55.3545 105.367 55.4258C105.534 55.4971 105.629 55.5327 105.652 55.5327C105.676 55.5327 105.712 55.5446 105.759 55.5684C105.807 55.5921 105.842 55.604 105.866 55.604C105.842 55.604 105.807 55.6159 105.759 55.6396C105.712 55.6634 105.676 55.6753 105.652 55.6753C105.51 55.6753 105.569 55.7466 105.831 55.8892C106.092 56.008 106.472 56.1624 106.971 56.3525C107.138 56.4001 107.268 56.4357 107.363 56.4595C107.458 56.507 107.53 56.5308 107.577 56.5308C107.648 56.5308 107.684 56.5189 107.684 56.4951C107.708 56.4951 107.72 56.4714 107.72 56.4238C107.72 56.2812 107.767 56.2575 107.862 56.3525V56.4951C107.91 56.5902 107.981 56.6615 108.076 56.709C108.266 56.804 108.361 56.7803 108.361 56.6377C108.361 56.5902 108.409 56.5664 108.504 56.5664H108.575C108.623 56.5664 108.635 56.5783 108.611 56.6021C108.587 56.6258 108.551 56.6377 108.504 56.6377L108.361 56.7803C108.361 56.804 108.492 56.8516 108.753 56.9229C109.015 57.0179 109.181 57.0654 109.252 57.0654C109.989 58.111 110.393 58.5269 110.464 58.313C110.393 58.4793 110.31 58.5863 110.215 58.6338C110.144 58.6813 109.882 58.6694 109.431 58.5981C108.979 58.5269 108.326 58.3368 107.47 58.0278C107.47 58.1704 107.696 58.2892 108.147 58.3843L108.718 58.5981H108.433H108.29C108.29 58.6219 108.338 58.6576 108.433 58.7051C108.528 58.7526 108.646 58.7882 108.789 58.812C108.932 58.8595 109.062 58.8833 109.181 58.8833C109.276 58.9784 109.241 59.0496 109.074 59.0972H108.86L108.504 59.0259C108.599 59.0734 108.718 59.1209 108.86 59.1685L109.395 59.2397C109.49 59.1922 109.585 59.1922 109.68 59.2397C109.823 59.311 109.894 59.311 109.894 59.2397C109.942 59.1209 110.049 59.0615 110.215 59.0615C110.262 59.0615 110.25 59.0972 110.179 59.1685C110.132 59.1685 110.108 59.2516 110.108 59.418C110.108 59.5843 110.31 59.7031 110.714 59.7744C111.023 59.8932 111.189 59.9764 111.213 60.0239C111.237 60.0952 111.035 60.0833 110.607 59.9883C110.084 59.8457 109.597 59.6912 109.146 59.5249C108.718 59.3823 108.373 59.2635 108.112 59.1685C107.85 59.0734 107.625 58.9784 107.435 58.8833C107.268 58.812 107.149 58.7526 107.078 58.7051C107.031 58.6813 107.019 58.6694 107.042 58.6694C107.138 58.6694 107.126 58.6457 107.007 58.5981C106.959 58.5981 106.876 58.5744 106.757 58.5269L106.116 58.3843C105.379 58.1704 104.595 57.9209 103.763 57.6357C103.217 57.4456 102.718 57.2674 102.266 57.1011C101.838 56.9347 101.339 56.7565 100.769 56.5664C100.436 56.4714 100.127 56.3882 99.8423 56.3169C99.5809 56.2456 99.3551 56.1862 99.165 56.1387C98.9749 56.1149 98.8561 56.103 98.8086 56.103C95.8382 55.1287 86.5825 51.3623 71.0415 44.8037C70.2573 47.0612 69.6751 48.784 69.2949 49.9722C69.2949 49.9959 69.283 50.0197 69.2593 50.0435C69.2355 50.0672 69.2236 50.091 69.2236 50.1147C69.1286 50.3049 68.9622 50.8752 68.7246 51.8257C68.6771 51.9207 68.6533 51.992 68.6533 52.0396C68.6296 52.0871 68.6058 52.1465 68.582 52.2178C68.5583 52.2891 68.5345 52.3485 68.5107 52.396C68.487 52.491 68.4395 52.6574 68.3682 52.895C68.2969 53.1089 68.2493 53.2633 68.2256 53.3584C68.2018 53.4297 68.1543 53.5604 68.083 53.7505C68.0355 53.9406 67.9998 54.0713 67.9761 54.1426C67.9761 54.1663 67.9642 54.1901 67.9404 54.2139C67.9167 54.2376 67.9048 54.2614 67.9048 54.2852C67.881 54.3802 67.8454 54.5347 67.7979 54.7485C67.7503 54.9862 67.7147 55.1525 67.6909 55.2476C67.6672 55.3426 67.6315 55.4971 67.584 55.7109C67.5365 55.9248 67.5008 56.0793 67.4771 56.1743C67.4533 56.2694 67.4176 56.4238 67.3701 56.6377C67.3226 56.8753 67.2869 57.0417 67.2632 57.1367C67.1681 57.5169 67.1206 57.8377 67.1206 58.0991V58.3843C67.1206 58.4556 67.1087 58.5506 67.085 58.6694C67.0612 58.7882 67.0493 58.8833 67.0493 58.9546C66.7879 61.3784 66.8117 62.6022 67.1206 62.626C67.2157 62.626 67.5246 62.3646 68.0474 61.8418C68.3563 61.5329 68.6296 61.3071 68.8672 61.1646C68.9622 61.117 69.0098 61.1289 69.0098 61.2002C69.0098 61.2715 68.9741 61.4141 68.9028 61.6279C68.7365 62.1032 68.7008 62.3883 68.7959 62.4834C69.1761 62.5785 69.39 62.626 69.4375 62.626C69.1286 63.529 68.6058 64.3607 67.8691 65.1211C67.1562 65.8815 66.4909 66.1904 65.873 66.0479C64.8512 65.8577 64.1383 65.5251 63.7344 65.0498C63.3304 64.5983 63.069 63.9567 62.9502 63.125C62.9502 63.0537 62.9383 62.9587 62.9146 62.8398C62.8908 62.721 62.8789 62.626 62.8789 62.5547C62.6175 61.2952 62.6175 59.9526 62.8789 58.5269C62.8789 58.4793 62.8908 58.408 62.9146 58.313C62.9383 58.2179 62.9502 58.1466 62.9502 58.0991C62.9977 57.5763 63.1641 56.6496 63.4492 55.3188C63.4967 55.1287 63.5799 54.8198 63.6987 54.3921C63.8413 53.9881 63.9364 53.6911 63.9839 53.501C63.9839 53.4535 63.9958 53.3703 64.0195 53.2515C64.0433 53.1089 64.0552 53.0138 64.0552 52.9663C64.1027 52.9188 64.1502 52.895 64.1978 52.895C64.3641 52.8 64.4235 52.8594 64.376 53.0732C64.376 53.1921 64.3403 53.3584 64.269 53.5723C64.2453 53.6911 64.1978 53.8574 64.1265 54.0713C64.0552 54.2852 64.0076 54.4515 63.9839 54.5703C63.5799 56.0436 63.3542 56.8991 63.3066 57.1367L63.1997 57.6357C63.2235 57.6357 63.2591 57.5882 63.3066 57.4932C63.3304 57.4456 63.3779 57.2437 63.4492 56.8872C63.5443 56.5545 63.675 56.0674 63.8413 55.4258C64.0076 54.7842 64.174 54.1663 64.3403 53.5723C64.4829 53.1445 64.6255 52.6812 64.7681 52.1821C65.077 51.2554 65.279 50.6257 65.374 50.293C65.5879 49.5801 65.8493 48.7721 66.1582 47.8691C66.0156 48.1543 65.9443 48.1305 65.9443 47.7979L65.9087 47.5483C65.8612 47.5959 65.8255 47.7503 65.8018 48.0117C65.5404 49.3187 65.1483 50.4831 64.6255 51.5049C64.578 51.5999 64.5067 51.7425 64.4116 51.9326C64.3403 52.099 64.2928 52.2059 64.269 52.2534C64.269 52.1821 64.2809 52.0752 64.3047 51.9326C64.3285 51.7663 64.3403 51.6475 64.3403 51.5762C64.3403 51.5524 64.3522 51.5168 64.376 51.4692C64.3997 51.4217 64.4116 51.3861 64.4116 51.3623C64.4829 51.2197 64.5542 51.0059 64.6255 50.7207C64.6493 50.6494 64.673 50.5425 64.6968 50.3999C64.7205 50.2336 64.7443 50.1147 64.7681 50.0435C64.7918 49.9009 64.8631 49.7108 64.9819 49.4731C65.1245 49.2118 65.2077 49.0454 65.2314 48.9741C65.374 48.5226 65.8612 47.1325 66.6929 44.8037C66.7642 44.6136 66.8592 44.376 66.978 44.0908C67.0968 43.7819 67.1919 43.5324 67.2632 43.3423C66.5503 42.9621 65.9206 42.6888 65.374 42.5225C64.8512 42.3561 64.5304 42.2373 64.4116 42.166C63.5799 41.7145 63.0452 41.0254 62.8076 40.0986C62.5938 39.1481 62.8908 38.3045 63.6987 37.5679C64.0789 37.259 64.6374 36.8669 65.374 36.3916C66.4671 35.7025 68.1187 34.9539 70.3286 34.146C70.4712 34.0985 70.6732 34.0153 70.9346 33.8965C71.2197 33.7777 71.4336 33.6945 71.5762 33.647C71.6237 33.6232 71.695 33.5876 71.79 33.54C71.8851 33.4688 71.9564 33.4212 72.0039 33.3975C72.099 33.1598 72.2891 32.7083 72.5742 32.043C72.7406 31.6152 72.9544 31.0924 73.2158 30.4746C73.501 29.833 73.6792 29.429 73.7505 29.2627C73.9406 28.7637 74.0356 28.4191 74.0356 28.229C74.0356 28.1577 74 28.1934 73.9287 28.3359L73.6079 28.9775C73.6079 29.0013 73.596 29.0369 73.5723 29.0845C73.5485 29.132 73.5366 29.1676 73.5366 29.1914C73.3465 29.5954 73.2277 29.7974 73.1802 29.7974C73.1326 29.7974 73.1564 29.5716 73.2515 29.1201V28.9775V28.8706C73.3228 28.7043 73.4416 28.4548 73.6079 28.1221C73.7743 27.7656 73.8931 27.5042 73.9644 27.3379C73.9644 27.2428 73.9881 27.1715 74.0356 27.124C74.0594 27.0527 74.1188 26.9577 74.2139 26.8389C74.3327 26.7201 74.404 26.625 74.4277 26.5537C74.5941 26.2448 74.8317 25.6626 75.1406 24.8071V24.8784L75.2119 24.7358C75.2832 24.5933 75.3783 24.3675 75.4971 24.0586C75.6396 23.7259 75.7466 23.4883 75.8179 23.3457L75.8535 23.3101L76.0317 22.9893C76.0793 22.8942 76.1149 22.811 76.1387 22.7397C76.1624 22.6447 76.1981 22.5496 76.2456 22.4546C76.4119 22.217 76.5308 21.9793 76.6021 21.7417C76.6258 21.7179 76.6496 21.6823 76.6733 21.6348C76.6258 21.7298 76.5783 21.8368 76.5308 21.9556C76.3644 22.3833 76.3169 22.609 76.3882 22.6328C76.4357 22.6803 76.5189 22.5972 76.6377 22.3833C76.7565 22.217 76.8634 22.0031 76.9585 21.7417C77.1486 21.1951 77.1961 20.9219 77.1011 20.9219H76.8872C76.9347 20.8031 77.0179 20.6248 77.1367 20.3872C77.2793 20.1496 77.3743 19.9714 77.4219 19.8525C77.8971 18.6644 78.2298 17.8802 78.4199 17.5C78.8952 16.2168 79.3704 15.0286 79.8457 13.9355C80.3447 12.8187 80.9626 11.4998 81.6992 9.979C82.4596 8.45817 82.8755 7.62646 82.9468 7.48389C83.1844 6.86605 83.6953 6.55713 84.4795 6.55713ZM80.416 18.7476C80.2972 18.7476 79.7507 19.8882 78.7764 22.1694C77.8021 24.4269 76.8516 26.6963 75.9248 28.9775L74.5703 32.3994C74.7604 32.3519 74.8792 32.2806 74.9268 32.1855C74.9743 31.9479 75.4614 30.7004 76.3882 28.4429C77.3387 26.1616 78.2655 23.9635 79.1685 21.8486C80.0715 19.7337 80.5111 18.7238 80.4873 18.8188L80.416 18.7476ZM107.648 22.0269C107.601 22.0269 107.506 22.0387 107.363 22.0625C107.244 22.0863 107.161 22.0981 107.114 22.0981C107.185 22.0981 107.28 22.0863 107.399 22.0625C107.518 22.0387 107.601 22.0269 107.648 22.0269ZM105.367 22.6685L104.405 22.8467C104.476 22.8467 104.571 22.8348 104.69 22.811C104.833 22.7635 104.939 22.7397 105.011 22.7397C105.035 22.7397 105.094 22.7279 105.189 22.7041C105.284 22.6803 105.343 22.6685 105.367 22.6685ZM76.0317 23.4883C75.8654 23.4883 75.5446 24.0705 75.0693 25.2349C74.5465 26.5894 74.2852 27.3498 74.2852 27.5161C74.2852 27.5636 74.3327 27.5161 74.4277 27.3735L75.0693 25.9834L75.1406 25.7339C75.2594 25.4487 75.3901 25.116 75.5327 24.7358C75.6991 24.3556 75.8179 24.0705 75.8892 23.8804C75.9842 23.6665 76.0317 23.5358 76.0317 23.4883ZM76.103 24.0586C76.103 24.0824 76.0793 24.1418 76.0317 24.2368C75.9842 24.3081 75.9604 24.3556 75.9604 24.3794L75.7466 24.9497C75.8654 24.5933 75.9842 24.2962 76.103 24.0586ZM75.8892 25.7339V25.8052L75.4971 26.0547C75.4733 26.1022 75.4377 26.1497 75.3901 26.1973C75.3664 26.2448 75.3426 26.2923 75.3188 26.3398C75.2951 26.3636 75.2832 26.3874 75.2832 26.4111C74.8792 27.1003 74.4634 28.0745 74.0356 29.334L73.8931 29.7617C73.9644 29.7142 74 29.7142 74 29.7617C73.9762 29.9281 73.7743 30.2489 73.394 30.7241C73.1802 31.0093 73.1089 31.2231 73.1802 31.3657C73.1802 31.6034 73.0614 31.9954 72.8237 32.542C72.8 32.6133 72.7287 32.7202 72.6099 32.8628C72.5148 33.0054 72.4554 33.1123 72.4316 33.1836C72.4554 33.1836 72.491 33.1717 72.5386 33.1479C72.6099 33.1242 72.6574 33.1123 72.6812 33.1123L72.7524 33.041C73.0851 32.2093 73.2752 31.7935 73.3228 31.7935C73.3465 31.7697 73.3465 31.8291 73.3228 31.9717V32.2212C73.3465 32.1737 73.4416 31.9598 73.6079 31.5796C73.8931 30.9142 74.0356 30.4508 74.0356 30.1895C74.0356 30.1419 74.0475 30.0825 74.0713 30.0112C74.1188 29.9399 74.1663 29.8449 74.2139 29.7261C74.2852 29.6073 74.3327 29.5003 74.3564 29.4053C74.6178 28.6211 74.8555 28.0151 75.0693 27.5874L75.8892 25.7339ZM88.5786 27.5161C88.5311 27.5161 88.4479 27.528 88.3291 27.5518C88.2103 27.5755 88.1271 27.5874 88.0796 27.5874H88.3647C88.3885 27.5874 88.4242 27.5755 88.4717 27.5518C88.5192 27.528 88.5549 27.5161 88.5786 27.5161ZM95.957 28.9775C95.6956 29.0726 95.3511 29.1914 94.9233 29.334C94.6382 29.4053 94.3887 29.4766 94.1748 29.5479C94.2461 29.5241 94.3055 29.5003 94.353 29.4766C94.4006 29.4528 94.4956 29.4053 94.6382 29.334C94.8045 29.2627 94.9471 29.2152 95.0659 29.1914C95.1372 29.1676 95.2204 29.1439 95.3154 29.1201C95.4342 29.0726 95.5293 29.0369 95.6006 29.0132C95.6956 28.9894 95.7669 28.9775 95.8145 28.9775H95.957ZM96.0996 29.2627L93.0342 30.1182L92.749 30.1895C92.7253 30.1895 92.6777 30.2013 92.6064 30.2251C92.5352 30.2489 92.4876 30.2607 92.4639 30.2607C91.1331 30.6885 90.5153 30.938 90.6104 31.0093C90.6816 31.0093 91.3232 30.8429 92.5352 30.5103C92.749 30.4627 93.1292 30.332 93.6758 30.1182C95.2441 29.6667 96.0521 29.3815 96.0996 29.2627ZM78.0635 28.8706L77.9922 28.9775V29.1914V28.8706H78.0635ZM86.2261 30.4033C80.5229 32.3281 76.9704 33.5994 75.5684 34.2173L75.4971 34.3599C76.3763 33.9797 78.0516 33.3737 80.5229 32.542C83.0181 31.6865 84.9191 30.9736 86.2261 30.4033ZM72.9663 30.4033C72.9188 30.5697 72.8237 30.8429 72.6812 31.2231L72.4316 31.6509C72.0514 32.6252 71.8732 33.0054 71.897 32.7915C71.897 32.744 71.9089 32.6608 71.9326 32.542C72.1465 31.8291 72.2653 31.437 72.2891 31.3657C72.3604 31.2231 72.5386 30.9618 72.8237 30.5815L72.9663 30.4033ZM86.6895 32.3281C86.6657 32.3281 86.6063 32.34 86.5112 32.3638C86.4399 32.3875 86.2974 32.4351 86.0835 32.5063C85.8934 32.5776 85.7033 32.637 85.5132 32.6846C85.4657 32.7083 85.3706 32.7321 85.228 32.7559C85.0854 32.7796 84.9904 32.8034 84.9429 32.8271H84.9072L84.8716 32.8628L83.4458 33.3975C83.4933 33.3737 83.6003 33.3499 83.7666 33.3262L85.3706 32.9697C85.9172 32.7559 86.2855 32.5895 86.4756 32.4707L86.6895 32.3281ZM72.8237 31.9717C72.8237 32.0667 72.7762 32.2568 72.6812 32.542C72.6574 32.6133 72.6099 32.7321 72.5386 32.8984C72.491 33.0648 72.4554 33.1836 72.4316 33.2549C72.4079 33.2549 72.3604 33.2668 72.2891 33.2905C72.2178 33.3143 72.1702 33.3262 72.1465 33.3262L72.4316 32.7559L72.8237 31.9717ZM82.3765 32.4707H82.4478C82.4478 32.5895 82.3052 32.6846 82.02 32.7559C81.8062 32.8034 81.6755 32.839 81.6279 32.8628C81.6042 32.8628 81.5566 32.8509 81.4854 32.8271C81.4854 32.7083 81.6398 32.6133 81.9487 32.542C82.0438 32.4945 82.1864 32.4707 82.3765 32.4707ZM77.9209 33.8608C77.5407 33.9084 77.0535 34.0628 76.4595 34.3242C75.8892 34.5856 75.5208 34.7401 75.3545 34.7876C75.3545 34.8114 75.3426 34.8351 75.3188 34.8589C75.2951 34.8826 75.2832 34.9064 75.2832 34.9302C75.3307 34.9064 75.4377 34.8708 75.604 34.8232C75.7941 34.7757 75.9129 34.7401 75.9604 34.7163C77.2674 34.241 77.9209 33.9559 77.9209 33.8608ZM70.186 35.0371C70.0197 34.9896 69.1048 35.3936 67.4414 36.249C65.778 37.1045 64.9938 37.6867 65.0889 37.9956C65.3978 37.6154 66.6335 36.8669 68.7959 35.75L70.1147 35.1797L70.186 35.0371ZM73.1089 36.1064L72.6812 36.3203C71.5881 38.6253 71.0177 39.8491 70.9702 39.9917C70.8752 40.3006 70.8395 40.467 70.8633 40.4907C70.887 40.5145 70.9227 40.5382 70.9702 40.562C71.0653 40.5858 71.291 40.2293 71.6475 39.4927C72.0039 38.7323 72.3366 37.9837 72.6455 37.2471L73.1089 36.1064ZM69.687 36.1777L69.1523 36.3916C69.4613 36.249 69.6395 36.1777 69.687 36.1777ZM68.4395 36.7837C68.4395 36.7599 68.2137 36.7837 67.7622 36.855C67.4533 37.0688 67.1562 37.2471 66.8711 37.3896C66.6097 37.5322 66.4434 37.6273 66.3721 37.6748C66.3008 37.7223 66.2176 37.7936 66.1226 37.8887C66.0275 37.9837 65.8968 38.1501 65.7305 38.3877C65.8018 38.3877 65.9206 38.3164 66.0869 38.1738C66.2533 38.0312 66.4552 37.8649 66.6929 37.6748C66.9543 37.4609 67.2157 37.3065 67.4771 37.2114L68.4395 36.7837ZM68.7246 37.4966C68.5107 37.4966 67.9048 37.8174 66.9067 38.459C66.5503 38.6729 66.4552 38.7679 66.6216 38.7441C66.6453 38.7204 66.681 38.6966 66.7285 38.6729C66.776 38.6491 66.8592 38.6134 66.978 38.5659C67.0968 38.4946 67.2157 38.4233 67.3345 38.3521C67.4533 38.2808 67.584 38.2095 67.7266 38.1382C67.8691 38.0431 67.9998 37.96 68.1187 37.8887C68.2375 37.8174 68.3444 37.758 68.4395 37.7104C68.5583 37.6392 68.6414 37.5916 68.689 37.5679C68.7365 37.5203 68.7484 37.4966 68.7246 37.4966ZM73.2515 42.0947L73.3228 42.166L73.2515 42.0947ZM67.5483 43.4136C67.5008 43.5562 67.3226 43.9601 67.0137 44.6255C66.7048 45.2909 66.5146 45.7899 66.4434 46.1226V46.4077C66.5384 46.3364 66.7404 45.873 67.0493 45.0176L67.3345 44.1978C67.3345 44.2215 67.3345 44.269 67.3345 44.3403C67.3345 44.4354 67.3345 44.4829 67.3345 44.4829C67.3345 44.5067 67.3582 44.471 67.4058 44.376L67.2275 45.1602L67.9048 43.5562C67.881 43.5562 67.8216 43.5324 67.7266 43.4849C67.6315 43.4373 67.5721 43.4136 67.5483 43.4136ZM68.2256 43.5562V43.6274C67.4414 45.5998 67.0256 46.6453 66.978 46.7642C65.9087 49.687 65.1483 51.9801 64.6968 53.6436C64.2215 55.4733 63.9126 56.9823 63.77 58.1704C63.77 58.1942 63.7581 58.2298 63.7344 58.2773C63.7106 58.3249 63.6987 58.3605 63.6987 58.3843V58.5269C63.7225 58.4793 63.77 58.4199 63.8413 58.3486C63.9126 58.2773 63.9601 58.2179 63.9839 58.1704C64.1027 57.1486 64.4354 55.6396 64.9819 53.6436C65.481 51.8138 66.1226 49.8177 66.9067 47.6553C67.1206 47.085 67.4058 46.384 67.7622 45.5522C68.1424 44.6968 68.3919 44.1027 68.5107 43.77L68.2256 43.5562ZM69.2236 44.0552C67.2275 49.3306 66.2295 52.1821 66.2295 52.6099C66.2295 53.0376 67.3226 50.2454 69.5088 44.2334L69.2236 44.0552ZM97.2046 52.2534H96.9907H96.7412H96.9907H97.2046ZM98.3452 52.6812H98.0601H98.3452ZM98.7373 52.895C98.8324 52.9425 98.9036 52.9663 98.9512 52.9663H99.0938H99.2363L98.7373 52.895ZM92.2856 52.6812C92.3332 52.6812 92.3569 52.7049 92.3569 52.7524C92.3569 52.9425 92.2619 52.9901 92.0718 52.895C92.0005 52.8237 91.9767 52.7762 92.0005 52.7524L92.2856 52.6812ZM101.054 53.2871H100.912L100.983 53.3584L101.054 53.2871ZM90.1826 52.895C90.2064 52.895 90.2658 52.9069 90.3608 52.9307C90.4559 52.9544 90.5153 52.9663 90.5391 52.9663L90.6104 53.0376H90.3965L90.1113 52.895H90.1826ZM98.8086 53.3584H98.8799C98.9036 53.3584 98.9274 53.3703 98.9512 53.394C98.9749 53.4178 98.9987 53.4297 99.0225 53.4297L99.2363 53.501C99.2839 53.5485 99.272 53.5723 99.2007 53.5723C99.1532 53.5723 99.0938 53.5485 99.0225 53.501L98.8086 53.3584ZM100.127 53.4297L100.199 53.501L100.127 53.4297ZM91.0024 52.9663H91.145C91.2401 52.9901 91.2995 53.0257 91.3232 53.0732L91.2163 53.1089C90.9787 53.0851 90.848 53.0376 90.8242 52.9663H91.0024ZM96.3848 53.3584C96.4085 53.3584 96.6105 53.4059 96.9907 53.501C97.062 53.5247 97.1689 53.5723 97.3115 53.6436C97.4779 53.7148 97.6204 53.7743 97.7393 53.8218C97.8581 53.8693 97.965 53.9049 98.0601 53.9287L98.3809 54.0713H98.3452H97.9888C97.9175 54.1426 97.6323 54.0951 97.1333 53.9287C96.658 53.7624 96.3848 53.6198 96.3135 53.501C96.3135 53.4059 96.3372 53.3584 96.3848 53.3584ZM102.302 53.7148H102.23H102.302ZM93.9966 53.2871L94.0679 53.501L93.8896 53.5723V53.4297L93.9966 53.2871ZM91.8579 53.1802L92.0005 53.2871L92.0718 53.3584H91.9292C91.9054 53.3109 91.8817 53.2515 91.8579 53.1802ZM96.1709 53.501H96.2422C96.2897 53.5485 96.3135 53.596 96.3135 53.6436L96.2422 53.7861C96.1947 53.6911 96.1709 53.6198 96.1709 53.5723V53.501ZM101.66 53.8574L101.411 53.9287H101.589H101.731H101.803L101.66 53.8574ZM94.5669 53.5723H94.7095C94.8996 53.6673 94.9946 53.7386 94.9946 53.7861C94.8996 53.7861 94.8045 53.7624 94.7095 53.7148L94.4956 53.5723H94.5669ZM93.248 53.501C93.2956 53.501 93.3669 53.5129 93.4619 53.5366C93.5807 53.5604 93.652 53.5723 93.6758 53.5723C93.6995 53.5723 93.7352 53.5841 93.7827 53.6079C93.8302 53.6317 93.8659 53.6436 93.8896 53.6436C93.8659 53.6436 93.8302 53.6554 93.7827 53.6792C93.7352 53.703 93.6995 53.7148 93.6758 53.7148C93.652 53.7148 93.5807 53.703 93.4619 53.6792C93.3431 53.6554 93.2718 53.6436 93.248 53.6436C93.2243 53.6436 93.1886 53.6198 93.1411 53.5723C93.0936 53.5247 93.0579 53.501 93.0342 53.501H93.248ZM99.165 53.8574H99.2363V54H99.0938V53.9287L99.165 53.8574ZM66.9067 45.8374C66.8592 45.98 66.7879 46.1701 66.6929 46.4077L66.479 46.9067C66.5028 46.883 66.5146 46.8592 66.5146 46.8354C66.5622 46.7879 66.6453 46.6453 66.7642 46.4077C66.8592 46.2176 66.9067 46.0513 66.9067 45.9087V45.8374ZM101.945 54H102.017H101.945ZM102.017 54L102.159 54.0713L102.088 54H102.017ZM95.2798 53.7861H95.3511L95.5293 53.8574C95.5531 53.9049 95.4937 53.9287 95.3511 53.9287C95.256 53.9049 95.1847 53.8574 95.1372 53.7861H95.2798ZM99.5928 54H100.127H100.199C100.294 54 100.341 54.0713 100.341 54.2139L100.27 54.3564C100.175 54.3089 100.104 54.2852 100.056 54.2852C99.9849 54.2852 99.9967 54.3208 100.092 54.3921C100.163 54.4396 100.246 54.4753 100.341 54.499C100.579 54.5703 100.698 54.5941 100.698 54.5703H100.84L101.197 54.6416H101.339L101.731 54.8911C101.731 54.9624 101.66 55.0218 101.518 55.0693C101.375 55.1406 101.268 55.1525 101.197 55.105L101.054 54.9624H101.268C101.411 54.9624 101.411 54.9386 101.268 54.8911L101.197 54.8198C100.912 54.7248 100.769 54.7248 100.769 54.8198C100.769 54.8674 100.424 54.7842 99.7354 54.5703C99.0938 54.3564 98.7373 54.2852 98.666 54.3564C98.6185 54.404 98.5828 54.4159 98.5591 54.3921C98.5591 54.3921 98.571 54.3564 98.5947 54.2852C98.666 54.1188 98.8799 54.0951 99.2363 54.2139L99.5928 54.2852H99.7354C99.7354 54.1901 99.6878 54.1426 99.5928 54.1426C99.5452 54.1426 99.5215 54.1188 99.5215 54.0713L99.5928 54ZM100.912 54.0713L100.983 54.1426L101.054 54.2139C101.054 54.2614 100.983 54.2852 100.84 54.2852L100.769 54.1426C100.817 54.0951 100.864 54.0713 100.912 54.0713ZM96.2422 53.9287H96.3135L96.3848 54C96.3372 54.0238 96.2897 54.0238 96.2422 54C96.1947 54 96.1709 53.9762 96.1709 53.9287H96.2422ZM100.555 54.1426L100.626 54.2139H100.484C100.484 54.1901 100.484 54.1663 100.484 54.1426H100.555ZM96.7412 54.0713L96.8125 54.1426H96.8838C96.8363 54.1901 96.7887 54.2139 96.7412 54.2139C96.6937 54.2139 96.6699 54.1901 96.6699 54.1426C96.6699 54.0951 96.6937 54.0713 96.7412 54.0713ZM102.017 54.3564C102.04 54.3564 102.088 54.3683 102.159 54.3921C102.23 54.4159 102.278 54.4277 102.302 54.4277L102.587 54.6416C102.563 54.6654 102.444 54.6416 102.23 54.5703C102.04 54.5228 101.945 54.4753 101.945 54.4277L102.017 54.3564ZM105.438 54.5703C105.391 54.5703 105.308 54.5822 105.189 54.606C105.07 54.6297 104.987 54.6416 104.939 54.6416L105.153 54.7129C105.177 54.7129 105.225 54.6891 105.296 54.6416C105.367 54.5941 105.415 54.5703 105.438 54.5703ZM95.1372 54.0713C95.3986 54.0713 95.6006 54.0951 95.7432 54.1426C96.0283 54.2376 96.2184 54.2852 96.3135 54.2852H96.3848L96.4561 54.4277C96.4561 54.4753 96.4085 54.499 96.3135 54.499C96.2897 54.499 96.2065 54.4871 96.064 54.4634C95.9451 54.4396 95.8145 54.4277 95.6719 54.4277C95.6243 54.4277 95.5293 54.4159 95.3867 54.3921C95.2441 54.3683 95.161 54.3564 95.1372 54.3564C94.9946 54.3564 94.9233 54.3089 94.9233 54.2139C94.8283 54.1188 94.8758 54.0713 95.0659 54.0713H95.1372ZM97.7036 54.3564L97.8462 54.4277L97.9175 54.499H97.7749C97.7036 54.4753 97.6799 54.4277 97.7036 54.3564ZM96.5986 54.4277C96.8125 54.5228 96.9907 54.5703 97.1333 54.5703C97.2284 54.5941 97.6086 54.7485 98.2739 55.0337C98.5828 55.2476 98.7373 55.2951 98.7373 55.1763C98.7373 55.1287 98.8086 55.105 98.9512 55.105H99.0225C99.1175 55.105 99.1175 55.1525 99.0225 55.2476C98.9274 55.3426 98.9749 55.3901 99.165 55.3901C99.2601 55.3901 99.3789 55.4614 99.5215 55.604L99.5928 55.6396L99.5571 55.6753C99.4383 55.6515 99.3076 55.6278 99.165 55.604L98.4165 55.4614C98.1313 55.3188 97.8224 55.1763 97.4897 55.0337C96.8481 54.8198 96.5273 54.6416 96.5273 54.499L96.5986 54.4277ZM103.478 54.8911H103.621C103.763 54.8911 103.834 54.9624 103.834 55.105H103.763H103.621C103.526 55.1525 103.454 55.1763 103.407 55.1763C103.383 55.1763 103.383 55.1644 103.407 55.1406C103.431 55.1169 103.454 55.105 103.478 55.105C103.621 55.105 103.621 55.0337 103.478 54.8911ZM101.945 54.8911C101.969 54.8911 102.017 54.903 102.088 54.9268C102.159 54.9505 102.207 54.9624 102.23 54.9624L102.516 55.105C102.421 55.1525 102.302 55.1525 102.159 55.105L101.874 54.8911H101.945ZM102.872 54.9624H102.943L103.015 55.0337C103.015 55.0812 102.943 55.105 102.801 55.105L102.658 54.9624H102.801H102.872ZM104.191 55.1763L104.262 55.2476H104.333C104.381 55.2476 104.429 55.2713 104.476 55.3188C104.547 55.3901 104.583 55.4377 104.583 55.4614H104.191C103.977 55.3901 103.906 55.3188 103.977 55.2476C104.025 55.2 104.072 55.1763 104.12 55.1763H104.191ZM101.731 55.1763H101.803L101.874 55.3188L101.731 55.3901C101.684 55.3426 101.66 55.2951 101.66 55.2476C101.66 55.2 101.684 55.1763 101.731 55.1763ZM102.872 55.3188C102.991 55.3188 103.24 55.3664 103.621 55.4614C103.644 55.4614 103.68 55.4733 103.728 55.4971C103.775 55.5208 103.811 55.5327 103.834 55.5327H103.906L104.12 55.6753L102.908 55.3545L102.872 55.3188ZM105.225 55.5327H105.296L105.367 55.604H105.225C105.201 55.5802 105.177 55.5565 105.153 55.5327H105.225ZM99.7354 55.2476L99.8066 55.3188L99.7354 55.5327V55.3901V55.2476ZM99.9492 55.3188H100.056V55.4614L99.8779 55.5327V55.3901L99.9492 55.3188ZM100.27 55.3901V55.4614C100.365 55.509 100.436 55.5565 100.484 55.604C100.508 55.6278 100.508 55.6396 100.484 55.6396C100.46 55.6396 100.413 55.6278 100.341 55.604L100.199 55.4614L100.27 55.3901ZM106.9 55.8892V56.0317C106.947 56.0793 107.019 56.1149 107.114 56.1387C107.209 56.1862 107.28 56.21 107.328 56.21C107.399 56.21 107.446 56.1981 107.47 56.1743L107.185 56.0317L107.114 55.9604L106.9 55.8892ZM100.341 55.8179H100.484V55.9604C100.341 56.008 100.222 56.008 100.127 55.9604C99.8423 55.8654 99.8423 55.8179 100.127 55.8179H100.199H100.341ZM101.945 55.9604H102.159L102.23 56.0317L102.302 56.103C102.302 56.1743 102.23 56.1743 102.088 56.103L101.803 55.9604H101.945ZM100.698 55.9604C100.722 55.9604 100.757 55.9723 100.805 55.9961C100.852 56.0199 100.888 56.0317 100.912 56.0317L101.125 56.103C101.125 56.1506 101.054 56.1743 100.912 56.1743L100.84 56.103L100.626 55.9604H100.698ZM105.367 56.1743C105.415 56.2218 105.462 56.2456 105.51 56.2456L105.581 56.4238C105.486 56.5189 105.415 56.4951 105.367 56.3525V56.1743ZM102.658 56.103H102.729C102.825 56.103 102.872 56.1862 102.872 56.3525C102.872 56.4001 102.801 56.4238 102.658 56.4238C102.563 56.4238 102.516 56.3407 102.516 56.1743C102.563 56.1268 102.611 56.103 102.658 56.103ZM106.187 56.4238L106.258 56.4951C106.258 56.5426 106.306 56.6139 106.401 56.709C106.425 56.7327 106.413 56.7446 106.365 56.7446C106.341 56.7684 106.282 56.7803 106.187 56.7803L105.938 56.6377V56.4951C105.938 56.5426 105.961 56.5664 106.009 56.5664C106.128 56.5664 106.187 56.5426 106.187 56.4951V56.4238ZM101.589 56.103H101.66V56.1743L101.803 56.2456C101.803 56.3169 101.731 56.3525 101.589 56.3525C101.399 56.2812 101.351 56.21 101.446 56.1387C101.494 56.1149 101.541 56.103 101.589 56.103ZM106.686 56.5664H106.757V56.7803L106.615 56.9229V56.709L106.686 56.5664ZM107.114 56.7803C107.138 56.7803 107.185 56.7922 107.256 56.8159C107.351 56.8397 107.47 56.8753 107.613 56.9229C107.779 56.9704 107.934 57.0179 108.076 57.0654C108.314 57.1842 108.433 57.2555 108.433 57.2793C108.433 57.3268 108.444 57.3387 108.468 57.3149C108.492 57.2912 108.504 57.2555 108.504 57.208L108.575 57.1367C108.623 57.1842 108.646 57.2318 108.646 57.2793C108.67 57.3743 108.658 57.4338 108.611 57.4575C108.587 57.4813 108.48 57.4694 108.29 57.4219C108.219 57.3743 108.136 57.3506 108.041 57.3506C107.969 57.3506 107.934 57.3743 107.934 57.4219C107.91 57.4932 107.934 57.5526 108.005 57.6001C108.1 57.6714 108.171 57.6833 108.219 57.6357C108.361 57.5882 108.48 57.5882 108.575 57.6357C108.765 57.707 108.86 57.6833 108.86 57.5645C108.86 57.4694 108.932 57.4219 109.074 57.4219C109.098 57.4219 109.11 57.4456 109.11 57.4932C109.11 57.5407 109.11 57.5882 109.11 57.6357C109.134 57.707 109.157 57.7546 109.181 57.7783L109.538 58.1704C109.561 58.2179 109.526 58.2061 109.431 58.1348C109.169 57.9922 108.979 57.9328 108.86 57.9565C108.67 57.9328 108.456 57.8734 108.219 57.7783C107.981 57.707 107.779 57.6239 107.613 57.5288C107.446 57.4338 107.375 57.3506 107.399 57.2793C107.375 57.2793 107.363 57.2555 107.363 57.208C107.363 57.1605 107.375 57.113 107.399 57.0654C107.423 56.9941 107.435 56.9585 107.435 56.9585C107.435 56.9585 107.399 56.9941 107.328 57.0654L107.042 57.208C107.019 57.208 107.007 57.1961 107.007 57.1724C107.031 57.1486 107.066 57.113 107.114 57.0654C107.209 56.9704 107.209 56.8991 107.114 56.8516L107.042 56.7803H107.114ZM103.122 56.709C103.169 56.7565 103.217 56.7803 103.264 56.7803L103.407 56.8516C103.431 56.8991 103.431 56.9229 103.407 56.9229C103.383 56.9229 103.335 56.8991 103.264 56.8516C103.074 56.7565 103.027 56.709 103.122 56.709ZM103.834 56.8516V56.9941L103.763 57.0654V56.9229L103.834 56.8516ZM105.153 56.9941L105.296 57.0654H105.367C105.367 57.113 105.32 57.113 105.225 57.0654C105.13 57.0179 105.106 56.9941 105.153 56.9941ZM104.191 57.0654C104.31 57.0654 104.512 57.113 104.797 57.208L105.153 57.3862C105.153 57.3862 104.987 57.3506 104.654 57.2793C104.512 57.2318 104.31 57.208 104.048 57.208C104.001 57.208 103.977 57.1842 103.977 57.1367C103.977 57.0892 104.048 57.0654 104.191 57.0654ZM105.51 57.4932L105.581 57.5645H105.438C105.438 57.5407 105.438 57.5169 105.438 57.4932H105.51ZM107.114 57.7783H107.185L107.256 57.9565C107.209 58.0041 107.161 58.0278 107.114 58.0278C107.019 58.0278 106.971 57.9803 106.971 57.8853C106.971 57.814 107.019 57.7783 107.114 57.7783ZM106.615 57.7783V57.9565C106.615 58.1229 106.543 58.1704 106.401 58.0991C106.33 58.0278 106.306 57.9803 106.33 57.9565C106.472 57.9565 106.567 57.9328 106.615 57.8853V57.7783ZM107.114 58.0991V58.2417L107.042 58.313V58.2417L107.114 58.0991ZM107.72 58.3843H107.791L107.862 58.4556H107.72C107.696 58.4318 107.672 58.408 107.648 58.3843H107.72ZM69.1523 50.7207V50.792H69.0811L69.1523 50.7207ZM68.7246 51.8257V51.897V51.8257ZM65.8018 54.3564V54.4277C65.8018 54.4753 65.7899 54.5703 65.7661 54.7129C65.7424 54.8555 65.7305 54.9624 65.7305 55.0337C65.7305 55.1287 65.6592 55.3188 65.5166 55.604L65.481 55.6396L65.5879 55.1763L65.8018 54.3564ZM63.5562 55.2476V55.3188C63.5562 55.3664 63.5324 55.4495 63.4849 55.5684C63.4611 55.7109 63.4492 55.8179 63.4492 55.8892C63.4492 55.9604 63.4255 56.0674 63.3779 56.21C63.3304 56.3525 63.3066 56.4476 63.3066 56.4951L63.2354 56.6377C63.2116 56.5902 63.2354 56.3882 63.3066 56.0317L63.5562 55.2476ZM64.4829 64.23C63.9601 63.9686 63.6987 62.3052 63.6987 59.2397C63.3898 60.0239 63.4136 61.2952 63.77 63.0537C63.9601 64.0042 64.1502 64.4557 64.3403 64.4082C64.3879 64.4082 64.4354 64.3488 64.4829 64.23ZM69.687 62.1626C69.7821 62.1626 69.8058 62.2458 69.7583 62.4121C69.7108 62.5309 69.6038 62.6022 69.4375 62.626C69.4375 62.6022 69.4613 62.519 69.5088 62.3765C69.5801 62.2576 69.6157 62.1864 69.6157 62.1626H69.687Z" fill="white"/>
</svg>
