<svg width="92" height="69" viewBox="0 0 92 69" fill="none" xmlns="http://www.w3.org/2000/svg">
<path d="M37.2148 0.711426C38.0465 0.711426 38.7832 0.996582 39.4248 1.56689C40.0902 2.13721 40.5179 2.99268 40.708 4.1333C40.708 5.01253 40.4941 6.72347 40.0664 9.26611C39.6624 11.8088 39.1396 14.7197 38.498 17.999C37.8802 21.2783 37.5475 23.0605 37.5 23.3457V23.417V23.4883C37.6426 23.4408 38.0109 23.2744 38.605 22.9893C39.2466 22.6566 39.71 22.4546 39.9951 22.3833C40.1852 22.3358 40.8625 22.0506 42.0269 21.5278C44.9972 20.1733 46.4824 19.5436 46.4824 19.6387C46.4824 19.6624 46.3636 19.7575 46.126 19.9238C47.4805 19.2822 48.1577 19.1159 48.1577 19.4248C48.1577 19.4723 48.1221 19.5674 48.0508 19.71C47.9795 19.9238 47.9914 20.0426 48.0864 20.0664C48.0627 20.0902 45.2824 21.4684 39.7456 24.2012C38.4149 24.8428 37.5238 25.3062 37.0723 25.5913C36.7396 27.2547 36.4663 28.6092 36.2524 29.6548C36.0623 30.6766 35.8722 31.6628 35.6821 32.6133C35.492 33.54 35.1712 35.049 34.7197 37.1401C32.391 47.6909 31.488 57.9565 32.0107 67.937C31.987 68.2697 31.7137 68.4717 31.1909 68.543C30.6681 68.6143 30.0978 68.543 29.48 68.3291C28.8859 68.1152 28.4701 67.8182 28.2324 67.438C27.6859 66.4399 27.4126 63.4696 27.4126 58.5269C27.4126 58.0516 27.4007 57.612 27.377 57.208C27.377 56.804 27.377 56.5426 27.377 56.4238C27.4007 56.305 27.4126 56.1862 27.4126 56.0674C27.4126 55.9486 27.4245 55.806 27.4482 55.6396C27.472 55.4971 27.4958 55.307 27.5195 55.0693C27.5671 54.8317 27.6265 54.4277 27.6978 53.8574C27.769 53.2871 27.8522 52.6336 27.9473 51.897C28.6602 46.3127 30.0978 38.3758 32.2603 28.0864C32.1414 28.1577 31.7969 28.3241 31.2266 28.5854C30.68 28.8231 30.1929 29.0488 29.7651 29.2627C29.3612 29.4528 28.9097 29.6667 28.4106 29.9043C27.9354 30.1419 27.5433 30.332 27.2344 30.4746C26.9492 30.6172 26.771 30.7004 26.6997 30.7241L26.1294 31.0093C26.0106 31.1043 25.9036 31.1756 25.8086 31.2231C24.9769 31.5796 23.1353 32.3875 20.2837 33.647C17.8361 37.3778 15.8044 40.6689 14.1885 43.5205C12.5964 46.3483 11.5151 48.2137 10.9448 49.1167C11.1587 49.4494 11.3013 49.7821 11.3726 50.1147C11.8478 51.7306 12.0617 53.1921 12.0142 54.499C11.9666 55.806 11.7884 56.8634 11.4795 57.6714C11.1706 58.4793 10.7666 59.1566 10.2676 59.7031L10.4102 59.8457H10.4458C9.78044 60.5824 8.80615 61.3428 7.52295 62.127C5.17041 63.6003 3.45947 63.8141 2.39014 62.7686C1.72477 62.1507 1.29704 61.3547 1.10693 60.3804C0.940592 59.4061 0.928711 58.5506 1.07129 57.814C1.23763 57.0773 1.4515 56.5308 1.71289 56.1743C2.2832 55.4139 2.84163 54.5465 3.38818 53.5723C3.9585 52.598 4.62386 51.3979 5.38428 49.9722C6.14469 48.5226 6.67936 47.5246 6.98828 46.978C6.91699 46.8354 6.72689 46.5503 6.41797 46.1226C6.10905 45.6711 5.8833 45.3265 5.74072 45.0889C4.98031 43.8057 4.56445 42.5819 4.49316 41.4175C4.42188 40.2531 4.71891 39.2669 5.38428 38.459C5.52686 38.2926 5.64567 38.1619 5.74072 38.0669C5.83577 37.9481 5.93083 37.8293 6.02588 37.7104C6.14469 37.5916 6.27539 37.4847 6.41797 37.3896C6.58431 37.2946 6.72689 37.1995 6.8457 37.1045C6.98828 36.9857 7.20215 36.8669 7.4873 36.748C7.77246 36.6055 8.03385 36.4748 8.27148 36.356C8.50911 36.2371 8.87744 36.0708 9.37646 35.8569C9.87549 35.6193 10.327 35.4054 10.731 35.2153C11.1587 35.0252 11.7528 34.752 12.5132 34.3955C13.2974 34.0391 14.034 33.7064 14.7231 33.3975C15.4836 32.5658 16.3153 31.4132 17.2183 29.9399C18.1213 28.4666 19.0361 26.8864 19.9629 25.1992C20.8896 23.4883 21.5312 22.3358 21.8877 21.7417C21.8877 21.7179 23.0283 19.8288 25.3096 16.0742C27.5908 12.2959 29.6701 8.96908 31.5474 6.09375C33.4246 3.19466 34.5534 1.69759 34.9336 1.60254C35.5277 1.00846 36.2881 0.711426 37.2148 0.711426ZM36.1099 8.51758C35.9198 8.49382 34.791 10.0859 32.7236 13.2939C30.68 16.4782 28.6602 19.6981 26.6641 22.9536C24.668 26.2091 23.1471 28.728 22.1016 30.5103C23.2897 29.8211 25.167 28.9181 27.7334 27.8013C30.3236 26.6606 32.0226 25.9002 32.8306 25.52C32.9019 25.1873 33.0326 24.5339 33.2227 23.5596C33.4365 22.5853 33.6029 21.8249 33.7217 21.2783L33.5435 22.0269C35.1118 14.8504 35.991 10.5731 36.1812 9.19482C36.2524 8.74333 36.2287 8.51758 36.1099 8.51758ZM38.3198 12.3315C37.8921 12.5692 37.4168 14.2088 36.894 17.2505C36.395 20.2684 36.0386 21.9556 35.8247 22.312C35.5633 23.3813 35.5039 23.8804 35.6465 23.8091C35.8604 23.6665 36.0861 22.9417 36.3237 21.6348L36.395 21.2783C36.4663 20.9932 36.7871 19.508 37.3574 16.8228C37.9277 14.1375 38.2485 12.6405 38.3198 12.3315ZM29.2661 15.2544C29.1473 15.3732 28.8265 15.7534 28.3037 16.395C27.8047 17.0366 27.2106 17.8683 26.5215 18.8901C25.8324 19.9119 25.3571 20.7437 25.0957 21.3853C24.5254 22.0269 24.0145 22.7397 23.563 23.5239C23.1115 24.3081 22.7313 25.0448 22.4224 25.7339C22.1134 26.423 21.9352 26.8151 21.8877 26.9102C21.6025 27.3854 21.1748 28.027 20.6045 28.835C20.0342 29.6191 19.5352 30.2845 19.1074 30.8311C18.7035 31.3776 18.4777 31.6746 18.4302 31.7222C19.048 31.4132 19.3926 31.2231 19.4639 31.1519C19.8203 30.4152 21.8402 27.0765 25.5234 21.1357C26.0225 20.3278 26.6047 19.401 27.27 18.3555C27.9591 17.3099 28.4701 16.5376 28.8027 16.0386C29.1354 15.5158 29.2899 15.2544 29.2661 15.2544ZM40.708 22.3833C40.5179 22.4308 40.2565 22.5259 39.9238 22.6685C39.71 23.0249 38.9733 23.3932 37.7139 23.7734C37.6663 23.7972 37.6069 23.821 37.5356 23.8447C37.4644 23.8685 37.4049 23.8923 37.3574 23.916V24.2012C39.6862 23.0605 40.8031 22.4546 40.708 22.3833ZM32.6167 26.625V26.7676V26.625ZM32.5454 26.625C32.284 26.7438 31.9632 26.8983 31.583 27.0884C31.2028 27.2785 30.9058 27.4329 30.6919 27.5518C30.478 27.6468 30.3354 27.7062 30.2642 27.73L29.9077 27.9438C29.5988 28.0389 29.2542 28.1815 28.874 28.3716L26.771 29.4053C24.0145 30.5934 22.256 31.3657 21.4956 31.7222C21.4956 31.7222 21.4243 31.8053 21.2817 31.9717C21.2817 32.0192 21.3293 32.0192 21.4243 31.9717L26.4146 29.7617C26.9373 29.5954 27.3532 29.4053 27.6621 29.1914C28.0661 28.93 28.6958 28.6092 29.5513 28.229C29.8364 28.1102 30.2523 27.9201 30.7988 27.6587C31.3691 27.3735 31.7256 27.1953 31.8682 27.124C32.1058 27.0052 32.3315 26.9102 32.5454 26.8389V26.625ZM32.5454 27.1953C32.5454 27.2191 32.5335 27.2666 32.5098 27.3379C32.486 27.3854 32.4741 27.4211 32.4741 27.4448C32.4741 27.4211 32.486 27.3854 32.5098 27.3379C32.5335 27.2666 32.5454 27.2191 32.5454 27.1953ZM32.4741 27.1953C32.0464 27.3854 31.5949 27.5993 31.1196 27.8369C30.6681 28.0745 30.3117 28.2528 30.0503 28.3716C29.8127 28.4904 29.6701 28.5617 29.6226 28.5854L29.48 28.6567C29.4562 28.6567 28.7196 29.0013 27.27 29.6904C25.8442 30.3558 24.4185 31.0212 22.9927 31.6865C21.5907 32.3281 20.8778 32.6608 20.854 32.6846C20.8302 32.7083 21.3293 32.4945 22.3511 32.043C23.3966 31.5915 24.4303 31.14 25.4521 30.6885C26.4977 30.237 27.0086 30.0231 26.9849 30.0469C27.0086 30.0469 27.3532 29.8687 28.0186 29.5122C28.7077 29.1558 29.0641 28.9775 29.0879 28.9775C29.1354 28.9775 29.2305 28.9419 29.373 28.8706C29.5394 28.7756 29.7414 28.6686 29.979 28.5498C30.2404 28.4072 30.4543 28.3003 30.6206 28.229C30.7869 28.1577 31.084 28.0389 31.5117 27.8726C31.9395 27.7062 32.2365 27.5874 32.4028 27.5161C32.4028 27.4924 32.4147 27.4448 32.4385 27.3735C32.4622 27.2785 32.4741 27.2191 32.4741 27.1953ZM34.4346 28.3003C34.387 28.3003 34.292 28.6211 34.1494 29.2627C32.486 36.0827 31.6305 39.564 31.583 39.7065C31.2979 40.8947 31.1315 41.667 31.084 42.0234C31.0602 42.1185 30.9889 42.5225 30.8701 43.2354C30.7513 43.9245 30.6681 44.471 30.6206 44.875C30.5731 45.4928 30.4305 46.1463 30.1929 46.8354C30.0741 47.1681 30.0503 47.3701 30.1216 47.4414C30.1216 47.4176 30.1335 47.382 30.1572 47.3345C30.181 47.2869 30.1929 47.2513 30.1929 47.2275V47.1562V47.1206V47.085V47.1206V47.1562V47.5127V47.9404C30.1929 48.2969 30.1691 48.8434 30.1216 49.5801C30.0741 50.3167 30.0503 50.887 30.0503 51.291V48.7603C29.9552 49.3306 29.9077 49.687 29.9077 49.8296C29.9077 50.1147 29.8602 50.8514 29.7651 52.0396C29.7651 52.1108 29.7533 52.2059 29.7295 52.3247C29.7057 52.4435 29.6938 52.5386 29.6938 52.6099C29.5988 53.703 29.5513 54.3802 29.5513 54.6416C29.5037 55.7347 29.48 56.6377 29.48 57.3506C29.48 58.0872 29.4919 58.61 29.5156 58.9189C29.5394 59.2516 29.6107 59.9289 29.7295 60.9507C29.8721 61.9725 29.979 62.8398 30.0503 63.5527C30.1691 63.0299 30.2523 62.4359 30.2998 61.7705C30.3473 61.1051 30.3592 60.321 30.3354 59.418C30.3354 58.5387 30.3236 57.8021 30.2998 57.208C30.2998 56.6377 30.276 55.7822 30.2285 54.6416C30.181 53.5247 30.1453 52.7762 30.1216 52.396C30.2166 51.992 30.276 51.4217 30.2998 50.6851C30.3236 49.9484 30.383 49.3781 30.478 48.9741C30.6444 48.1899 30.7988 47.2632 30.9414 46.1938C30.9652 45.9562 31.0008 45.7186 31.0483 45.481C31.0959 45.2196 31.1315 45.0176 31.1553 44.875L31.2266 44.6611L31.2979 44.4473C31.3216 44.3047 31.3573 44.1146 31.4048 43.877C31.4523 43.6156 31.488 43.366 31.5117 43.1284C31.6781 41.8927 31.8444 41.2749 32.0107 41.2749C32.0345 41.2749 32.0583 41.2868 32.082 41.3105C32.1771 41.3818 32.284 41.263 32.4028 40.9541C32.5692 40.5501 32.7118 39.9561 32.8306 39.1719C32.9494 38.3164 32.9613 37.9124 32.8662 37.96C32.8187 37.9837 32.7355 38.2451 32.6167 38.7441C32.5216 39.1956 32.4028 39.4927 32.2603 39.6353C32.2365 39.659 32.2246 39.6471 32.2246 39.5996L32.3315 39.1006C32.3078 39.4095 32.3672 39.3263 32.5098 38.8511C32.6286 38.3045 32.9494 36.8312 33.4722 34.4312C34.1138 31.3182 34.4821 29.6904 34.5771 29.5479C34.5771 28.7161 34.5296 28.3003 34.4346 28.3003ZM30.0503 51.291C30.0503 51.4098 30.0622 51.5999 30.0859 51.8613C30.1097 52.099 30.1216 52.2772 30.1216 52.396V52.4673C30.0741 52.5623 30.0503 52.6336 30.0503 52.6812V52.895V52.8594V52.8237V52.7881V52.7524V52.7168V52.6812V52.6455V52.6099V52.5742V52.5386V52.5029V52.4673V52.4316V52.396V52.3604V52.3247V52.2891V52.2534V52.2178V52.1821V52.1465V52.1108V52.0752V52.0396V52.0039V51.9683V51.9326V51.8613V51.8257V51.79V51.7544V51.7188V51.6831V51.6475V51.291ZM16.6836 35.8926C16.541 35.9876 16.3747 36.1302 16.1846 36.3203L15.6143 36.9263L13.0479 40.6333C12.5488 41.4175 12.2518 41.8571 12.1567 41.9521C11.9191 42.1423 11.8478 42.2848 11.9429 42.3799C11.9904 42.4274 11.8241 42.6769 11.4438 43.1284C11.3488 43.2235 11.2537 43.3423 11.1587 43.4849C11.0874 43.6037 11.0042 43.7344 10.9092 43.877C10.8379 44.0195 10.7904 44.1146 10.7666 44.1621C10.529 44.8512 10.3151 45.3265 10.125 45.5879C10.0537 45.6829 9.88737 45.8849 9.62598 46.1938C9.38835 46.5028 9.23389 46.7404 9.1626 46.9067L9.4834 47.2275C9.53092 47.1325 9.60221 47.0256 9.69727 46.9067C9.79232 46.7642 9.86361 46.6572 9.91113 46.5859C9.95866 46.4909 9.98242 46.4315 9.98242 46.4077L10.1963 46.1226C10.3864 45.8612 10.5765 45.5879 10.7666 45.3027L11.9429 43.6274C11.7528 43.1047 12.2161 42.4749 13.333 41.7383C13.4756 41.5482 13.6182 41.2511 13.7607 40.8472C13.9033 40.4194 14.0578 40.0868 14.2241 39.8491C14.6281 39.3739 14.8182 38.958 14.7944 38.6016C14.8182 38.6491 14.8538 38.661 14.9014 38.6372C14.9727 38.5897 15.0558 38.5065 15.1509 38.3877C15.2459 38.2451 15.3291 38.1144 15.4004 37.9956C15.4954 37.8768 15.6261 37.6986 15.7925 37.4609C15.9588 37.1995 16.0895 36.9976 16.1846 36.855C16.5885 36.2134 16.7549 35.8926 16.6836 35.8926ZM13.333 35.8926C12.4538 36.3916 11.9429 36.6649 11.8003 36.7124L8.73486 38.3164L13.0479 36.3203L13.333 35.8926ZM14.5806 36.6411C14.3429 36.6411 14.1172 36.8075 13.9033 37.1401C13.3568 37.9481 12.7271 38.9818 12.0142 40.2412C11.325 41.4769 10.8854 42.2135 10.6953 42.4512C10.7666 42.4987 10.9211 42.3561 11.1587 42.0234C11.3963 41.667 11.6696 41.2155 11.9785 40.6689C12.2874 40.0986 12.5964 39.5283 12.9053 38.958C13.238 38.3877 13.5588 37.8768 13.8677 37.4253C14.1766 36.9738 14.4142 36.7124 14.5806 36.6411ZM12.9766 36.855C12.6676 37.1401 12.1092 37.4728 11.3013 37.853C10.4933 38.2095 9.74479 38.5422 9.05566 38.8511C8.36654 39.1362 7.7487 39.5877 7.20215 40.2056C6.6556 40.7996 6.39421 41.4769 6.41797 42.2373C6.37044 42.9977 6.88135 44.0433 7.95068 45.374L8.37842 44.7324C8.75863 44.1859 9.32894 43.2591 10.0894 41.9521C10.8735 40.6452 11.5508 39.4689 12.1211 38.4233L12.9766 36.855ZM15.7568 39.1719C15.6855 39.1719 15.6261 39.2075 15.5786 39.2788C15.5311 39.3263 15.5192 39.3857 15.543 39.457C15.543 39.5046 15.5905 39.5283 15.6855 39.5283L15.8281 39.457C15.8519 39.4095 15.8519 39.3501 15.8281 39.2788C15.8281 39.2075 15.8044 39.1719 15.7568 39.1719ZM15.0083 40.1343L14.7231 40.2769C14.2954 40.6333 14.141 40.8709 14.2598 40.9897C14.3786 41.1086 14.5568 41.0254 14.7944 40.7402C14.9132 40.5739 14.9845 40.3719 15.0083 40.1343ZM32.082 42.2373C32.1296 42.2373 32.1533 42.3324 32.1533 42.5225V42.7007C32.1533 42.7482 32.082 42.772 31.9395 42.772C31.8682 42.7244 31.8444 42.6413 31.8682 42.5225C31.8919 42.3799 31.9395 42.2848 32.0107 42.2373H32.082ZM31.7969 43.6274C31.7018 43.7225 31.6305 43.8413 31.583 43.9839C31.4167 44.4829 31.3691 44.8512 31.4404 45.0889C31.488 45.3027 31.5592 45.2909 31.6543 45.0532L31.7969 44.4473V44.3047V43.6274ZM9.69727 44.376C9.6735 44.3997 9.63786 44.4235 9.59033 44.4473C9.54281 44.471 9.50716 44.4948 9.4834 44.5186C9.19824 44.8037 8.9012 45.1958 8.59229 45.6948C8.56852 45.7186 8.54476 45.7661 8.521 45.8374C8.49723 45.9087 8.47347 45.9562 8.44971 45.98C8.47347 46.0037 8.50911 46.0513 8.55664 46.1226C8.60417 46.1938 8.63981 46.2414 8.66357 46.2651C9.13883 45.5522 9.41211 45.1602 9.4834 45.0889L9.55469 44.9463C9.64974 44.8512 9.69727 44.7324 9.69727 44.5898V44.376ZM7.41602 47.7266C7.39225 47.7741 7.28532 47.9761 7.09521 48.3325C6.90511 48.689 6.75065 48.9979 6.63184 49.2593C6.44173 49.6395 6.18034 50.1029 5.84766 50.6494C5.53874 51.1722 5.26546 51.6118 5.02783 51.9683C4.7902 52.3247 4.65951 52.5148 4.63574 52.5386C4.56445 52.6099 4.3387 52.9425 3.9585 53.5366C3.57829 54.1069 3.34066 54.5347 3.24561 54.8198C3.22184 55.105 3.11491 55.402 2.9248 55.7109C2.75846 56.0199 2.58024 56.2931 2.39014 56.5308C2.2238 56.7922 2.05745 57.208 1.89111 57.7783C1.74854 58.3724 1.66536 59.0615 1.6416 59.8457C1.66536 59.7269 1.70101 59.5011 1.74854 59.1685C1.81982 58.8358 1.89111 58.5387 1.9624 58.2773C2.05745 58.0397 2.29508 57.5288 2.67529 56.7446C3.0555 55.9604 3.59017 54.9505 4.2793 53.7148C4.39811 53.2158 4.7902 52.4792 5.45557 51.5049C6.45361 49.9128 6.96452 49.0929 6.98828 49.0454C7.20215 48.689 7.39225 48.3444 7.55859 48.0117C7.53483 47.988 7.51107 47.9404 7.4873 47.8691C7.46354 47.7979 7.43978 47.7503 7.41602 47.7266ZM8.09326 48.6533L7.95068 48.8315C7.68929 49.188 7.55859 49.4019 7.55859 49.4731C7.55859 49.5682 7.46354 49.7583 7.27344 50.0435C6.8457 50.7088 6.42985 51.4455 6.02588 52.2534C5.93083 52.4435 5.76449 52.7406 5.52686 53.1445C5.31299 53.5485 5.13477 53.8812 4.99219 54.1426C4.87337 54.404 4.80208 54.5703 4.77832 54.6416C4.73079 54.7367 4.64762 54.9149 4.52881 55.1763C4.43376 55.4614 4.32682 55.7109 4.20801 55.9248C4.08919 56.1387 3.94661 56.3288 3.78027 56.4951C3.75651 56.5902 3.51888 57.1961 3.06738 58.313C2.63965 59.4299 2.4139 60.0358 2.39014 60.1309C2.604 60.2259 2.75846 60.2021 2.85352 60.0596C2.97233 59.917 3.0555 59.6912 3.10303 59.3823C3.17432 59.0972 3.23372 58.7882 3.28125 58.4556C3.32878 58.1229 3.41195 57.7902 3.53076 57.4575C3.67334 57.1486 3.85156 56.9229 4.06543 56.7803C4.44564 55.806 5.15853 54.4871 6.2041 52.8237C7.27344 51.1603 7.99821 49.9484 8.37842 49.188C8.35465 49.1405 8.30713 49.0573 8.23584 48.9385C8.16455 48.7959 8.11702 48.7008 8.09326 48.6533ZM28.8027 51.0059C28.6839 51.0059 28.577 51.2197 28.4819 51.6475C28.3869 52.0752 28.375 52.396 28.4463 52.6099C28.4463 52.6336 28.4344 52.6812 28.4106 52.7524C28.3869 52.8237 28.375 52.8713 28.375 52.895C28.375 53.1326 28.4463 53.4416 28.5889 53.8218C28.7552 54.202 28.8265 54.4753 28.8027 54.6416C28.2324 58.1348 28.2324 61.0339 28.8027 63.3389C28.8978 63.5527 28.9453 63.1488 28.9453 62.127C28.9453 61.1289 28.9215 59.5843 28.874 57.4932C28.8265 55.402 28.8027 53.7743 28.8027 52.6099C28.8027 52.491 28.8027 52.3722 28.8027 52.2534C28.8265 52.1346 28.8384 52.0396 28.8384 51.9683C28.8621 51.897 28.874 51.8494 28.874 51.8257L28.9453 51.6475C28.9453 51.2197 28.8978 51.0059 28.8027 51.0059ZM9.55469 51.1484C9.38835 51.3861 8.99626 52.0158 8.37842 53.0376C7.76058 54.0594 7.22591 54.8911 6.77441 55.5327C6.53678 55.8892 6.14469 56.5783 5.59814 57.6001C5.0516 58.6457 4.70703 59.2992 4.56445 59.5605C4.54069 59.6318 4.54069 59.6675 4.56445 59.6675C4.58822 59.6912 4.67139 59.6556 4.81396 59.5605C5.14665 59.3467 5.47933 59.1685 5.81201 59.0259C6.61995 58.6457 7.23779 58.3011 7.66553 57.9922C8.11702 57.707 8.40218 57.5407 8.521 57.4932C9.02002 57.1367 9.50716 56.6021 9.98242 55.8892C10.7191 54.6772 10.5765 53.097 9.55469 51.1484ZM30.9414 51.6475C30.8464 52.0039 30.7988 52.3485 30.7988 52.6812C30.7988 52.7287 30.7869 52.8118 30.7632 52.9307C30.7394 53.0495 30.7275 53.1326 30.7275 53.1802C30.7275 54.0356 30.6681 54.701 30.5493 55.1763V56.2456C30.5968 56.103 30.6681 55.5327 30.7632 54.5347L30.9414 53.1089C30.9414 53.0614 30.9533 52.9901 30.9771 52.895C31.0008 52.8 31.0127 52.7287 31.0127 52.6812V52.4673L30.9414 51.6475ZM10.8379 55.604L10.1963 57.0654C10.0062 57.4932 9.47152 58.0041 8.59229 58.5981C7.71305 59.216 6.86947 59.7269 6.06152 60.1309L4.88525 60.7012C4.88525 60.7012 4.81396 60.7843 4.67139 60.9507C4.69515 61.0695 5.39616 60.7725 6.77441 60.0596C7.46354 59.7507 8.08138 59.3823 8.62793 58.9546C9.17448 58.5269 9.57845 58.1229 9.83984 57.7427C10.125 57.3862 10.3626 57.0298 10.5527 56.6733C10.7666 56.3407 10.8735 56.0793 10.8735 55.8892C10.8735 55.7228 10.8617 55.6278 10.8379 55.604ZM64.5898 6.55713V6.48584C65.2314 6.48584 65.7899 6.72347 66.2651 7.19873C66.7404 7.67399 66.8949 8.1849 66.7285 8.73145C66.3245 9.56315 65.5879 11.2028 64.5186 13.6504C63.473 16.098 62.6532 17.8446 62.0591 18.8901L61.667 19.8525L61.2393 20.708C61.1917 20.8031 61.1323 20.9813 61.061 21.2427C60.9897 21.4803 60.9303 21.6466 60.8828 21.7417L60.4551 22.5972C60.4076 22.6922 60.3244 22.8586 60.2056 23.0962C60.1105 23.3101 60.0392 23.4645 59.9917 23.5596C59.9442 23.6546 59.8729 23.821 59.7778 24.0586C59.6828 24.2725 59.6115 24.4269 59.564 24.522C59.5164 24.617 59.457 24.7715 59.3857 24.9854C59.3145 25.1992 59.255 25.3537 59.2075 25.4487C58.8748 26.2091 58.6966 26.6963 58.6729 26.9102C58.6253 27.0527 58.554 27.2904 58.459 27.623C58.3639 27.932 58.2926 28.1577 58.2451 28.3003C58.055 28.6567 57.9362 28.9538 57.8887 29.1914C57.8649 29.2627 57.8055 29.4053 57.7104 29.6191C57.6154 29.833 57.556 29.9756 57.5322 30.0469C57.5322 30.0706 57.5203 30.1063 57.4966 30.1538C57.4728 30.2013 57.4609 30.237 57.4609 30.2607C57.4372 30.332 57.3659 30.4627 57.2471 30.6528C57.152 30.8192 57.0926 30.938 57.0688 31.0093C57.0451 31.0806 56.9976 31.1875 56.9263 31.3301C56.855 31.4727 56.8075 31.5796 56.7837 31.6509C56.9025 31.6034 57.1045 31.5321 57.3896 31.437C57.6986 31.342 57.9124 31.2707 58.0312 31.2231C58.1738 31.1756 58.3877 31.1043 58.6729 31.0093C58.9818 30.9142 59.2075 30.8429 59.3501 30.7954C59.4927 30.7479 59.6947 30.6647 59.9561 30.5459C60.2412 30.4033 60.4551 30.3083 60.5977 30.2607C60.7402 30.2132 60.9541 30.1419 61.2393 30.0469C61.5482 29.9518 61.7739 29.8805 61.9165 29.833C62.0591 29.7855 62.2611 29.7261 62.5225 29.6548C62.7839 29.5835 62.9858 29.5241 63.1284 29.4766C63.271 29.429 63.4849 29.3577 63.77 29.2627C64.0789 29.1676 64.3047 29.0964 64.4473 29.0488C64.5898 29.0013 64.8037 28.93 65.0889 28.835C65.3978 28.7161 65.6235 28.633 65.7661 28.5854C65.9087 28.5379 66.1226 28.4666 66.4077 28.3716C66.7166 28.2765 66.9424 28.2052 67.085 28.1577C67.2988 28.0864 67.4889 28.027 67.6553 27.9795C67.8454 27.932 68.0474 27.8726 68.2612 27.8013C68.38 27.7537 68.5701 27.6825 68.8315 27.5874C69.0929 27.4686 69.283 27.3854 69.4019 27.3379C69.5682 27.3141 69.8415 27.2666 70.2217 27.1953C70.6019 27.124 70.8752 27.0765 71.0415 27.0527C71.0653 27.0527 71.1247 27.0409 71.2197 27.0171C71.3148 26.9933 71.3742 26.9814 71.3979 26.9814C72.3247 26.7676 72.9782 26.6012 73.3584 26.4824C73.501 26.4349 73.7267 26.3636 74.0356 26.2686C74.3683 26.1735 74.606 26.1022 74.7485 26.0547C74.8911 26.0072 75.0931 25.9359 75.3545 25.8408C75.6396 25.722 75.8535 25.6388 75.9961 25.5913C76.1387 25.5438 76.3525 25.4844 76.6377 25.4131C76.9466 25.3418 77.1724 25.2824 77.3149 25.2349C77.4575 25.1873 77.6595 25.1279 77.9209 25.0566C78.1823 24.9854 78.3843 24.9259 78.5269 24.8784C78.6694 24.8309 78.8833 24.7596 79.1685 24.6646C79.4774 24.5695 79.7031 24.4982 79.8457 24.4507C79.9883 24.4032 80.2021 24.3319 80.4873 24.2368C80.7962 24.118 81.022 24.0348 81.1646 23.9873L82.4121 23.6309C82.5547 23.5833 82.7804 23.5239 83.0894 23.4526C83.422 23.3813 83.6597 23.3219 83.8022 23.2744C83.9211 23.2507 84.4795 23.0487 85.4775 22.6685H85.5488L86.5825 22.4546C86.7489 22.4071 86.9984 22.3358 87.3311 22.2407C87.6875 22.1457 87.9489 22.0744 88.1152 22.0269C88.8519 21.8605 89.3747 21.8486 89.6836 21.9912C90.0163 22.11 90.1945 22.3358 90.2183 22.6685C90.2658 23.0011 90.2301 23.3457 90.1113 23.7021C89.9925 24.0348 89.8737 24.3438 89.7549 24.6289L89.5767 25.021C89.6242 25.021 89.4578 25.2111 89.0776 25.5913C88.7212 25.9478 88.2935 26.328 87.7944 26.7319C87.3192 27.1359 86.9865 27.3735 86.7964 27.4448C86.7013 27.4686 86.6538 27.4092 86.6538 27.2666C86.6776 27.1478 86.7489 26.9102 86.8677 26.5537C87.0815 26.0072 87.1291 25.7339 87.0103 25.7339C82.5903 27.0884 80.3804 27.825 80.3804 27.9438C82.3289 27.4686 84.4914 26.8626 86.8677 26.126C86.7251 26.1735 86.5469 26.2329 86.333 26.3042L85.9766 26.4111C85.929 26.4111 85.8577 26.4349 85.7627 26.4824C85.6676 26.5299 85.5964 26.5537 85.5488 26.5537C85.5251 26.5537 85.5013 26.5656 85.4775 26.5894C85.4538 26.6131 85.43 26.625 85.4062 26.625C85.3587 26.625 85.2756 26.6369 85.1567 26.6606C85.0379 26.6844 84.9548 26.6963 84.9072 26.6963C84.5033 26.8151 83.8379 27.029 82.9111 27.3379L82.8398 27.4448C82.8161 27.4448 82.7804 27.4567 82.7329 27.4805C82.6854 27.5042 82.6497 27.5161 82.626 27.5161C82.4834 27.5636 82.2458 27.6349 81.9131 27.73C81.6042 27.825 81.3784 27.8963 81.2358 27.9438C81.0695 27.9914 80.82 28.0508 80.4873 28.1221C80.1784 28.1934 79.9408 28.2528 79.7744 28.3003C79.6318 28.3003 79.6081 28.2528 79.7031 28.1577C79.8695 27.9914 79.5487 28.027 78.7407 28.2646C78.6932 28.2884 78.6576 28.3003 78.6338 28.3003C77.8971 28.5379 77.4932 28.7161 77.4219 28.835L77.5645 28.8706C77.7308 28.8706 77.9803 28.8231 78.313 28.728L78.812 28.6211C78.7882 28.6211 78.7526 28.633 78.7051 28.6567C78.6338 28.6805 78.2892 28.8112 77.6714 29.0488C77.7427 29.0251 77.7308 29.0251 77.6357 29.0488C77.5645 29.0726 77.4456 29.1201 77.2793 29.1914L76.8872 29.334H76.9229L76.3169 29.5122C76.3407 29.5122 76.3763 29.5003 76.4238 29.4766C76.2337 29.5479 75.9248 29.6429 75.4971 29.7617C75.0693 29.8805 74.7485 29.9756 74.5347 30.0469C74.5109 30.0469 74.4871 30.0588 74.4634 30.0825C74.4396 30.1063 74.4159 30.1182 74.3921 30.1182H74.3208L74.4634 30.0469C74.202 30.1182 73.6198 30.3201 72.7168 30.6528C72.6455 30.6766 72.5267 30.7122 72.3604 30.7598C72.2178 30.8073 72.1108 30.8429 72.0396 30.8667C71.9445 30.8905 71.8019 30.9499 71.6118 31.0449C71.4217 31.14 71.2791 31.1994 71.1841 31.2231C71.089 31.2707 71.0059 31.2944 70.9346 31.2944C70.6969 31.3657 70.3286 31.4845 69.8296 31.6509C69.3543 31.7935 68.9979 31.9004 68.7603 31.9717L68.689 32.043C67.8335 32.2093 67.4414 32.2212 67.5127 32.0786C67.5602 31.9836 67.9523 31.8172 68.689 31.5796L69.687 31.2231H69.6514C69.2474 31.2231 67.5365 31.734 64.5186 32.7559L60.4551 34.0747C60.9303 33.8846 61.263 33.6945 61.4531 33.5044C61.667 33.3618 61.7858 33.3024 61.8096 33.3262C61.8096 33.3499 61.9521 33.3262 62.2373 33.2549C62.5225 33.1836 62.9502 33.0648 63.5205 32.8984C63.6631 32.8509 63.8532 32.7915 64.0908 32.7202L64.6611 32.5063C64.6136 32.5063 64.4354 32.542 64.1265 32.6133C63.9839 32.637 63.877 32.6608 63.8057 32.6846C63.6631 32.7083 63.4492 32.7677 63.1641 32.8628C62.9027 32.9578 62.7007 33.0173 62.5581 33.041C62.7007 32.9935 62.9146 32.9222 63.1997 32.8271C63.5086 32.7321 63.7344 32.6608 63.877 32.6133C64.8275 32.3281 65.3621 32.1855 65.481 32.1855C65.6473 32.2331 65.9325 32.1261 66.3364 31.8647C67.0256 31.4845 67.4533 31.3182 67.6196 31.3657C67.6434 31.3657 67.6315 31.3895 67.584 31.437C67.5365 31.4608 67.8216 31.3776 68.4395 31.1875C69.0573 30.9974 69.7464 30.7835 70.5068 30.5459C71.291 30.2845 71.8494 30.0944 72.1821 29.9756C72.2772 29.9281 72.3485 29.9043 72.396 29.9043C73.2277 29.5954 74.903 29.0726 77.4219 28.3359C79.9408 27.5993 81.4141 27.1953 81.8418 27.124C82.4121 27.0527 82.6973 26.9577 82.6973 26.8389C82.6973 26.7676 84.3844 26.2091 87.7588 25.1636L88.6499 24.8428C88.4123 24.7477 87.2835 25.021 85.2637 25.6626C84.3369 25.9478 83.5052 26.2448 82.7686 26.5537C82.1982 26.7201 81.5804 26.9102 80.915 27.124C80.2497 27.3141 79.6675 27.4924 79.1685 27.6587C78.6694 27.8013 78.1466 27.9557 77.6001 28.1221C77.0773 28.2884 76.6139 28.431 76.21 28.5498C75.8298 28.6686 75.4495 28.7874 75.0693 28.9062C74.6891 29.0013 74.3683 29.0964 74.1069 29.1914C73.8693 29.2627 73.6554 29.3221 73.4653 29.3696C73.2752 29.4172 73.1445 29.4528 73.0732 29.4766C73.002 29.5003 72.9782 29.5003 73.002 29.4766H72.9663C72.7287 29.5716 72.491 29.6429 72.2534 29.6904C72.1346 29.738 71.8851 29.8211 71.5049 29.9399C71.1247 30.035 70.8158 30.1182 70.5781 30.1895C68.487 30.9261 67.2988 31.2944 67.0137 31.2944C66.6097 31.2944 65.98 31.437 65.1245 31.7222C64.5304 31.8885 64.2334 31.9954 64.2334 32.043C64.2334 32.0667 64.3522 32.0667 64.5898 32.043C64.8512 32.0192 64.8869 32.043 64.6968 32.1143C64.5304 32.1855 64.0195 32.3638 63.1641 32.6489H63.1284L63.0928 32.6846H63.0571C61.5363 33.2074 60.7402 33.3975 60.6689 33.2549C60.6452 33.2074 60.5739 33.1955 60.4551 33.2192C60.36 33.2192 60.3006 33.2549 60.2769 33.3262C60.2293 33.4212 60.0273 33.5638 59.6709 33.7539C59.3145 33.944 58.9105 34.0985 58.459 34.2173C57.3896 34.5975 56.8075 34.7401 56.7124 34.645C56.6411 34.5737 56.5223 34.6213 56.356 34.7876C56.3084 34.8351 55.9401 35.0133 55.251 35.3223C55.0609 35.75 54.7995 36.3441 54.4668 37.1045C54.1341 37.8649 53.8846 38.4352 53.7183 38.8154C53.5044 39.362 53.2549 39.9323 52.9697 40.5264C52.6846 41.1204 52.4945 41.5482 52.3994 41.8096H52.4707C52.2093 41.7145 52.0667 41.6551 52.043 41.6313L52.6133 41.8809C52.9935 42.0234 53.1955 42.1066 53.2192 42.1304L52.7915 41.9521L53.0767 42.0947C53.1004 42.0947 53.1479 42.1066 53.2192 42.1304C53.2905 42.1541 53.3381 42.166 53.3618 42.166C53.3856 42.166 53.4093 42.1779 53.4331 42.2017C53.4569 42.2254 53.4806 42.2373 53.5044 42.2373C53.5994 42.3324 53.6707 42.3799 53.7183 42.3799C62.2492 46.5146 69.5563 49.687 75.6396 51.897C75.7109 51.9207 75.7585 51.9326 75.7822 51.9326C75.806 51.9326 75.8535 51.9445 75.9248 51.9683C76.21 52.1108 76.3763 52.1821 76.4238 52.1821H76.4951C76.6377 52.2297 76.7327 52.2534 76.7803 52.2534C76.804 52.2534 76.8634 52.2772 76.9585 52.3247C77.0773 52.3722 77.1486 52.396 77.1724 52.396C77.1961 52.396 77.2318 52.4079 77.2793 52.4316C77.3268 52.4554 77.3625 52.4673 77.3862 52.4673C77.41 52.4673 77.4575 52.4792 77.5288 52.5029C77.6001 52.5267 77.6476 52.5386 77.6714 52.5386C77.8615 52.6336 77.9803 52.6812 78.0278 52.6812C78.0516 52.6812 78.0991 52.693 78.1704 52.7168C78.2417 52.7406 78.2892 52.7524 78.313 52.7524C78.3368 52.7524 78.3724 52.7762 78.4199 52.8237C78.4674 52.8713 78.5031 52.895 78.5269 52.895H78.8477L78.9189 52.9663C79.014 53.0614 79.1803 53.1326 79.418 53.1802H79.4893C79.513 53.1802 79.5605 53.2158 79.6318 53.2871C79.7031 53.3346 79.7507 53.3584 79.7744 53.3584C79.917 53.4059 80.0715 53.4297 80.2378 53.4297H80.3804C80.4041 53.4297 80.4398 53.4416 80.4873 53.4653C80.5348 53.4891 80.5705 53.501 80.5942 53.501H80.3804C80.4041 53.501 80.4398 53.5129 80.4873 53.5366C80.5348 53.5604 80.5705 53.5723 80.5942 53.5723C80.618 53.5723 80.6655 53.596 80.7368 53.6436C80.8081 53.6911 80.8556 53.7148 80.8794 53.7148L81.1646 53.8574C81.3071 53.9049 81.4259 53.9287 81.521 53.9287C81.5448 53.9287 81.5685 53.9406 81.5923 53.9644C81.6398 53.9881 81.6755 54 81.6992 54H81.7705C81.8656 54.0475 82.0319 54.0713 82.2695 54.0713C82.3646 54.1188 82.5903 54.2139 82.9468 54.3564C83.3032 54.499 83.5884 54.6178 83.8022 54.7129C84.0636 54.8317 84.3607 54.9624 84.6934 55.105C85.0498 55.2476 85.3112 55.3545 85.4775 55.4258C85.6439 55.4971 85.7389 55.5327 85.7627 55.5327C85.7865 55.5327 85.8221 55.5446 85.8696 55.5684C85.9172 55.5921 85.9528 55.604 85.9766 55.604C85.9528 55.604 85.9172 55.6159 85.8696 55.6396C85.8221 55.6634 85.7865 55.6753 85.7627 55.6753C85.6201 55.6753 85.6795 55.7466 85.9409 55.8892C86.2023 56.008 86.5825 56.1624 87.0815 56.3525C87.2479 56.4001 87.3786 56.4357 87.4736 56.4595C87.5687 56.507 87.64 56.5308 87.6875 56.5308C87.7588 56.5308 87.7944 56.5189 87.7944 56.4951C87.8182 56.4951 87.8301 56.4714 87.8301 56.4238C87.8301 56.2812 87.8776 56.2575 87.9727 56.3525V56.4951C88.0202 56.5902 88.0915 56.6615 88.1865 56.709C88.3766 56.804 88.4717 56.7803 88.4717 56.6377C88.4717 56.5902 88.5192 56.5664 88.6143 56.5664H88.6855C88.7331 56.5664 88.745 56.5783 88.7212 56.6021C88.6974 56.6258 88.6618 56.6377 88.6143 56.6377L88.4717 56.7803C88.4717 56.804 88.6024 56.8516 88.8638 56.9229C89.1252 57.0179 89.2915 57.0654 89.3628 57.0654C90.0994 58.111 90.5034 58.5269 90.5747 58.313C90.5034 58.4793 90.4202 58.5863 90.3252 58.6338C90.2539 58.6813 89.9925 58.6694 89.541 58.5981C89.0895 58.5269 88.436 58.3368 87.5806 58.0278C87.5806 58.1704 87.8063 58.2892 88.2578 58.3843L88.8281 58.5981H88.543H88.4004C88.4004 58.6219 88.4479 58.6576 88.543 58.7051C88.638 58.7526 88.7568 58.7882 88.8994 58.812C89.042 58.8595 89.1727 58.8833 89.2915 58.8833C89.3866 58.9784 89.3509 59.0496 89.1846 59.0972H88.9707L88.6143 59.0259C88.7093 59.0734 88.8281 59.1209 88.9707 59.1685L89.5054 59.2397C89.6004 59.1922 89.6955 59.1922 89.7905 59.2397C89.9331 59.311 90.0044 59.311 90.0044 59.2397C90.0519 59.1209 90.1589 59.0615 90.3252 59.0615C90.3727 59.0615 90.3608 59.0972 90.2896 59.1685C90.242 59.1685 90.2183 59.2516 90.2183 59.418C90.2183 59.5843 90.4202 59.7031 90.8242 59.7744C91.1331 59.8932 91.2995 59.9764 91.3232 60.0239C91.347 60.0952 91.145 60.0833 90.7173 59.9883C90.1945 59.8457 89.7074 59.6912 89.2559 59.5249C88.8281 59.3823 88.4836 59.2635 88.2222 59.1685C87.9608 59.0734 87.735 58.9784 87.5449 58.8833C87.3786 58.812 87.2598 58.7526 87.1885 58.7051C87.141 58.6813 87.1291 58.6694 87.1528 58.6694C87.2479 58.6694 87.236 58.6457 87.1172 58.5981C87.0697 58.5981 86.9865 58.5744 86.8677 58.5269L86.2261 58.3843C85.4894 58.1704 84.7052 57.9209 83.8735 57.6357C83.327 57.4456 82.828 57.2674 82.3765 57.1011C81.9487 56.9347 81.4497 56.7565 80.8794 56.5664C80.5467 56.4714 80.2378 56.3882 79.9526 56.3169C79.6912 56.2456 79.4655 56.1862 79.2754 56.1387C79.0853 56.1149 78.9665 56.103 78.9189 56.103C75.9486 55.1287 66.6929 51.3623 51.1519 44.8037C50.3677 47.0612 49.7855 48.784 49.4053 49.9722C49.4053 49.9959 49.3934 50.0197 49.3696 50.0435C49.3459 50.0672 49.334 50.091 49.334 50.1147C49.2389 50.3049 49.0726 50.8752 48.835 51.8257C48.7874 51.9207 48.7637 51.992 48.7637 52.0396C48.7399 52.0871 48.7161 52.1465 48.6924 52.2178C48.6686 52.2891 48.6449 52.3485 48.6211 52.396C48.5973 52.491 48.5498 52.6574 48.4785 52.895C48.4072 53.1089 48.3597 53.2633 48.3359 53.3584C48.3122 53.4297 48.2646 53.5604 48.1934 53.7505C48.1458 53.9406 48.1102 54.0713 48.0864 54.1426C48.0864 54.1663 48.0745 54.1901 48.0508 54.2139C48.027 54.2376 48.0151 54.2614 48.0151 54.2852C47.9914 54.3802 47.9557 54.5347 47.9082 54.7485C47.8607 54.9862 47.825 55.1525 47.8013 55.2476C47.7775 55.3426 47.7419 55.4971 47.6943 55.7109C47.6468 55.9248 47.6112 56.0793 47.5874 56.1743C47.5636 56.2694 47.528 56.4238 47.4805 56.6377C47.4329 56.8753 47.3973 57.0417 47.3735 57.1367C47.2785 57.5169 47.231 57.8377 47.231 58.0991V58.3843C47.231 58.4556 47.2191 58.5506 47.1953 58.6694C47.1715 58.7882 47.1597 58.8833 47.1597 58.9546C46.8983 61.3784 46.922 62.6022 47.231 62.626C47.326 62.626 47.6349 62.3646 48.1577 61.8418C48.4666 61.5329 48.7399 61.3071 48.9775 61.1646C49.0726 61.117 49.1201 61.1289 49.1201 61.2002C49.1201 61.2715 49.0845 61.4141 49.0132 61.6279C48.8468 62.1032 48.8112 62.3883 48.9062 62.4834C49.2865 62.5785 49.5003 62.626 49.5479 62.626C49.2389 63.529 48.7161 64.3607 47.9795 65.1211C47.2666 65.8815 46.6012 66.1904 45.9834 66.0479C44.9616 65.8577 44.2487 65.5251 43.8447 65.0498C43.4408 64.5983 43.1794 63.9567 43.0605 63.125C43.0605 63.0537 43.0487 62.9587 43.0249 62.8398C43.0011 62.721 42.9893 62.626 42.9893 62.5547C42.7279 61.2952 42.7279 59.9526 42.9893 58.5269C42.9893 58.4793 43.0011 58.408 43.0249 58.313C43.0487 58.2179 43.0605 58.1466 43.0605 58.0991C43.1081 57.5763 43.2744 56.6496 43.5596 55.3188C43.6071 55.1287 43.6903 54.8198 43.8091 54.3921C43.9517 53.9881 44.0467 53.6911 44.0942 53.501C44.0942 53.4535 44.1061 53.3703 44.1299 53.2515C44.1536 53.1089 44.1655 53.0138 44.1655 52.9663C44.2131 52.9188 44.2606 52.895 44.3081 52.895C44.4744 52.8 44.5339 52.8594 44.4863 53.0732C44.4863 53.1921 44.4507 53.3584 44.3794 53.5723C44.3556 53.6911 44.3081 53.8574 44.2368 54.0713C44.1655 54.2852 44.118 54.4515 44.0942 54.5703C43.6903 56.0436 43.4645 56.8991 43.417 57.1367L43.3101 57.6357C43.3338 57.6357 43.3695 57.5882 43.417 57.4932C43.4408 57.4456 43.4883 57.2437 43.5596 56.8872C43.6546 56.5545 43.7853 56.0674 43.9517 55.4258C44.118 54.7842 44.2843 54.1663 44.4507 53.5723C44.5933 53.1445 44.7358 52.6812 44.8784 52.1821C45.1873 51.2554 45.3893 50.6257 45.4844 50.293C45.6982 49.5801 45.9596 48.7721 46.2686 47.8691C46.126 48.1543 46.0547 48.1305 46.0547 47.7979L46.019 47.5483C45.9715 47.5959 45.9359 47.7503 45.9121 48.0117C45.6507 49.3187 45.2586 50.4831 44.7358 51.5049C44.6883 51.5999 44.617 51.7425 44.522 51.9326C44.4507 52.099 44.4032 52.2059 44.3794 52.2534C44.3794 52.1821 44.3913 52.0752 44.415 51.9326C44.4388 51.7663 44.4507 51.6475 44.4507 51.5762C44.4507 51.5524 44.4626 51.5168 44.4863 51.4692C44.5101 51.4217 44.522 51.3861 44.522 51.3623C44.5933 51.2197 44.6646 51.0059 44.7358 50.7207C44.7596 50.6494 44.7834 50.5425 44.8071 50.3999C44.8309 50.2336 44.8547 50.1147 44.8784 50.0435C44.9022 49.9009 44.9735 49.7108 45.0923 49.4731C45.2349 49.2118 45.318 49.0454 45.3418 48.9741C45.4844 48.5226 45.9715 47.1325 46.8032 44.8037C46.8745 44.6136 46.9696 44.376 47.0884 44.0908C47.2072 43.7819 47.3022 43.5324 47.3735 43.3423C46.6606 42.9621 46.0309 42.6888 45.4844 42.5225C44.9616 42.3561 44.6408 42.2373 44.522 42.166C43.6903 41.7145 43.1556 41.0254 42.918 40.0986C42.7041 39.1481 43.0011 38.3045 43.8091 37.5679C44.1893 37.259 44.7477 36.8669 45.4844 36.3916C46.5775 35.7025 48.229 34.9539 50.439 34.146C50.5815 34.0985 50.7835 34.0153 51.0449 33.8965C51.3301 33.7777 51.5439 33.6945 51.6865 33.647C51.734 33.6232 51.8053 33.5876 51.9004 33.54C51.9954 33.4688 52.0667 33.4212 52.1143 33.3975C52.2093 33.1598 52.3994 32.7083 52.6846 32.043C52.8509 31.6152 53.0648 31.0924 53.3262 30.4746C53.6113 29.833 53.7896 29.429 53.8608 29.2627C54.0509 28.7637 54.146 28.4191 54.146 28.229C54.146 28.1577 54.1104 28.1934 54.0391 28.3359L53.7183 28.9775C53.7183 29.0013 53.7064 29.0369 53.6826 29.0845C53.6589 29.132 53.647 29.1676 53.647 29.1914C53.4569 29.5954 53.3381 29.7974 53.2905 29.7974C53.243 29.7974 53.2668 29.5716 53.3618 29.1201V28.9775V28.8706C53.4331 28.7043 53.5519 28.4548 53.7183 28.1221C53.8846 27.7656 54.0034 27.5042 54.0747 27.3379C54.0747 27.2428 54.0985 27.1715 54.146 27.124C54.1698 27.0527 54.2292 26.9577 54.3242 26.8389C54.443 26.7201 54.5143 26.625 54.5381 26.5537C54.7044 26.2448 54.9421 25.6626 55.251 24.8071V24.8784L55.3223 24.7358C55.3936 24.5933 55.4886 24.3675 55.6074 24.0586C55.75 23.7259 55.8569 23.4883 55.9282 23.3457L55.9639 23.3101L56.1421 22.9893C56.1896 22.8942 56.2253 22.811 56.249 22.7397C56.2728 22.6447 56.3084 22.5496 56.356 22.4546C56.5223 22.217 56.6411 21.9793 56.7124 21.7417C56.7362 21.7179 56.7599 21.6823 56.7837 21.6348C56.7362 21.7298 56.6886 21.8368 56.6411 21.9556C56.4748 22.3833 56.4272 22.609 56.4985 22.6328C56.5461 22.6803 56.6292 22.5972 56.748 22.3833C56.8669 22.217 56.9738 22.0031 57.0688 21.7417C57.259 21.1951 57.3065 20.9219 57.2114 20.9219H56.9976C57.0451 20.8031 57.1283 20.6248 57.2471 20.3872C57.3896 20.1496 57.4847 19.9714 57.5322 19.8525C58.0075 18.6644 58.3402 17.8802 58.5303 17.5C59.0055 16.2168 59.4808 15.0286 59.9561 13.9355C60.4551 12.8187 61.0729 11.4998 61.8096 9.979C62.57 8.45817 62.9858 7.62646 63.0571 7.48389C63.2948 6.86605 63.8057 6.55713 64.5898 6.55713ZM60.5264 18.7476C60.4076 18.7476 59.861 19.8882 58.8867 22.1694C57.9124 24.4269 56.9619 26.6963 56.0352 28.9775L54.6807 32.3994C54.8708 32.3519 54.9896 32.2806 55.0371 32.1855C55.0846 31.9479 55.5718 30.7004 56.4985 28.4429C57.4491 26.1616 58.3758 23.9635 59.2788 21.8486C60.1818 19.7337 60.6214 18.7238 60.5977 18.8188L60.5264 18.7476ZM87.7588 22.0269C87.7113 22.0269 87.6162 22.0387 87.4736 22.0625C87.3548 22.0863 87.2716 22.0981 87.2241 22.0981C87.2954 22.0981 87.3905 22.0863 87.5093 22.0625C87.6281 22.0387 87.7113 22.0269 87.7588 22.0269ZM85.4775 22.6685L84.5151 22.8467C84.5864 22.8467 84.6815 22.8348 84.8003 22.811C84.9429 22.7635 85.0498 22.7397 85.1211 22.7397C85.1449 22.7397 85.2043 22.7279 85.2993 22.7041C85.3944 22.6803 85.4538 22.6685 85.4775 22.6685ZM56.1421 23.4883C55.9757 23.4883 55.6549 24.0705 55.1797 25.2349C54.6569 26.5894 54.3955 27.3498 54.3955 27.5161C54.3955 27.5636 54.443 27.5161 54.5381 27.3735L55.1797 25.9834L55.251 25.7339C55.3698 25.4487 55.5005 25.116 55.6431 24.7358C55.8094 24.3556 55.9282 24.0705 55.9995 23.8804C56.0946 23.6665 56.1421 23.5358 56.1421 23.4883ZM56.2134 24.0586C56.2134 24.0824 56.1896 24.1418 56.1421 24.2368C56.0946 24.3081 56.0708 24.3556 56.0708 24.3794L55.8569 24.9497C55.9757 24.5933 56.0946 24.2962 56.2134 24.0586ZM55.9995 25.7339V25.8052L55.6074 26.0547C55.5837 26.1022 55.548 26.1497 55.5005 26.1973C55.4767 26.2448 55.453 26.2923 55.4292 26.3398C55.4054 26.3636 55.3936 26.3874 55.3936 26.4111C54.9896 27.1003 54.5737 28.0745 54.146 29.334L54.0034 29.7617C54.0747 29.7142 54.1104 29.7142 54.1104 29.7617C54.0866 29.9281 53.8846 30.2489 53.5044 30.7241C53.2905 31.0093 53.2192 31.2231 53.2905 31.3657C53.2905 31.6034 53.1717 31.9954 52.9341 32.542C52.9103 32.6133 52.839 32.7202 52.7202 32.8628C52.6252 33.0054 52.5658 33.1123 52.542 33.1836C52.5658 33.1836 52.6014 33.1717 52.6489 33.1479C52.7202 33.1242 52.7677 33.1123 52.7915 33.1123L52.8628 33.041C53.1955 32.2093 53.3856 31.7935 53.4331 31.7935C53.4569 31.7697 53.4569 31.8291 53.4331 31.9717V32.2212C53.4569 32.1737 53.5519 31.9598 53.7183 31.5796C54.0034 30.9142 54.146 30.4508 54.146 30.1895C54.146 30.1419 54.1579 30.0825 54.1816 30.0112C54.2292 29.9399 54.2767 29.8449 54.3242 29.7261C54.3955 29.6073 54.443 29.5003 54.4668 29.4053C54.7282 28.6211 54.9658 28.0151 55.1797 27.5874L55.9995 25.7339ZM68.689 27.5161C68.6414 27.5161 68.5583 27.528 68.4395 27.5518C68.3206 27.5755 68.2375 27.5874 68.1899 27.5874H68.4751C68.4989 27.5874 68.5345 27.5755 68.582 27.5518C68.6296 27.528 68.6652 27.5161 68.689 27.5161ZM76.0674 28.9775C75.806 29.0726 75.4614 29.1914 75.0337 29.334C74.7485 29.4053 74.499 29.4766 74.2852 29.5479C74.3564 29.5241 74.4159 29.5003 74.4634 29.4766C74.5109 29.4528 74.606 29.4053 74.7485 29.334C74.9149 29.2627 75.0575 29.2152 75.1763 29.1914C75.2476 29.1676 75.3307 29.1439 75.4258 29.1201C75.5446 29.0726 75.6396 29.0369 75.7109 29.0132C75.806 28.9894 75.8773 28.9775 75.9248 28.9775H76.0674ZM76.21 29.2627L73.1445 30.1182L72.8594 30.1895C72.8356 30.1895 72.7881 30.2013 72.7168 30.2251C72.6455 30.2489 72.598 30.2607 72.5742 30.2607C71.2435 30.6885 70.6257 30.938 70.7207 31.0093C70.792 31.0093 71.4336 30.8429 72.6455 30.5103C72.8594 30.4627 73.2396 30.332 73.7861 30.1182C75.3545 29.6667 76.1624 29.3815 76.21 29.2627ZM58.1738 28.8706L58.1025 28.9775V29.1914V28.8706H58.1738ZM66.3364 30.4033C60.6333 32.3281 57.0807 33.5994 55.6787 34.2173L55.6074 34.3599C56.4867 33.9797 58.1619 33.3737 60.6333 32.542C63.1284 31.6865 65.0295 30.9736 66.3364 30.4033ZM53.0767 30.4033C53.0291 30.5697 52.9341 30.8429 52.7915 31.2231L52.542 31.6509C52.1618 32.6252 51.9836 33.0054 52.0073 32.7915C52.0073 32.744 52.0192 32.6608 52.043 32.542C52.2568 31.8291 52.3757 31.437 52.3994 31.3657C52.4707 31.2231 52.6489 30.9618 52.9341 30.5815L53.0767 30.4033ZM66.7998 32.3281C66.776 32.3281 66.7166 32.34 66.6216 32.3638C66.5503 32.3875 66.4077 32.4351 66.1938 32.5063C66.0037 32.5776 65.8136 32.637 65.6235 32.6846C65.576 32.7083 65.481 32.7321 65.3384 32.7559C65.1958 32.7796 65.1007 32.8034 65.0532 32.8271H65.0176L64.9819 32.8628L63.5562 33.3975C63.6037 33.3737 63.7106 33.3499 63.877 33.3262L65.481 32.9697C66.0275 32.7559 66.3958 32.5895 66.5859 32.4707L66.7998 32.3281ZM52.9341 31.9717C52.9341 32.0667 52.8866 32.2568 52.7915 32.542C52.7677 32.6133 52.7202 32.7321 52.6489 32.8984C52.6014 33.0648 52.5658 33.1836 52.542 33.2549C52.5182 33.2549 52.4707 33.2668 52.3994 33.2905C52.3281 33.3143 52.2806 33.3262 52.2568 33.3262L52.542 32.7559L52.9341 31.9717ZM62.4868 32.4707H62.5581C62.5581 32.5895 62.4155 32.6846 62.1304 32.7559C61.9165 32.8034 61.7858 32.839 61.7383 32.8628C61.7145 32.8628 61.667 32.8509 61.5957 32.8271C61.5957 32.7083 61.7502 32.6133 62.0591 32.542C62.1541 32.4945 62.2967 32.4707 62.4868 32.4707ZM58.0312 33.8608C57.651 33.9084 57.1639 34.0628 56.5698 34.3242C55.9995 34.5856 55.6312 34.7401 55.4648 34.7876C55.4648 34.8114 55.453 34.8351 55.4292 34.8589C55.4054 34.8826 55.3936 34.9064 55.3936 34.9302C55.4411 34.9064 55.548 34.8708 55.7144 34.8232C55.9045 34.7757 56.0233 34.7401 56.0708 34.7163C57.3778 34.241 58.0312 33.9559 58.0312 33.8608ZM50.2964 35.0371C50.13 34.9896 49.2152 35.3936 47.5518 36.249C45.8883 37.1045 45.1042 37.6867 45.1992 37.9956C45.5081 37.6154 46.7438 36.8669 48.9062 35.75L50.2251 35.1797L50.2964 35.0371ZM53.2192 36.1064L52.7915 36.3203C51.6984 38.6253 51.1281 39.8491 51.0806 39.9917C50.9855 40.3006 50.9499 40.467 50.9736 40.4907C50.9974 40.5145 51.033 40.5382 51.0806 40.562C51.1756 40.5858 51.4014 40.2293 51.7578 39.4927C52.1143 38.7323 52.4469 37.9837 52.7559 37.2471L53.2192 36.1064ZM49.7974 36.1777L49.2627 36.3916C49.5716 36.249 49.7498 36.1777 49.7974 36.1777ZM48.5498 36.7837C48.5498 36.7599 48.3241 36.7837 47.8726 36.855C47.5636 37.0688 47.2666 37.2471 46.9814 37.3896C46.7201 37.5322 46.5537 37.6273 46.4824 37.6748C46.4111 37.7223 46.328 37.7936 46.2329 37.8887C46.1379 37.9837 46.0072 38.1501 45.8408 38.3877C45.9121 38.3877 46.0309 38.3164 46.1973 38.1738C46.3636 38.0312 46.5656 37.8649 46.8032 37.6748C47.0646 37.4609 47.326 37.3065 47.5874 37.2114L48.5498 36.7837ZM48.835 37.4966C48.6211 37.4966 48.0151 37.8174 47.0171 38.459C46.6606 38.6729 46.5656 38.7679 46.7319 38.7441C46.7557 38.7204 46.7913 38.6966 46.8389 38.6729C46.8864 38.6491 46.9696 38.6134 47.0884 38.5659C47.2072 38.4946 47.326 38.4233 47.4448 38.3521C47.5636 38.2808 47.6943 38.2095 47.8369 38.1382C47.9795 38.0431 48.1102 37.96 48.229 37.8887C48.3478 37.8174 48.4548 37.758 48.5498 37.7104C48.6686 37.6392 48.7518 37.5916 48.7993 37.5679C48.8468 37.5203 48.8587 37.4966 48.835 37.4966ZM53.3618 42.0947L53.4331 42.166L53.3618 42.0947ZM47.6587 43.4136C47.6112 43.5562 47.4329 43.9601 47.124 44.6255C46.8151 45.2909 46.625 45.7899 46.5537 46.1226V46.4077C46.6488 46.3364 46.8507 45.873 47.1597 45.0176L47.4448 44.1978C47.4448 44.2215 47.4448 44.269 47.4448 44.3403C47.4448 44.4354 47.4448 44.4829 47.4448 44.4829C47.4448 44.5067 47.4686 44.471 47.5161 44.376L47.3379 45.1602L48.0151 43.5562C47.9914 43.5562 47.932 43.5324 47.8369 43.4849C47.7419 43.4373 47.6825 43.4136 47.6587 43.4136ZM48.3359 43.5562V43.6274C47.5518 45.5998 47.1359 46.6453 47.0884 46.7642C46.019 49.687 45.2586 51.9801 44.8071 53.6436C44.3319 55.4733 44.0229 56.9823 43.8804 58.1704C43.8804 58.1942 43.8685 58.2298 43.8447 58.2773C43.821 58.3249 43.8091 58.3605 43.8091 58.3843V58.5269C43.8328 58.4793 43.8804 58.4199 43.9517 58.3486C44.0229 58.2773 44.0705 58.2179 44.0942 58.1704C44.2131 57.1486 44.5457 55.6396 45.0923 53.6436C45.5913 51.8138 46.2329 49.8177 47.0171 47.6553C47.231 47.085 47.5161 46.384 47.8726 45.5522C48.2528 44.6968 48.5023 44.1027 48.6211 43.77L48.3359 43.5562ZM49.334 44.0552C47.3379 49.3306 46.3398 52.1821 46.3398 52.6099C46.3398 53.0376 47.4329 50.2454 49.6191 44.2334L49.334 44.0552ZM77.3149 52.2534H77.1011H76.8516H77.1011H77.3149ZM78.4556 52.6812H78.1704H78.4556ZM78.8477 52.895C78.9427 52.9425 79.014 52.9663 79.0615 52.9663H79.2041H79.3467L78.8477 52.895ZM72.396 52.6812C72.4435 52.6812 72.4673 52.7049 72.4673 52.7524C72.4673 52.9425 72.3722 52.9901 72.1821 52.895C72.1108 52.8237 72.0871 52.7762 72.1108 52.7524L72.396 52.6812ZM81.1646 53.2871H81.022L81.0933 53.3584L81.1646 53.2871ZM70.293 52.895C70.3167 52.895 70.3761 52.9069 70.4712 52.9307C70.5662 52.9544 70.6257 52.9663 70.6494 52.9663L70.7207 53.0376H70.5068L70.2217 52.895H70.293ZM78.9189 53.3584H78.9902C79.014 53.3584 79.0378 53.3703 79.0615 53.394C79.0853 53.4178 79.109 53.4297 79.1328 53.4297L79.3467 53.501C79.3942 53.5485 79.3823 53.5723 79.311 53.5723C79.2635 53.5723 79.2041 53.5485 79.1328 53.501L78.9189 53.3584ZM80.2378 53.4297L80.3091 53.501L80.2378 53.4297ZM71.1128 52.9663H71.2554C71.3504 52.9901 71.4098 53.0257 71.4336 53.0732L71.3267 53.1089C71.089 53.0851 70.9583 53.0376 70.9346 52.9663H71.1128ZM76.4951 53.3584C76.5189 53.3584 76.7209 53.4059 77.1011 53.501C77.1724 53.5247 77.2793 53.5723 77.4219 53.6436C77.5882 53.7148 77.7308 53.7743 77.8496 53.8218C77.9684 53.8693 78.0754 53.9049 78.1704 53.9287L78.4912 54.0713H78.4556H78.0991C78.0278 54.1426 77.7427 54.0951 77.2437 53.9287C76.7684 53.7624 76.4951 53.6198 76.4238 53.501C76.4238 53.4059 76.4476 53.3584 76.4951 53.3584ZM82.4121 53.7148H82.3408H82.4121ZM74.1069 53.2871L74.1782 53.501L74 53.5723V53.4297L74.1069 53.2871ZM71.9683 53.1802L72.1108 53.2871L72.1821 53.3584H72.0396C72.0158 53.3109 71.992 53.2515 71.9683 53.1802ZM76.2812 53.501H76.3525C76.4001 53.5485 76.4238 53.596 76.4238 53.6436L76.3525 53.7861C76.305 53.6911 76.2812 53.6198 76.2812 53.5723V53.501ZM81.7705 53.8574L81.521 53.9287H81.6992H81.8418H81.9131L81.7705 53.8574ZM74.6772 53.5723H74.8198C75.0099 53.6673 75.105 53.7386 75.105 53.7861C75.0099 53.7861 74.9149 53.7624 74.8198 53.7148L74.606 53.5723H74.6772ZM73.3584 53.501C73.4059 53.501 73.4772 53.5129 73.5723 53.5366C73.6911 53.5604 73.7624 53.5723 73.7861 53.5723C73.8099 53.5723 73.8455 53.5841 73.8931 53.6079C73.9406 53.6317 73.9762 53.6436 74 53.6436C73.9762 53.6436 73.9406 53.6554 73.8931 53.6792C73.8455 53.703 73.8099 53.7148 73.7861 53.7148C73.7624 53.7148 73.6911 53.703 73.5723 53.6792C73.4535 53.6554 73.3822 53.6436 73.3584 53.6436C73.3346 53.6436 73.299 53.6198 73.2515 53.5723C73.2039 53.5247 73.1683 53.501 73.1445 53.501H73.3584ZM79.2754 53.8574H79.3467V54H79.2041V53.9287L79.2754 53.8574ZM47.0171 45.8374C46.9696 45.98 46.8983 46.1701 46.8032 46.4077L46.5894 46.9067C46.6131 46.883 46.625 46.8592 46.625 46.8354C46.6725 46.7879 46.7557 46.6453 46.8745 46.4077C46.9696 46.2176 47.0171 46.0513 47.0171 45.9087V45.8374ZM82.0557 54H82.127H82.0557ZM82.127 54L82.2695 54.0713L82.1982 54H82.127ZM75.3901 53.7861H75.4614L75.6396 53.8574C75.6634 53.9049 75.604 53.9287 75.4614 53.9287C75.3664 53.9049 75.2951 53.8574 75.2476 53.7861H75.3901ZM79.7031 54H80.2378H80.3091C80.4041 54 80.4517 54.0713 80.4517 54.2139L80.3804 54.3564C80.2853 54.3089 80.214 54.2852 80.1665 54.2852C80.0952 54.2852 80.1071 54.3208 80.2021 54.3921C80.2734 54.4396 80.3566 54.4753 80.4517 54.499C80.6893 54.5703 80.8081 54.5941 80.8081 54.5703H80.9507L81.3071 54.6416H81.4497L81.8418 54.8911C81.8418 54.9624 81.7705 55.0218 81.6279 55.0693C81.4854 55.1406 81.3784 55.1525 81.3071 55.105L81.1646 54.9624H81.3784C81.521 54.9624 81.521 54.9386 81.3784 54.8911L81.3071 54.8198C81.022 54.7248 80.8794 54.7248 80.8794 54.8198C80.8794 54.8674 80.5348 54.7842 79.8457 54.5703C79.2041 54.3564 78.8477 54.2852 78.7764 54.3564C78.7288 54.404 78.6932 54.4159 78.6694 54.3921C78.6694 54.3921 78.6813 54.3564 78.7051 54.2852C78.7764 54.1188 78.9902 54.0951 79.3467 54.2139L79.7031 54.2852H79.8457C79.8457 54.1901 79.7982 54.1426 79.7031 54.1426C79.6556 54.1426 79.6318 54.1188 79.6318 54.0713L79.7031 54ZM81.022 54.0713L81.0933 54.1426L81.1646 54.2139C81.1646 54.2614 81.0933 54.2852 80.9507 54.2852L80.8794 54.1426C80.9269 54.0951 80.9744 54.0713 81.022 54.0713ZM76.3525 53.9287H76.4238L76.4951 54C76.4476 54.0238 76.4001 54.0238 76.3525 54C76.305 54 76.2812 53.9762 76.2812 53.9287H76.3525ZM80.6655 54.1426L80.7368 54.2139H80.5942C80.5942 54.1901 80.5942 54.1663 80.5942 54.1426H80.6655ZM76.8516 54.0713L76.9229 54.1426H76.9941C76.9466 54.1901 76.8991 54.2139 76.8516 54.2139C76.804 54.2139 76.7803 54.1901 76.7803 54.1426C76.7803 54.0951 76.804 54.0713 76.8516 54.0713ZM82.127 54.3564C82.1507 54.3564 82.1982 54.3683 82.2695 54.3921C82.3408 54.4159 82.3883 54.4277 82.4121 54.4277L82.6973 54.6416C82.6735 54.6654 82.5547 54.6416 82.3408 54.5703C82.1507 54.5228 82.0557 54.4753 82.0557 54.4277L82.127 54.3564ZM85.5488 54.5703C85.5013 54.5703 85.4181 54.5822 85.2993 54.606C85.1805 54.6297 85.0973 54.6416 85.0498 54.6416L85.2637 54.7129C85.2874 54.7129 85.335 54.6891 85.4062 54.6416C85.4775 54.5941 85.5251 54.5703 85.5488 54.5703ZM75.2476 54.0713C75.509 54.0713 75.7109 54.0951 75.8535 54.1426C76.1387 54.2376 76.3288 54.2852 76.4238 54.2852H76.4951L76.5664 54.4277C76.5664 54.4753 76.5189 54.499 76.4238 54.499C76.4001 54.499 76.3169 54.4871 76.1743 54.4634C76.0555 54.4396 75.9248 54.4277 75.7822 54.4277C75.7347 54.4277 75.6396 54.4159 75.4971 54.3921C75.3545 54.3683 75.2713 54.3564 75.2476 54.3564C75.105 54.3564 75.0337 54.3089 75.0337 54.2139C74.9386 54.1188 74.9862 54.0713 75.1763 54.0713H75.2476ZM77.814 54.3564L77.9565 54.4277L78.0278 54.499H77.8853C77.814 54.4753 77.7902 54.4277 77.814 54.3564ZM76.709 54.4277C76.9229 54.5228 77.1011 54.5703 77.2437 54.5703C77.3387 54.5941 77.7189 54.7485 78.3843 55.0337C78.6932 55.2476 78.8477 55.2951 78.8477 55.1763C78.8477 55.1287 78.9189 55.105 79.0615 55.105H79.1328C79.2279 55.105 79.2279 55.1525 79.1328 55.2476C79.0378 55.3426 79.0853 55.3901 79.2754 55.3901C79.3704 55.3901 79.4893 55.4614 79.6318 55.604L79.7031 55.6396L79.6675 55.6753C79.5487 55.6515 79.418 55.6278 79.2754 55.604L78.5269 55.4614C78.2417 55.3188 77.9328 55.1763 77.6001 55.0337C76.9585 54.8198 76.6377 54.6416 76.6377 54.499L76.709 54.4277ZM83.5884 54.8911H83.731C83.8735 54.8911 83.9448 54.9624 83.9448 55.105H83.8735H83.731C83.6359 55.1525 83.5646 55.1763 83.5171 55.1763C83.4933 55.1763 83.4933 55.1644 83.5171 55.1406C83.5409 55.1169 83.5646 55.105 83.5884 55.105C83.731 55.105 83.731 55.0337 83.5884 54.8911ZM82.0557 54.8911C82.0794 54.8911 82.127 54.903 82.1982 54.9268C82.2695 54.9505 82.3171 54.9624 82.3408 54.9624L82.626 55.105C82.5309 55.1525 82.4121 55.1525 82.2695 55.105L81.9844 54.8911H82.0557ZM82.9824 54.9624H83.0537L83.125 55.0337C83.125 55.0812 83.0537 55.105 82.9111 55.105L82.7686 54.9624H82.9111H82.9824ZM84.3013 55.1763L84.3726 55.2476H84.4438C84.4914 55.2476 84.5389 55.2713 84.5864 55.3188C84.6577 55.3901 84.6934 55.4377 84.6934 55.4614H84.3013C84.0874 55.3901 84.0161 55.3188 84.0874 55.2476C84.1349 55.2 84.1825 55.1763 84.23 55.1763H84.3013ZM81.8418 55.1763H81.9131L81.9844 55.3188L81.8418 55.3901C81.7943 55.3426 81.7705 55.2951 81.7705 55.2476C81.7705 55.2 81.7943 55.1763 81.8418 55.1763ZM82.9824 55.3188C83.1012 55.3188 83.3507 55.3664 83.731 55.4614C83.7547 55.4614 83.7904 55.4733 83.8379 55.4971C83.8854 55.5208 83.9211 55.5327 83.9448 55.5327H84.0161L84.23 55.6753L83.0181 55.3545L82.9824 55.3188ZM85.335 55.5327H85.4062L85.4775 55.604H85.335C85.3112 55.5802 85.2874 55.5565 85.2637 55.5327H85.335ZM79.8457 55.2476L79.917 55.3188L79.8457 55.5327V55.3901V55.2476ZM80.0596 55.3188H80.1665V55.4614L79.9883 55.5327V55.3901L80.0596 55.3188ZM80.3804 55.3901V55.4614C80.4754 55.509 80.5467 55.5565 80.5942 55.604C80.618 55.6278 80.618 55.6396 80.5942 55.6396C80.5705 55.6396 80.5229 55.6278 80.4517 55.604L80.3091 55.4614L80.3804 55.3901ZM87.0103 55.8892V56.0317C87.0578 56.0793 87.1291 56.1149 87.2241 56.1387C87.3192 56.1862 87.3905 56.21 87.438 56.21C87.5093 56.21 87.5568 56.1981 87.5806 56.1743L87.2954 56.0317L87.2241 55.9604L87.0103 55.8892ZM80.4517 55.8179H80.5942V55.9604C80.4517 56.008 80.3328 56.008 80.2378 55.9604C79.9526 55.8654 79.9526 55.8179 80.2378 55.8179H80.3091H80.4517ZM82.0557 55.9604H82.2695L82.3408 56.0317L82.4121 56.103C82.4121 56.1743 82.3408 56.1743 82.1982 56.103L81.9131 55.9604H82.0557ZM80.8081 55.9604C80.8319 55.9604 80.8675 55.9723 80.915 55.9961C80.9626 56.0199 80.9982 56.0317 81.022 56.0317L81.2358 56.103C81.2358 56.1506 81.1646 56.1743 81.022 56.1743L80.9507 56.103L80.7368 55.9604H80.8081ZM85.4775 56.1743C85.5251 56.2218 85.5726 56.2456 85.6201 56.2456L85.6914 56.4238C85.5964 56.5189 85.5251 56.4951 85.4775 56.3525V56.1743ZM82.7686 56.103H82.8398C82.9349 56.103 82.9824 56.1862 82.9824 56.3525C82.9824 56.4001 82.9111 56.4238 82.7686 56.4238C82.6735 56.4238 82.626 56.3407 82.626 56.1743C82.6735 56.1268 82.721 56.103 82.7686 56.103ZM86.2974 56.4238L86.3687 56.4951C86.3687 56.5426 86.4162 56.6139 86.5112 56.709C86.535 56.7327 86.5231 56.7446 86.4756 56.7446C86.4518 56.7684 86.3924 56.7803 86.2974 56.7803L86.0479 56.6377V56.4951C86.0479 56.5426 86.0716 56.5664 86.1191 56.5664C86.238 56.5664 86.2974 56.5426 86.2974 56.4951V56.4238ZM81.6992 56.103H81.7705V56.1743L81.9131 56.2456C81.9131 56.3169 81.8418 56.3525 81.6992 56.3525C81.5091 56.2812 81.4616 56.21 81.5566 56.1387C81.6042 56.1149 81.6517 56.103 81.6992 56.103ZM86.7964 56.5664H86.8677V56.7803L86.7251 56.9229V56.709L86.7964 56.5664ZM87.2241 56.7803C87.2479 56.7803 87.2954 56.7922 87.3667 56.8159C87.4618 56.8397 87.5806 56.8753 87.7231 56.9229C87.8895 56.9704 88.0439 57.0179 88.1865 57.0654C88.4242 57.1842 88.543 57.2555 88.543 57.2793C88.543 57.3268 88.5549 57.3387 88.5786 57.3149C88.6024 57.2912 88.6143 57.2555 88.6143 57.208L88.6855 57.1367C88.7331 57.1842 88.7568 57.2318 88.7568 57.2793C88.7806 57.3743 88.7687 57.4338 88.7212 57.4575C88.6974 57.4813 88.5905 57.4694 88.4004 57.4219C88.3291 57.3743 88.2459 57.3506 88.1509 57.3506C88.0796 57.3506 88.0439 57.3743 88.0439 57.4219C88.0202 57.4932 88.0439 57.5526 88.1152 57.6001C88.2103 57.6714 88.2816 57.6833 88.3291 57.6357C88.4717 57.5882 88.5905 57.5882 88.6855 57.6357C88.8757 57.707 88.9707 57.6833 88.9707 57.5645C88.9707 57.4694 89.042 57.4219 89.1846 57.4219C89.2083 57.4219 89.2202 57.4456 89.2202 57.4932C89.2202 57.5407 89.2202 57.5882 89.2202 57.6357C89.244 57.707 89.2677 57.7546 89.2915 57.7783L89.6479 58.1704C89.6717 58.2179 89.6361 58.2061 89.541 58.1348C89.2796 57.9922 89.0895 57.9328 88.9707 57.9565C88.7806 57.9328 88.5667 57.8734 88.3291 57.7783C88.0915 57.707 87.8895 57.6239 87.7231 57.5288C87.5568 57.4338 87.4855 57.3506 87.5093 57.2793C87.4855 57.2793 87.4736 57.2555 87.4736 57.208C87.4736 57.1605 87.4855 57.113 87.5093 57.0654C87.533 56.9941 87.5449 56.9585 87.5449 56.9585C87.5449 56.9585 87.5093 56.9941 87.438 57.0654L87.1528 57.208C87.1291 57.208 87.1172 57.1961 87.1172 57.1724C87.141 57.1486 87.1766 57.113 87.2241 57.0654C87.3192 56.9704 87.3192 56.8991 87.2241 56.8516L87.1528 56.7803H87.2241ZM83.2319 56.709C83.2795 56.7565 83.327 56.7803 83.3745 56.7803L83.5171 56.8516C83.5409 56.8991 83.5409 56.9229 83.5171 56.9229C83.4933 56.9229 83.4458 56.8991 83.3745 56.8516C83.1844 56.7565 83.1369 56.709 83.2319 56.709ZM83.9448 56.8516V56.9941L83.8735 57.0654V56.9229L83.9448 56.8516ZM85.2637 56.9941L85.4062 57.0654H85.4775C85.4775 57.113 85.43 57.113 85.335 57.0654C85.2399 57.0179 85.2161 56.9941 85.2637 56.9941ZM84.3013 57.0654C84.4201 57.0654 84.6221 57.113 84.9072 57.208L85.2637 57.3862C85.2637 57.3862 85.0973 57.3506 84.7646 57.2793C84.6221 57.2318 84.4201 57.208 84.1587 57.208C84.1112 57.208 84.0874 57.1842 84.0874 57.1367C84.0874 57.0892 84.1587 57.0654 84.3013 57.0654ZM85.6201 57.4932L85.6914 57.5645H85.5488C85.5488 57.5407 85.5488 57.5169 85.5488 57.4932H85.6201ZM87.2241 57.7783H87.2954L87.3667 57.9565C87.3192 58.0041 87.2716 58.0278 87.2241 58.0278C87.1291 58.0278 87.0815 57.9803 87.0815 57.8853C87.0815 57.814 87.1291 57.7783 87.2241 57.7783ZM86.7251 57.7783V57.9565C86.7251 58.1229 86.6538 58.1704 86.5112 58.0991C86.4399 58.0278 86.4162 57.9803 86.4399 57.9565C86.5825 57.9565 86.6776 57.9328 86.7251 57.8853V57.7783ZM87.2241 58.0991V58.2417L87.1528 58.313V58.2417L87.2241 58.0991ZM87.8301 58.3843H87.9014L87.9727 58.4556H87.8301C87.8063 58.4318 87.7826 58.408 87.7588 58.3843H87.8301ZM49.2627 50.7207V50.792H49.1914L49.2627 50.7207ZM48.835 51.8257V51.897V51.8257ZM45.9121 54.3564V54.4277C45.9121 54.4753 45.9002 54.5703 45.8765 54.7129C45.8527 54.8555 45.8408 54.9624 45.8408 55.0337C45.8408 55.1287 45.7695 55.3188 45.627 55.604L45.5913 55.6396L45.6982 55.1763L45.9121 54.3564ZM43.6665 55.2476V55.3188C43.6665 55.3664 43.6427 55.4495 43.5952 55.5684C43.5715 55.7109 43.5596 55.8179 43.5596 55.8892C43.5596 55.9604 43.5358 56.0674 43.4883 56.21C43.4408 56.3525 43.417 56.4476 43.417 56.4951L43.3457 56.6377C43.3219 56.5902 43.3457 56.3882 43.417 56.0317L43.6665 55.2476ZM44.5933 64.23C44.0705 63.9686 43.8091 62.3052 43.8091 59.2397C43.5002 60.0239 43.5239 61.2952 43.8804 63.0537C44.0705 64.0042 44.2606 64.4557 44.4507 64.4082C44.4982 64.4082 44.5457 64.3488 44.5933 64.23ZM49.7974 62.1626C49.8924 62.1626 49.9162 62.2458 49.8687 62.4121C49.8211 62.5309 49.7142 62.6022 49.5479 62.626C49.5479 62.6022 49.5716 62.519 49.6191 62.3765C49.6904 62.2576 49.7261 62.1864 49.7261 62.1626H49.7974Z" fill="#0D0D0D"/>
</svg>
