<svg width="121" height="133" viewBox="0 0 121 133" fill="none" xmlns="http://www.w3.org/2000/svg">
<rect width="121" height="108" rx="54" fill="#030202"/>
<path d="M46.7656 17.2012C47.4492 17.2012 48.0547 17.4355 48.582 17.9043C49.1289 18.373 49.4805 19.0762 49.6367 20.0137C49.6367 20.7363 49.4609 22.1426 49.1094 24.2324C48.7773 26.3223 48.3477 28.7148 47.8203 31.4102C47.3125 34.1055 47.0391 35.5703 47 35.8047V35.8633V35.9219C47.1172 35.8828 47.4199 35.7461 47.9082 35.5117C48.4355 35.2383 48.8164 35.0723 49.0508 35.0137C49.207 34.9746 49.7637 34.7402 50.7207 34.3105C53.1621 33.1973 54.3828 32.6797 54.3828 32.7578C54.3828 32.7773 54.2852 32.8555 54.0898 32.9922C55.2031 32.4648 55.7598 32.3281 55.7598 32.582C55.7598 32.6211 55.7305 32.6992 55.6719 32.8164C55.6133 32.9922 55.623 33.0898 55.7012 33.1094C55.6816 33.1289 53.3965 34.2617 48.8457 36.5078C47.752 37.0352 47.0195 37.416 46.6484 37.6504C46.375 39.0176 46.1504 40.1309 45.9746 40.9902C45.8184 41.8301 45.6621 42.6406 45.5059 43.4219C45.3496 44.1836 45.0859 45.4238 44.7148 47.1426C42.8008 55.8145 42.0586 64.252 42.4883 72.4551C42.4688 72.7285 42.2441 72.8945 41.8145 72.9531C41.3848 73.0117 40.916 72.9531 40.4082 72.7773C39.9199 72.6016 39.5781 72.3574 39.3828 72.0449C38.9336 71.2246 38.709 68.7832 38.709 64.7207C38.709 64.3301 38.6992 63.9688 38.6797 63.6367C38.6797 63.3047 38.6797 63.0898 38.6797 62.9922C38.6992 62.8945 38.709 62.7969 38.709 62.6992C38.709 62.6016 38.7188 62.4844 38.7383 62.3477C38.7578 62.2305 38.7773 62.0742 38.7969 61.8789C38.8359 61.6836 38.8848 61.3516 38.9434 60.8828C39.002 60.4141 39.0703 59.877 39.1484 59.2715C39.7344 54.6816 40.916 48.1582 42.6934 39.7012C42.5957 39.7598 42.3125 39.8965 41.8438 40.1113C41.3945 40.3066 40.9941 40.4922 40.6426 40.668C40.3105 40.8242 39.9395 41 39.5293 41.1953C39.1387 41.3906 38.8164 41.5469 38.5625 41.6641C38.3281 41.7812 38.1816 41.8496 38.123 41.8691L37.6543 42.1035C37.5566 42.1816 37.4688 42.2402 37.3906 42.2793C36.707 42.5723 35.1934 43.2363 32.8496 44.2715C30.8379 47.3379 29.168 50.043 27.8398 52.3867C26.5312 54.7109 25.6426 56.2441 25.1738 56.9863C25.3496 57.2598 25.4668 57.5332 25.5254 57.8066C25.916 59.1348 26.0918 60.3359 26.0527 61.4102C26.0137 62.4844 25.8672 63.3535 25.6133 64.0176C25.3594 64.6816 25.0273 65.2383 24.6172 65.6875L24.7344 65.8047H24.7637C24.2168 66.4102 23.416 67.0352 22.3613 67.6797C20.4277 68.8906 19.0215 69.0664 18.1426 68.207C17.5957 67.6992 17.2441 67.0449 17.0879 66.2441C16.9512 65.4434 16.9414 64.7402 17.0586 64.1348C17.1953 63.5293 17.3711 63.0801 17.5859 62.7871C18.0547 62.1621 18.5137 61.4492 18.9629 60.6484C19.4316 59.8477 19.9785 58.8613 20.6035 57.6895C21.2285 56.498 21.668 55.6777 21.9219 55.2285C21.8633 55.1113 21.707 54.877 21.4531 54.5254C21.1992 54.1543 21.0137 53.8711 20.8965 53.6758C20.2715 52.6211 19.9297 51.6152 19.8711 50.6582C19.8125 49.7012 20.0566 48.8906 20.6035 48.2266C20.7207 48.0898 20.8184 47.9824 20.8965 47.9043C20.9746 47.8066 21.0527 47.709 21.1309 47.6113C21.2285 47.5137 21.3359 47.4258 21.4531 47.3477C21.5898 47.2695 21.707 47.1914 21.8047 47.1133C21.9219 47.0156 22.0977 46.918 22.332 46.8203C22.5664 46.7031 22.7812 46.5957 22.9766 46.498C23.1719 46.4004 23.4746 46.2637 23.8848 46.0879C24.2949 45.8926 24.666 45.7168 24.998 45.5605C25.3496 45.4043 25.8379 45.1797 26.4629 44.8867C27.1074 44.5938 27.7129 44.3203 28.2793 44.0664C28.9043 43.3828 29.5879 42.4355 30.3301 41.2246C31.0723 40.0137 31.8242 38.7148 32.5859 37.3281C33.3477 35.9219 33.875 34.9746 34.168 34.4863C34.168 34.4668 35.1055 32.9141 36.9805 29.8281C38.8555 26.7227 40.5645 23.9883 42.1074 21.625C43.6504 19.2422 44.5781 18.0117 44.8906 17.9336C45.3789 17.4453 46.0039 17.2012 46.7656 17.2012ZM45.8574 23.6172C45.7012 23.5977 44.7734 24.9062 43.0742 27.543C41.3945 30.1602 39.7344 32.8066 38.0938 35.4824C36.4531 38.1582 35.2031 40.2285 34.3438 41.6934C35.3203 41.127 36.8633 40.3848 38.9727 39.4668C41.1016 38.5293 42.498 37.9043 43.1621 37.5918C43.2207 37.3184 43.3281 36.7812 43.4844 35.9805C43.6602 35.1797 43.7969 34.5547 43.8945 34.1055L43.748 34.7207C45.0371 28.8223 45.7598 25.3066 45.916 24.1738C45.9746 23.8027 45.9551 23.6172 45.8574 23.6172ZM47.6738 26.752C47.3223 26.9473 46.9316 28.2949 46.502 30.7949C46.0918 33.2754 45.7988 34.6621 45.623 34.9551C45.4082 35.834 45.3594 36.2441 45.4766 36.1855C45.6523 36.0684 45.8379 35.4727 46.0332 34.3984L46.0918 34.1055C46.1504 33.8711 46.4141 32.6504 46.8828 30.4434C47.3516 28.2363 47.6152 27.0059 47.6738 26.752ZM40.2324 29.1543C40.1348 29.252 39.8711 29.5645 39.4414 30.0918C39.0312 30.6191 38.543 31.3027 37.9766 32.1426C37.4102 32.9824 37.0195 33.666 36.8047 34.1934C36.3359 34.7207 35.916 35.3066 35.5449 35.9512C35.1738 36.5957 34.8613 37.2012 34.6074 37.7676C34.3535 38.334 34.207 38.6562 34.168 38.7344C33.9336 39.125 33.582 39.6523 33.1133 40.3164C32.6445 40.9609 32.2344 41.5078 31.8828 41.957C31.5508 42.4062 31.3652 42.6504 31.3262 42.6895C31.834 42.4355 32.1172 42.2793 32.1758 42.2207C32.4688 41.6152 34.1289 38.8711 37.1562 33.9883C37.5664 33.3242 38.0449 32.5625 38.5918 31.7031C39.1582 30.8438 39.5781 30.209 39.8516 29.7988C40.125 29.3691 40.252 29.1543 40.2324 29.1543ZM49.6367 35.0137C49.4805 35.0527 49.2656 35.1309 48.9922 35.248C48.8164 35.541 48.2109 35.8438 47.1758 36.1562C47.1367 36.1758 47.0879 36.1953 47.0293 36.2148C46.9707 36.2344 46.9219 36.2539 46.8828 36.2734V36.5078C48.7969 35.5703 49.7148 35.0723 49.6367 35.0137ZM42.9863 38.5V38.6172V38.5ZM42.9277 38.5C42.7129 38.5977 42.4492 38.7246 42.1367 38.8809C41.8242 39.0371 41.5801 39.1641 41.4043 39.2617C41.2285 39.3398 41.1113 39.3887 41.0527 39.4082L40.7598 39.584C40.5059 39.6621 40.2227 39.7793 39.9102 39.9355L38.1816 40.7852C35.916 41.7617 34.4707 42.3965 33.8457 42.6895C33.8457 42.6895 33.7871 42.7578 33.6699 42.8945C33.6699 42.9336 33.709 42.9336 33.7871 42.8945L37.8887 41.0781C38.3184 40.9414 38.6602 40.7852 38.9141 40.6094C39.2461 40.3945 39.7637 40.1309 40.4668 39.8184C40.7012 39.7207 41.043 39.5645 41.4922 39.3496C41.9609 39.1152 42.2539 38.9688 42.3711 38.9102C42.5664 38.8125 42.752 38.7344 42.9277 38.6758V38.5ZM42.9277 38.9688C42.9277 38.9883 42.918 39.0273 42.8984 39.0859C42.8789 39.125 42.8691 39.1543 42.8691 39.1738C42.8691 39.1543 42.8789 39.125 42.8984 39.0859C42.918 39.0273 42.9277 38.9883 42.9277 38.9688ZM42.8691 38.9688C42.5176 39.125 42.1465 39.3008 41.7559 39.4961C41.3848 39.6914 41.0918 39.8379 40.877 39.9355C40.6816 40.0332 40.5645 40.0918 40.5254 40.1113L40.4082 40.1699C40.3887 40.1699 39.7832 40.4531 38.5918 41.0195C37.4199 41.5664 36.248 42.1133 35.0762 42.6602C33.9238 43.1875 33.3379 43.4609 33.3184 43.4805C33.2988 43.5 33.709 43.3242 34.5488 42.9531C35.4082 42.582 36.2578 42.2109 37.0977 41.8398C37.957 41.4688 38.377 41.293 38.3574 41.3125C38.377 41.3125 38.6602 41.166 39.207 40.873C39.7734 40.5801 40.0664 40.4336 40.0859 40.4336C40.125 40.4336 40.2031 40.4043 40.3203 40.3457C40.457 40.2676 40.623 40.1797 40.8184 40.082C41.0332 39.9648 41.209 39.877 41.3457 39.8184C41.4824 39.7598 41.7266 39.6621 42.0781 39.5254C42.4297 39.3887 42.6738 39.291 42.8105 39.2324C42.8105 39.2129 42.8203 39.1738 42.8398 39.1152C42.8594 39.0371 42.8691 38.9883 42.8691 38.9688ZM44.4805 39.877C44.4414 39.877 44.3633 40.1406 44.2461 40.668C42.8789 46.2734 42.1758 49.1348 42.1367 49.252C41.9023 50.2285 41.7656 50.8633 41.7266 51.1562C41.707 51.2344 41.6484 51.5664 41.5508 52.1523C41.4531 52.7188 41.3848 53.168 41.3457 53.5C41.3066 54.0078 41.1895 54.5449 40.9941 55.1113C40.8965 55.3848 40.877 55.5508 40.9355 55.6094C40.9355 55.5898 40.9453 55.5605 40.9648 55.5215C40.9844 55.4824 40.9941 55.4531 40.9941 55.4336V55.375V55.3457V55.3164V55.3457V55.375V55.668V56.0195C40.9941 56.3125 40.9746 56.7617 40.9355 57.3672C40.8965 57.9727 40.877 58.4414 40.877 58.7734V56.6934C40.7988 57.1621 40.7598 57.4551 40.7598 57.5723C40.7598 57.8066 40.7207 58.4121 40.6426 59.3887C40.6426 59.4473 40.6328 59.5254 40.6133 59.623C40.5938 59.7207 40.584 59.7988 40.584 59.8574C40.5059 60.7559 40.4668 61.3125 40.4668 61.5273C40.4277 62.4258 40.4082 63.168 40.4082 63.7539C40.4082 64.3594 40.418 64.7891 40.4375 65.043C40.457 65.3164 40.5156 65.873 40.6133 66.7129C40.7305 67.5527 40.8184 68.2656 40.877 68.8516C40.9746 68.4219 41.043 67.9336 41.082 67.3867C41.1211 66.8398 41.1309 66.1953 41.1113 65.4531C41.1113 64.7305 41.1016 64.125 41.082 63.6367C41.082 63.168 41.0625 62.4648 41.0234 61.5273C40.9844 60.6094 40.9551 59.9941 40.9355 59.6816C41.0137 59.3496 41.0625 58.8809 41.082 58.2754C41.1016 57.6699 41.1504 57.2012 41.2285 56.8691C41.3652 56.2246 41.4922 55.4629 41.6094 54.584C41.6289 54.3887 41.6582 54.1934 41.6973 53.998C41.7363 53.7832 41.7656 53.6172 41.7852 53.5L41.8438 53.3242L41.9023 53.1484C41.9219 53.0312 41.9512 52.875 41.9902 52.6797C42.0293 52.4648 42.0586 52.2598 42.0781 52.0645C42.2148 51.0488 42.3516 50.541 42.4883 50.541C42.5078 50.541 42.5273 50.5508 42.5469 50.5703C42.625 50.6289 42.7129 50.5312 42.8105 50.2773C42.9473 49.9453 43.0645 49.457 43.1621 48.8125C43.2598 48.1094 43.2695 47.7773 43.1914 47.8164C43.1523 47.8359 43.084 48.0508 42.9863 48.4609C42.9082 48.832 42.8105 49.0762 42.6934 49.1934C42.6738 49.2129 42.6641 49.2031 42.6641 49.1641L42.752 48.7539C42.7324 49.0078 42.7812 48.9395 42.8984 48.5488C42.9961 48.0996 43.2598 46.8887 43.6895 44.916C44.2168 42.3574 44.5195 41.0195 44.5977 40.9023C44.5977 40.2188 44.5586 39.877 44.4805 39.877ZM40.877 58.7734C40.877 58.8711 40.8867 59.0273 40.9062 59.2422C40.9258 59.4375 40.9355 59.584 40.9355 59.6816V59.7402C40.8965 59.8184 40.877 59.877 40.877 59.916V60.0918V60.0625V60.0332V60.0039V59.9746V59.9453V59.916V59.8867V59.8574V59.8281V59.7988V59.7695V59.7402V59.7109V59.6816V59.6523V59.623V59.5938V59.5645V59.5352V59.5059V59.4766V59.4473V59.418V59.3887V59.3594V59.3301V59.3008V59.2422V59.2129V59.1836V59.1543V59.125V59.0957V59.0664V58.7734ZM29.8906 46.1172C29.7734 46.1953 29.6367 46.3125 29.4805 46.4688L29.0117 46.9668L26.9023 50.0137C26.4922 50.6582 26.248 51.0195 26.1699 51.0977C25.9746 51.2539 25.916 51.3711 25.9941 51.4492C26.0332 51.4883 25.8965 51.6934 25.584 52.0645C25.5059 52.1426 25.4277 52.2402 25.3496 52.3574C25.291 52.4551 25.2227 52.5625 25.1445 52.6797C25.0859 52.7969 25.0469 52.875 25.0273 52.9141C24.832 53.4805 24.6562 53.8711 24.5 54.0859C24.4414 54.1641 24.3047 54.3301 24.0898 54.584C23.8945 54.8379 23.7676 55.0332 23.709 55.1699L23.9727 55.4336C24.0117 55.3555 24.0703 55.2676 24.1484 55.1699C24.2266 55.0527 24.2852 54.9648 24.3242 54.9062C24.3633 54.8281 24.3828 54.7793 24.3828 54.7598L24.5586 54.5254C24.7148 54.3105 24.8711 54.0859 25.0273 53.8516L25.9941 52.4746C25.8379 52.0449 26.2188 51.5273 27.1367 50.9219C27.2539 50.7656 27.3711 50.5215 27.4883 50.1895C27.6055 49.8379 27.7324 49.5645 27.8691 49.3691C28.2012 48.9785 28.3574 48.6367 28.3379 48.3438C28.3574 48.3828 28.3867 48.3926 28.4258 48.373C28.4844 48.334 28.5527 48.2656 28.6309 48.168C28.709 48.0508 28.7773 47.9434 28.8359 47.8457C28.9141 47.748 29.0215 47.6016 29.1582 47.4062C29.2949 47.1914 29.4023 47.0254 29.4805 46.9082C29.8125 46.3809 29.9492 46.1172 29.8906 46.1172ZM27.1367 46.1172C26.4141 46.5273 25.9941 46.752 25.877 46.791L23.3574 48.1094L26.9023 46.4688L27.1367 46.1172ZM28.1621 46.7324C27.9668 46.7324 27.7812 46.8691 27.6055 47.1426C27.1562 47.8066 26.6387 48.6562 26.0527 49.6914C25.4863 50.707 25.125 51.3125 24.9688 51.5078C25.0273 51.5469 25.1543 51.4297 25.3496 51.1562C25.5449 50.8633 25.7695 50.4922 26.0234 50.043C26.2773 49.5742 26.5312 49.1055 26.7852 48.6367C27.0586 48.168 27.3223 47.748 27.5762 47.377C27.8301 47.0059 28.0254 46.791 28.1621 46.7324ZM26.8438 46.9082C26.5898 47.1426 26.1309 47.416 25.4668 47.7285C24.8027 48.0215 24.1875 48.2949 23.6211 48.5488C23.0547 48.7832 22.5469 49.1543 22.0977 49.6621C21.6484 50.1504 21.4336 50.707 21.4531 51.332C21.4141 51.957 21.834 52.8164 22.7129 53.9102L23.0645 53.3828C23.377 52.9336 23.8457 52.1719 24.4707 51.0977C25.1152 50.0234 25.6719 49.0566 26.1406 48.1973L26.8438 46.9082ZM29.1289 48.8125C29.0703 48.8125 29.0215 48.8418 28.9824 48.9004C28.9434 48.9395 28.9336 48.9883 28.9531 49.0469C28.9531 49.0859 28.9922 49.1055 29.0703 49.1055L29.1875 49.0469C29.207 49.0078 29.207 48.959 29.1875 48.9004C29.1875 48.8418 29.168 48.8125 29.1289 48.8125ZM28.5137 49.6035L28.2793 49.7207C27.9277 50.0137 27.8008 50.209 27.8984 50.3066C27.9961 50.4043 28.1426 50.3359 28.3379 50.1016C28.4355 49.9648 28.4941 49.7988 28.5137 49.6035ZM42.5469 51.332C42.5859 51.332 42.6055 51.4102 42.6055 51.5664V51.7129C42.6055 51.752 42.5469 51.7715 42.4297 51.7715C42.3711 51.7324 42.3516 51.6641 42.3711 51.5664C42.3906 51.4492 42.4297 51.3711 42.4883 51.332H42.5469ZM42.3125 52.4746C42.2344 52.5527 42.1758 52.6504 42.1367 52.7676C42 53.1777 41.9609 53.4805 42.0195 53.6758C42.0586 53.8516 42.1172 53.8418 42.1953 53.6465L42.3125 53.1484V53.0312V52.4746ZM24.1484 53.0898C24.1289 53.1094 24.0996 53.1289 24.0605 53.1484C24.0215 53.168 23.9922 53.1875 23.9727 53.207C23.7383 53.4414 23.4941 53.7637 23.2402 54.1738C23.2207 54.1934 23.2012 54.2324 23.1816 54.291C23.1621 54.3496 23.1426 54.3887 23.123 54.4082C23.1426 54.4277 23.1719 54.4668 23.2109 54.5254C23.25 54.584 23.2793 54.623 23.2988 54.6426C23.6895 54.0566 23.9141 53.7344 23.9727 53.6758L24.0312 53.5586C24.1094 53.4805 24.1484 53.3828 24.1484 53.2656V53.0898ZM22.2734 55.8438C22.2539 55.8828 22.166 56.0488 22.0098 56.3418C21.8535 56.6348 21.7266 56.8887 21.6289 57.1035C21.4727 57.416 21.2578 57.7969 20.9844 58.2461C20.7305 58.6758 20.5059 59.0371 20.3105 59.3301C20.1152 59.623 20.0078 59.7793 19.9883 59.7988C19.9297 59.8574 19.7441 60.1309 19.4316 60.6191C19.1191 61.0879 18.9238 61.4395 18.8457 61.6738C18.8262 61.9082 18.7383 62.1523 18.582 62.4062C18.4453 62.6602 18.2988 62.8848 18.1426 63.0801C18.0059 63.2949 17.8691 63.6367 17.7324 64.1055C17.6152 64.5938 17.5469 65.1602 17.5273 65.8047C17.5469 65.707 17.5762 65.5215 17.6152 65.248C17.6738 64.9746 17.7324 64.7305 17.791 64.5156C17.8691 64.3203 18.0645 63.9004 18.377 63.2559C18.6895 62.6113 19.1289 61.7812 19.6953 60.7656C19.793 60.3555 20.1152 59.75 20.6621 58.9492C21.4824 57.6406 21.9023 56.9668 21.9219 56.9277C22.0977 56.6348 22.2539 56.3516 22.3906 56.0781C22.3711 56.0586 22.3516 56.0195 22.332 55.9609C22.3125 55.9023 22.293 55.8633 22.2734 55.8438ZM22.8301 56.6055L22.7129 56.752C22.498 57.0449 22.3906 57.2207 22.3906 57.2793C22.3906 57.3574 22.3125 57.5137 22.1562 57.748C21.8047 58.2949 21.4629 58.9004 21.1309 59.5645C21.0527 59.7207 20.916 59.9648 20.7207 60.2969C20.5449 60.6289 20.3984 60.9023 20.2812 61.1172C20.1836 61.332 20.125 61.4688 20.1055 61.5273C20.0664 61.6055 19.998 61.752 19.9004 61.9668C19.8223 62.2012 19.7344 62.4062 19.6367 62.582C19.5391 62.7578 19.4219 62.9141 19.2852 63.0508C19.2656 63.1289 19.0703 63.627 18.6992 64.5449C18.3477 65.4629 18.1621 65.9609 18.1426 66.0391C18.3184 66.1172 18.4453 66.0977 18.5234 65.9805C18.6211 65.8633 18.6895 65.6777 18.7285 65.4238C18.7871 65.1895 18.8359 64.9355 18.875 64.6621C18.9141 64.3887 18.9824 64.1152 19.0801 63.8418C19.1973 63.5879 19.3438 63.4023 19.5195 63.2852C19.832 62.4844 20.418 61.4004 21.2773 60.0332C22.1562 58.666 22.752 57.6699 23.0645 57.0449C23.0449 57.0059 23.0059 56.9375 22.9473 56.8398C22.8887 56.7227 22.8496 56.6445 22.8301 56.6055ZM39.8516 58.5391C39.7539 58.5391 39.666 58.7148 39.5879 59.0664C39.5098 59.418 39.5 59.6816 39.5586 59.8574C39.5586 59.877 39.5488 59.916 39.5293 59.9746C39.5098 60.0332 39.5 60.0723 39.5 60.0918C39.5 60.2871 39.5586 60.541 39.6758 60.8535C39.8125 61.166 39.8711 61.3906 39.8516 61.5273C39.3828 64.3984 39.3828 66.7812 39.8516 68.6758C39.9297 68.8516 39.9688 68.5195 39.9688 67.6797C39.9688 66.8594 39.9492 65.5898 39.9102 63.8711C39.8711 62.1523 39.8516 60.8145 39.8516 59.8574C39.8516 59.7598 39.8516 59.6621 39.8516 59.5645C39.8711 59.4668 39.8809 59.3887 39.8809 59.3301C39.9004 59.2715 39.9102 59.2324 39.9102 59.2129L39.9688 59.0664C39.9688 58.7148 39.9297 58.5391 39.8516 58.5391ZM24.0312 58.6562C23.8945 58.8516 23.5723 59.3691 23.0645 60.209C22.5566 61.0488 22.1172 61.7324 21.7461 62.2598C21.5508 62.5527 21.2285 63.1191 20.7793 63.959C20.3301 64.8184 20.0469 65.3555 19.9297 65.5703C19.9102 65.6289 19.9102 65.6582 19.9297 65.6582C19.9492 65.6777 20.0176 65.6484 20.1348 65.5703C20.4082 65.3945 20.6816 65.248 20.9551 65.1309C21.6191 64.8184 22.127 64.5352 22.4785 64.2812C22.8496 64.0469 23.084 63.9102 23.1816 63.8711C23.5918 63.5781 23.9922 63.1387 24.3828 62.5527C24.9883 61.5566 24.8711 60.2578 24.0312 58.6562ZM41.6094 59.0664C41.5312 59.3594 41.4922 59.6426 41.4922 59.916C41.4922 59.9551 41.4824 60.0234 41.4629 60.1211C41.4434 60.2188 41.4336 60.2871 41.4336 60.3262C41.4336 61.0293 41.3848 61.5762 41.2871 61.9668V62.8457C41.3262 62.7285 41.3848 62.2598 41.4629 61.4395L41.6094 60.2676C41.6094 60.2285 41.6191 60.1699 41.6387 60.0918C41.6582 60.0137 41.668 59.9551 41.668 59.916V59.7402L41.6094 59.0664ZM25.0859 62.3184L24.5586 63.5195C24.4023 63.8711 23.9629 64.291 23.2402 64.7793C22.5176 65.2871 21.8242 65.707 21.1602 66.0391L20.1934 66.5078C20.1934 66.5078 20.1348 66.5762 20.0176 66.7129C20.0371 66.8105 20.6133 66.5664 21.7461 65.9805C22.3125 65.7266 22.8203 65.4238 23.2695 65.0723C23.7188 64.7207 24.0508 64.3887 24.2656 64.0762C24.5 63.7832 24.6953 63.4902 24.8516 63.1973C25.0273 62.9238 25.1152 62.709 25.1152 62.5527C25.1152 62.416 25.1055 62.3379 25.0859 62.3184ZM85.6133 22.0059V21.9473C86.1406 21.9473 86.5996 22.1426 86.9902 22.5332C87.3809 22.9238 87.5078 23.3438 87.3711 23.793C87.0391 24.4766 86.4336 25.8242 85.5547 27.8359C84.6953 29.8477 84.0215 31.2832 83.5332 32.1426L83.2109 32.9336L82.8594 33.6367C82.8203 33.7148 82.7715 33.8613 82.7129 34.0762C82.6543 34.2715 82.6055 34.4082 82.5664 34.4863L82.2148 35.1895C82.1758 35.2676 82.1074 35.4043 82.0098 35.5996C81.9316 35.7754 81.873 35.9023 81.834 35.9805C81.7949 36.0586 81.7363 36.1953 81.6582 36.3906C81.5801 36.5664 81.5215 36.6934 81.4824 36.7715C81.4434 36.8496 81.3945 36.9766 81.3359 37.1523C81.2773 37.3281 81.2285 37.4551 81.1895 37.5332C80.916 38.1582 80.7695 38.5586 80.75 38.7344C80.7109 38.8516 80.6523 39.0469 80.5742 39.3203C80.4961 39.5742 80.4375 39.7598 80.3984 39.877C80.2422 40.1699 80.1445 40.4141 80.1055 40.6094C80.0859 40.668 80.0371 40.7852 79.959 40.9609C79.8809 41.1367 79.832 41.2539 79.8125 41.3125C79.8125 41.332 79.8027 41.3613 79.7832 41.4004C79.7637 41.4395 79.7539 41.4688 79.7539 41.4883C79.7344 41.5469 79.6758 41.6543 79.5781 41.8105C79.5 41.9473 79.4512 42.0449 79.4316 42.1035C79.4121 42.1621 79.373 42.25 79.3145 42.3672C79.2559 42.4844 79.2168 42.5723 79.1973 42.6309C79.2949 42.5918 79.4609 42.5332 79.6953 42.4551C79.9492 42.377 80.125 42.3184 80.2227 42.2793C80.3398 42.2402 80.5156 42.1816 80.75 42.1035C81.0039 42.0254 81.1895 41.9668 81.3066 41.9277C81.4238 41.8887 81.5898 41.8203 81.8047 41.7227C82.0391 41.6055 82.2148 41.5273 82.332 41.4883C82.4492 41.4492 82.625 41.3906 82.8594 41.3125C83.1133 41.2344 83.2988 41.1758 83.416 41.1367C83.5332 41.0977 83.6992 41.0488 83.9141 40.9902C84.1289 40.9316 84.2949 40.8828 84.4121 40.8438C84.5293 40.8047 84.7051 40.7461 84.9395 40.668C85.1934 40.5898 85.3789 40.5312 85.4961 40.4922C85.6133 40.4531 85.7891 40.3945 86.0234 40.3164C86.2773 40.2188 86.4629 40.1504 86.5801 40.1113C86.6973 40.0723 86.873 40.0137 87.1074 39.9355C87.3613 39.8574 87.5469 39.7988 87.6641 39.7598C87.8398 39.7012 87.9961 39.6523 88.1328 39.6133C88.2891 39.5742 88.4551 39.5254 88.6309 39.4668C88.7285 39.4277 88.8848 39.3691 89.0996 39.291C89.3145 39.1934 89.4707 39.125 89.5684 39.0859C89.7051 39.0664 89.9297 39.0273 90.2422 38.9688C90.5547 38.9102 90.7793 38.8711 90.916 38.8516C90.9355 38.8516 90.9844 38.8418 91.0625 38.8223C91.1406 38.8027 91.1895 38.793 91.209 38.793C91.9707 38.6172 92.5078 38.4805 92.8203 38.3828C92.9375 38.3438 93.123 38.2852 93.377 38.207C93.6504 38.1289 93.8457 38.0703 93.9629 38.0312C94.0801 37.9922 94.2461 37.9336 94.4609 37.8555C94.6953 37.7578 94.8711 37.6895 94.9883 37.6504C95.1055 37.6113 95.2812 37.5625 95.5156 37.5039C95.7695 37.4453 95.9551 37.3965 96.0723 37.3574C96.1895 37.3184 96.3555 37.2695 96.5703 37.2109C96.7852 37.1523 96.9512 37.1035 97.0684 37.0645C97.1855 37.0254 97.3613 36.9668 97.5957 36.8887C97.8496 36.8105 98.0352 36.752 98.1523 36.7129C98.2695 36.6738 98.4453 36.6152 98.6797 36.5371C98.9336 36.4395 99.1191 36.3711 99.2363 36.332L100.262 36.0391C100.379 36 100.564 35.9512 100.818 35.8926C101.092 35.834 101.287 35.7852 101.404 35.7461C101.502 35.7266 101.961 35.5605 102.781 35.248H102.84L103.689 35.0723C103.826 35.0332 104.031 34.9746 104.305 34.8965C104.598 34.8184 104.812 34.7598 104.949 34.7207C105.555 34.584 105.984 34.5742 106.238 34.6914C106.512 34.7891 106.658 34.9746 106.678 35.248C106.717 35.5215 106.688 35.8047 106.59 36.0977C106.492 36.3711 106.395 36.625 106.297 36.8594L106.15 37.1816C106.189 37.1816 106.053 37.3379 105.74 37.6504C105.447 37.9434 105.096 38.2559 104.686 38.5879C104.295 38.9199 104.021 39.1152 103.865 39.1738C103.787 39.1934 103.748 39.1445 103.748 39.0273C103.768 38.9297 103.826 38.7344 103.924 38.4414C104.1 37.9922 104.139 37.7676 104.041 37.7676C100.408 38.8809 98.5918 39.4863 98.5918 39.584C100.193 39.1934 101.971 38.6953 103.924 38.0898C103.807 38.1289 103.66 38.1777 103.484 38.2363L103.191 38.3242C103.152 38.3242 103.094 38.3438 103.016 38.3828C102.938 38.4219 102.879 38.4414 102.84 38.4414C102.82 38.4414 102.801 38.4512 102.781 38.4707C102.762 38.4902 102.742 38.5 102.723 38.5C102.684 38.5 102.615 38.5098 102.518 38.5293C102.42 38.5488 102.352 38.5586 102.312 38.5586C101.98 38.6562 101.434 38.832 100.672 39.0859L100.613 39.1738C100.594 39.1738 100.564 39.1836 100.525 39.2031C100.486 39.2227 100.457 39.2324 100.438 39.2324C100.32 39.2715 100.125 39.3301 99.8516 39.4082C99.5977 39.4863 99.4121 39.5449 99.2949 39.584C99.1582 39.623 98.9531 39.6719 98.6797 39.7305C98.4258 39.7891 98.2305 39.8379 98.0938 39.877C97.9766 39.877 97.957 39.8379 98.0352 39.7598C98.1719 39.623 97.9082 39.6523 97.2441 39.8477C97.2051 39.8672 97.1758 39.877 97.1562 39.877C96.5508 40.0723 96.2188 40.2188 96.1602 40.3164L96.2773 40.3457C96.4141 40.3457 96.6191 40.3066 96.8926 40.2285L97.3027 40.1406C97.2832 40.1406 97.2539 40.1504 97.2148 40.1699C97.1562 40.1895 96.873 40.2969 96.3652 40.4922C96.4238 40.4727 96.4141 40.4727 96.3359 40.4922C96.2773 40.5117 96.1797 40.5508 96.043 40.6094L95.7207 40.7266H95.75L95.252 40.873C95.2715 40.873 95.3008 40.8633 95.3398 40.8438C95.1836 40.9023 94.9297 40.9805 94.5781 41.0781C94.2266 41.1758 93.9629 41.2539 93.7871 41.3125C93.7676 41.3125 93.748 41.3223 93.7285 41.3418C93.709 41.3613 93.6895 41.3711 93.6699 41.3711H93.6113L93.7285 41.3125C93.5137 41.3711 93.0352 41.5371 92.293 41.8105C92.2344 41.8301 92.1367 41.8594 92 41.8984C91.8828 41.9375 91.7949 41.9668 91.7363 41.9863C91.6582 42.0059 91.541 42.0547 91.3848 42.1328C91.2285 42.2109 91.1113 42.2598 91.0332 42.2793C90.9551 42.3184 90.8867 42.3379 90.8281 42.3379C90.6328 42.3965 90.3301 42.4941 89.9199 42.6309C89.5293 42.748 89.2363 42.8359 89.041 42.8945L88.9824 42.9531C88.2793 43.0898 87.957 43.0996 88.0156 42.9824C88.0547 42.9043 88.377 42.7676 88.9824 42.5723L89.8027 42.2793H89.7734C89.4414 42.2793 88.0352 42.6992 85.5547 43.5391L82.2148 44.623C82.6055 44.4668 82.8789 44.3105 83.0352 44.1543C83.2109 44.0371 83.3086 43.9883 83.3281 44.0078C83.3281 44.0273 83.4453 44.0078 83.6797 43.9492C83.9141 43.8906 84.2656 43.793 84.7344 43.6562C84.8516 43.6172 85.0078 43.5684 85.2031 43.5098L85.6719 43.334C85.6328 43.334 85.4863 43.3633 85.2324 43.4219C85.1152 43.4414 85.0273 43.4609 84.9688 43.4805C84.8516 43.5 84.6758 43.5488 84.4414 43.627C84.2266 43.7051 84.0605 43.7539 83.9434 43.7734C84.0605 43.7344 84.2363 43.6758 84.4707 43.5977C84.7246 43.5195 84.9102 43.4609 85.0273 43.4219C85.8086 43.1875 86.248 43.0703 86.3457 43.0703C86.4824 43.1094 86.7168 43.0215 87.0488 42.8066C87.6152 42.4941 87.9668 42.3574 88.1035 42.3965C88.123 42.3965 88.1133 42.416 88.0742 42.4551C88.0352 42.4746 88.2695 42.4062 88.7773 42.25C89.2852 42.0938 89.8516 41.918 90.4766 41.7227C91.1211 41.5078 91.5801 41.3516 91.8535 41.2539C91.9316 41.2148 91.9902 41.1953 92.0293 41.1953C92.7129 40.9414 94.0898 40.5117 96.1602 39.9062C98.2305 39.3008 99.4414 38.9688 99.793 38.9102C100.262 38.8516 100.496 38.7734 100.496 38.6758C100.496 38.6172 101.883 38.1582 104.656 37.2988L105.389 37.0352C105.193 36.957 104.266 37.1816 102.605 37.709C101.844 37.9434 101.16 38.1875 100.555 38.4414C100.086 38.5781 99.5781 38.7344 99.0312 38.9102C98.4844 39.0664 98.0059 39.2129 97.5957 39.3496C97.1855 39.4668 96.7559 39.5938 96.3066 39.7305C95.877 39.8672 95.4961 39.9844 95.1641 40.082C94.8516 40.1797 94.5391 40.2773 94.2266 40.375C93.9141 40.4531 93.6504 40.5312 93.4355 40.6094C93.2402 40.668 93.0645 40.7168 92.9082 40.7559C92.752 40.7949 92.6445 40.8242 92.5859 40.8438C92.5273 40.8633 92.5078 40.8633 92.5273 40.8438H92.498C92.3027 40.9219 92.1074 40.9805 91.9121 41.0195C91.8145 41.0586 91.6094 41.127 91.2969 41.2246C90.9844 41.3027 90.7305 41.3711 90.5352 41.4297C88.8164 42.0352 87.8398 42.3379 87.6055 42.3379C87.2734 42.3379 86.7559 42.4551 86.0527 42.6895C85.5645 42.8262 85.3203 42.9141 85.3203 42.9531C85.3203 42.9727 85.418 42.9727 85.6133 42.9531C85.8281 42.9336 85.8574 42.9531 85.7012 43.0117C85.5645 43.0703 85.1445 43.2168 84.4414 43.4512H84.4121L84.3828 43.4805H84.3535C83.1035 43.9102 82.4492 44.0664 82.3906 43.9492C82.3711 43.9102 82.3125 43.9004 82.2148 43.9199C82.1367 43.9199 82.0879 43.9492 82.0684 44.0078C82.0293 44.0859 81.8633 44.2031 81.5703 44.3594C81.2773 44.5156 80.9453 44.6426 80.5742 44.7402C79.6953 45.0527 79.2168 45.1699 79.1387 45.0918C79.0801 45.0332 78.9824 45.0723 78.8457 45.209C78.8066 45.248 78.5039 45.3945 77.9375 45.6484C77.7812 46 77.5664 46.4883 77.293 47.1133C77.0195 47.7383 76.8145 48.207 76.6777 48.5195C76.502 48.9688 76.2969 49.4375 76.0625 49.9258C75.8281 50.4141 75.6719 50.7656 75.5938 50.9805H75.6523C75.4375 50.9023 75.3203 50.8535 75.3008 50.834L75.7695 51.0391C76.082 51.1562 76.248 51.2246 76.2676 51.2441L75.916 51.0977L76.1504 51.2148C76.1699 51.2148 76.209 51.2246 76.2676 51.2441C76.3262 51.2637 76.3652 51.2734 76.3848 51.2734C76.4043 51.2734 76.4238 51.2832 76.4434 51.3027C76.4629 51.3223 76.4824 51.332 76.502 51.332C76.5801 51.4102 76.6387 51.4492 76.6777 51.4492C83.6895 54.8477 89.6953 57.4551 94.6953 59.2715C94.7539 59.291 94.793 59.3008 94.8125 59.3008C94.832 59.3008 94.8711 59.3105 94.9297 59.3301C95.1641 59.4473 95.3008 59.5059 95.3398 59.5059H95.3984C95.5156 59.5449 95.5938 59.5645 95.6328 59.5645C95.6523 59.5645 95.7012 59.584 95.7793 59.623C95.877 59.6621 95.9355 59.6816 95.9551 59.6816C95.9746 59.6816 96.0039 59.6914 96.043 59.7109C96.082 59.7305 96.1113 59.7402 96.1309 59.7402C96.1504 59.7402 96.1895 59.75 96.248 59.7695C96.3066 59.7891 96.3457 59.7988 96.3652 59.7988C96.5215 59.877 96.6191 59.916 96.6582 59.916C96.6777 59.916 96.7168 59.9258 96.7754 59.9453C96.834 59.9648 96.873 59.9746 96.8926 59.9746C96.9121 59.9746 96.9414 59.9941 96.9805 60.0332C97.0195 60.0723 97.0488 60.0918 97.0684 60.0918H97.332L97.3906 60.1504C97.4688 60.2285 97.6055 60.2871 97.8008 60.3262H97.8594C97.8789 60.3262 97.918 60.3555 97.9766 60.4141C98.0352 60.4531 98.0742 60.4727 98.0938 60.4727C98.2109 60.5117 98.3379 60.5312 98.4746 60.5312H98.5918C98.6113 60.5312 98.6406 60.541 98.6797 60.5605C98.7188 60.5801 98.748 60.5898 98.7676 60.5898H98.5918C98.6113 60.5898 98.6406 60.5996 98.6797 60.6191C98.7188 60.6387 98.748 60.6484 98.7676 60.6484C98.7871 60.6484 98.8262 60.668 98.8848 60.707C98.9434 60.7461 98.9824 60.7656 99.002 60.7656L99.2363 60.8828C99.3535 60.9219 99.4512 60.9414 99.5293 60.9414C99.5488 60.9414 99.5684 60.9512 99.5879 60.9707C99.627 60.9902 99.6562 61 99.6758 61H99.7344C99.8125 61.0391 99.9492 61.0586 100.145 61.0586C100.223 61.0977 100.408 61.1758 100.701 61.293C100.994 61.4102 101.229 61.5078 101.404 61.5859C101.619 61.6836 101.863 61.791 102.137 61.9082C102.43 62.0254 102.645 62.1133 102.781 62.1719C102.918 62.2305 102.996 62.2598 103.016 62.2598C103.035 62.2598 103.064 62.2695 103.104 62.2891C103.143 62.3086 103.172 62.3184 103.191 62.3184C103.172 62.3184 103.143 62.3281 103.104 62.3477C103.064 62.3672 103.035 62.377 103.016 62.377C102.898 62.377 102.947 62.4355 103.162 62.5527C103.377 62.6504 103.689 62.7773 104.1 62.9336C104.236 62.9727 104.344 63.002 104.422 63.0215C104.5 63.0605 104.559 63.0801 104.598 63.0801C104.656 63.0801 104.686 63.0703 104.686 63.0508C104.705 63.0508 104.715 63.0312 104.715 62.9922C104.715 62.875 104.754 62.8555 104.832 62.9336V63.0508C104.871 63.1289 104.93 63.1875 105.008 63.2266C105.164 63.3047 105.242 63.2852 105.242 63.168C105.242 63.1289 105.281 63.1094 105.359 63.1094H105.418C105.457 63.1094 105.467 63.1191 105.447 63.1387C105.428 63.1582 105.398 63.168 105.359 63.168L105.242 63.2852C105.242 63.3047 105.35 63.3438 105.564 63.4023C105.779 63.4805 105.916 63.5195 105.975 63.5195C106.58 64.3789 106.912 64.7207 106.971 64.5449C106.912 64.6816 106.844 64.7695 106.766 64.8086C106.707 64.8477 106.492 64.8379 106.121 64.7793C105.75 64.7207 105.213 64.5645 104.51 64.3105C104.51 64.4277 104.695 64.5254 105.066 64.6035L105.535 64.7793H105.301H105.184C105.184 64.7988 105.223 64.8281 105.301 64.8672C105.379 64.9062 105.477 64.9355 105.594 64.9551C105.711 64.9941 105.818 65.0137 105.916 65.0137C105.994 65.0918 105.965 65.1504 105.828 65.1895H105.652L105.359 65.1309C105.438 65.1699 105.535 65.209 105.652 65.248L106.092 65.3066C106.17 65.2676 106.248 65.2676 106.326 65.3066C106.443 65.3652 106.502 65.3652 106.502 65.3066C106.541 65.209 106.629 65.1602 106.766 65.1602C106.805 65.1602 106.795 65.1895 106.736 65.248C106.697 65.248 106.678 65.3164 106.678 65.4531C106.678 65.5898 106.844 65.6875 107.176 65.7461C107.43 65.8438 107.566 65.9121 107.586 65.9512C107.605 66.0098 107.439 66 107.088 65.9219C106.658 65.8047 106.258 65.6777 105.887 65.541C105.535 65.4238 105.252 65.3262 105.037 65.248C104.822 65.1699 104.637 65.0918 104.48 65.0137C104.344 64.9551 104.246 64.9062 104.188 64.8672C104.148 64.8477 104.139 64.8379 104.158 64.8379C104.236 64.8379 104.227 64.8184 104.129 64.7793C104.09 64.7793 104.021 64.7598 103.924 64.7207L103.396 64.6035C102.791 64.4277 102.146 64.2227 101.463 63.9883C101.014 63.832 100.604 63.6855 100.232 63.5488C99.8809 63.4121 99.4707 63.2656 99.002 63.1094C98.7285 63.0312 98.4746 62.9629 98.2402 62.9043C98.0254 62.8457 97.8398 62.7969 97.6836 62.7578C97.5273 62.7383 97.4297 62.7285 97.3906 62.7285C94.9492 61.9277 87.3418 58.832 74.5684 53.4414C73.9238 55.2969 73.4453 56.7129 73.1328 57.6895C73.1328 57.709 73.123 57.7285 73.1035 57.748C73.084 57.7676 73.0742 57.7871 73.0742 57.8066C72.9961 57.9629 72.8594 58.4316 72.6641 59.2129C72.625 59.291 72.6055 59.3496 72.6055 59.3887C72.5859 59.4277 72.5664 59.4766 72.5469 59.5352C72.5273 59.5938 72.5078 59.6426 72.4883 59.6816C72.4688 59.7598 72.4297 59.8965 72.3711 60.0918C72.3125 60.2676 72.2734 60.3945 72.2539 60.4727C72.2344 60.5312 72.1953 60.6387 72.1367 60.7949C72.0977 60.9512 72.0684 61.0586 72.0488 61.1172C72.0488 61.1367 72.0391 61.1562 72.0195 61.1758C72 61.1953 71.9902 61.2148 71.9902 61.2344C71.9707 61.3125 71.9414 61.4395 71.9023 61.6152C71.8633 61.8105 71.834 61.9473 71.8145 62.0254C71.7949 62.1035 71.7656 62.2305 71.7266 62.4062C71.6875 62.582 71.6582 62.709 71.6387 62.7871C71.6191 62.8652 71.5898 62.9922 71.5508 63.168C71.5117 63.3633 71.4824 63.5 71.4629 63.5781C71.3848 63.8906 71.3457 64.1543 71.3457 64.3691V64.6035C71.3457 64.6621 71.3359 64.7402 71.3164 64.8379C71.2969 64.9355 71.2871 65.0137 71.2871 65.0723C71.0723 67.0645 71.0918 68.0703 71.3457 68.0898C71.4238 68.0898 71.6777 67.875 72.1074 67.4453C72.3613 67.1914 72.5859 67.0059 72.7812 66.8887C72.8594 66.8496 72.8984 66.8594 72.8984 66.918C72.8984 66.9766 72.8691 67.0938 72.8105 67.2695C72.6738 67.6602 72.6445 67.8945 72.7227 67.9727C73.0352 68.0508 73.2109 68.0898 73.25 68.0898C72.9961 68.832 72.5664 69.5156 71.9609 70.1406C71.375 70.7656 70.8281 71.0195 70.3203 70.9023C69.4805 70.7461 68.8945 70.4727 68.5625 70.082C68.2305 69.7109 68.0156 69.1836 67.918 68.5C67.918 68.4414 67.9082 68.3633 67.8887 68.2656C67.8691 68.168 67.8594 68.0898 67.8594 68.0312C67.6445 66.9961 67.6445 65.8926 67.8594 64.7207C67.8594 64.6816 67.8691 64.623 67.8887 64.5449C67.9082 64.4668 67.918 64.4082 67.918 64.3691C67.957 63.9395 68.0938 63.1777 68.3281 62.084C68.3672 61.9277 68.4355 61.6738 68.5332 61.3223C68.6504 60.9902 68.7285 60.7461 68.7676 60.5898C68.7676 60.5508 68.7773 60.4824 68.7969 60.3848C68.8164 60.2676 68.8262 60.1895 68.8262 60.1504C68.8652 60.1113 68.9043 60.0918 68.9434 60.0918C69.0801 60.0137 69.1289 60.0625 69.0898 60.2383C69.0898 60.3359 69.0605 60.4727 69.002 60.6484C68.9824 60.7461 68.9434 60.8828 68.8848 61.0586C68.8262 61.2344 68.7871 61.3711 68.7676 61.4688C68.4355 62.6797 68.25 63.3828 68.2109 63.5781L68.123 63.9883C68.1426 63.9883 68.1719 63.9492 68.2109 63.8711C68.2305 63.832 68.2695 63.666 68.3281 63.373C68.4062 63.0996 68.5137 62.6992 68.6504 62.1719C68.7871 61.6445 68.9238 61.1367 69.0605 60.6484C69.1777 60.2969 69.2949 59.916 69.4121 59.5059C69.666 58.7441 69.832 58.2266 69.9102 57.9531C70.0859 57.3672 70.3008 56.7031 70.5547 55.9609C70.4375 56.1953 70.3789 56.1758 70.3789 55.9023L70.3496 55.6973C70.3105 55.7363 70.2812 55.8633 70.2617 56.0781C70.0469 57.1523 69.7246 58.1094 69.2949 58.9492C69.2559 59.0273 69.1973 59.1445 69.1191 59.3008C69.0605 59.4375 69.0215 59.5254 69.002 59.5645C69.002 59.5059 69.0117 59.418 69.0312 59.3008C69.0508 59.1641 69.0605 59.0664 69.0605 59.0078C69.0605 58.9883 69.0703 58.959 69.0898 58.9199C69.1094 58.8809 69.1191 58.8516 69.1191 58.832C69.1777 58.7148 69.2363 58.5391 69.2949 58.3047C69.3145 58.2461 69.334 58.1582 69.3535 58.041C69.373 57.9043 69.3926 57.8066 69.4121 57.748C69.4316 57.6309 69.4902 57.4746 69.5879 57.2793C69.7051 57.0645 69.7734 56.9277 69.793 56.8691C69.9102 56.498 70.3105 55.3555 70.9941 53.4414C71.0527 53.2852 71.1309 53.0898 71.2285 52.8555C71.3262 52.6016 71.4043 52.3965 71.4629 52.2402C70.877 51.9277 70.3594 51.7031 69.9102 51.5664C69.4805 51.4297 69.2168 51.332 69.1191 51.2734C68.4355 50.9023 67.9961 50.3359 67.8008 49.5742C67.625 48.793 67.8691 48.0996 68.5332 47.4941C68.8457 47.2402 69.3047 46.918 69.9102 46.5273C70.8086 45.9609 72.166 45.3457 73.9824 44.6816C74.0996 44.6426 74.2656 44.5742 74.4805 44.4766C74.7148 44.3789 74.8906 44.3105 75.0078 44.2715C75.0469 44.252 75.1055 44.2227 75.1836 44.1836C75.2617 44.125 75.3203 44.0859 75.3594 44.0664C75.4375 43.8711 75.5938 43.5 75.8281 42.9531C75.9648 42.6016 76.1406 42.1719 76.3555 41.6641C76.5898 41.1367 76.7363 40.8047 76.7949 40.668C76.9512 40.2578 77.0293 39.9746 77.0293 39.8184C77.0293 39.7598 77 39.7891 76.9414 39.9062L76.6777 40.4336C76.6777 40.4531 76.668 40.4824 76.6484 40.5215C76.6289 40.5605 76.6191 40.5898 76.6191 40.6094C76.4629 40.9414 76.3652 41.1074 76.3262 41.1074C76.2871 41.1074 76.3066 40.9219 76.3848 40.5508V40.4336V40.3457C76.4434 40.209 76.541 40.0039 76.6777 39.7305C76.8145 39.4375 76.9121 39.2227 76.9707 39.0859C76.9707 39.0078 76.9902 38.9492 77.0293 38.9102C77.0488 38.8516 77.0977 38.7734 77.1758 38.6758C77.2734 38.5781 77.332 38.5 77.3516 38.4414C77.4883 38.1875 77.6836 37.709 77.9375 37.0059V37.0645L77.9961 36.9473C78.0547 36.8301 78.1328 36.6445 78.2305 36.3906C78.3477 36.1172 78.4355 35.9219 78.4941 35.8047L78.5234 35.7754L78.6699 35.5117C78.709 35.4336 78.7383 35.3652 78.7578 35.3066C78.7773 35.2285 78.8066 35.1504 78.8457 35.0723C78.9824 34.877 79.0801 34.6816 79.1387 34.4863C79.1582 34.4668 79.1777 34.4375 79.1973 34.3984C79.1582 34.4766 79.1191 34.5645 79.0801 34.6621C78.9434 35.0137 78.9043 35.1992 78.9629 35.2188C79.002 35.2578 79.0703 35.1895 79.168 35.0137C79.2656 34.877 79.3535 34.7012 79.4316 34.4863C79.5879 34.0371 79.627 33.8125 79.5488 33.8125H79.373C79.4121 33.7148 79.4805 33.5684 79.5781 33.373C79.6953 33.1777 79.7734 33.0312 79.8125 32.9336C80.2031 31.957 80.4766 31.3125 80.6328 31C81.0234 29.9453 81.4141 28.9688 81.8047 28.0703C82.2148 27.1523 82.7227 26.0684 83.3281 24.8184C83.9531 23.5684 84.2949 22.8848 84.3535 22.7676C84.5488 22.2598 84.9688 22.0059 85.6133 22.0059ZM82.2734 32.0254C82.1758 32.0254 81.7266 32.9629 80.9258 34.8379C80.125 36.6934 79.3438 38.5586 78.582 40.4336L77.4688 43.2461C77.625 43.207 77.7227 43.1484 77.7617 43.0703C77.8008 42.875 78.2012 41.8496 78.9629 39.9941C79.7441 38.1191 80.5059 36.3125 81.248 34.5742C81.9902 32.8359 82.3516 32.0059 82.332 32.084L82.2734 32.0254ZM104.656 34.7207C104.617 34.7207 104.539 34.7305 104.422 34.75C104.324 34.7695 104.256 34.7793 104.217 34.7793C104.275 34.7793 104.354 34.7695 104.451 34.75C104.549 34.7305 104.617 34.7207 104.656 34.7207ZM102.781 35.248L101.99 35.3945C102.049 35.3945 102.127 35.3848 102.225 35.3652C102.342 35.3262 102.43 35.3066 102.488 35.3066C102.508 35.3066 102.557 35.2969 102.635 35.2773C102.713 35.2578 102.762 35.248 102.781 35.248ZM78.6699 35.9219C78.5332 35.9219 78.2695 36.4004 77.8789 37.3574C77.4492 38.4707 77.2344 39.0957 77.2344 39.2324C77.2344 39.2715 77.2734 39.2324 77.3516 39.1152L77.8789 37.9727L77.9375 37.7676C78.0352 37.5332 78.1426 37.2598 78.2598 36.9473C78.3965 36.6348 78.4941 36.4004 78.5527 36.2441C78.6309 36.0684 78.6699 35.9609 78.6699 35.9219ZM78.7285 36.3906C78.7285 36.4102 78.709 36.459 78.6699 36.5371C78.6309 36.5957 78.6113 36.6348 78.6113 36.6543L78.4355 37.123C78.5332 36.8301 78.6309 36.5859 78.7285 36.3906ZM78.5527 37.7676V37.8262L78.2305 38.0312C78.2109 38.0703 78.1816 38.1094 78.1426 38.1484C78.123 38.1875 78.1035 38.2266 78.084 38.2656C78.0645 38.2852 78.0547 38.3047 78.0547 38.3242C77.7227 38.8906 77.3809 39.6914 77.0293 40.7266L76.9121 41.0781C76.9707 41.0391 77 41.0391 77 41.0781C76.9805 41.2148 76.8145 41.4785 76.502 41.8691C76.3262 42.1035 76.2676 42.2793 76.3262 42.3965C76.3262 42.5918 76.2285 42.9141 76.0332 43.3633C76.0137 43.4219 75.9551 43.5098 75.8574 43.627C75.7793 43.7441 75.7305 43.832 75.7109 43.8906C75.7305 43.8906 75.7598 43.8809 75.7988 43.8613C75.8574 43.8418 75.8965 43.832 75.916 43.832L75.9746 43.7734C76.248 43.0898 76.4043 42.748 76.4434 42.748C76.4629 42.7285 76.4629 42.7773 76.4434 42.8945V43.0996C76.4629 43.0605 76.541 42.8848 76.6777 42.5723C76.9121 42.0254 77.0293 41.6445 77.0293 41.4297C77.0293 41.3906 77.0391 41.3418 77.0586 41.2832C77.0977 41.2246 77.1367 41.1465 77.1758 41.0488C77.2344 40.9512 77.2734 40.8633 77.293 40.7852C77.5078 40.1406 77.7031 39.6426 77.8789 39.291L78.5527 37.7676ZM88.9824 39.2324C88.9434 39.2324 88.875 39.2422 88.7773 39.2617C88.6797 39.2812 88.6113 39.291 88.5723 39.291H88.8066C88.8262 39.291 88.8555 39.2812 88.8945 39.2617C88.9336 39.2422 88.9629 39.2324 88.9824 39.2324ZM95.0469 40.4336C94.832 40.5117 94.5488 40.6094 94.1973 40.7266C93.9629 40.7852 93.7578 40.8438 93.582 40.9023C93.6406 40.8828 93.6895 40.8633 93.7285 40.8438C93.7676 40.8242 93.8457 40.7852 93.9629 40.7266C94.0996 40.668 94.2168 40.6289 94.3145 40.6094C94.373 40.5898 94.4414 40.5703 94.5195 40.5508C94.6172 40.5117 94.6953 40.4824 94.7539 40.4629C94.832 40.4434 94.8906 40.4336 94.9297 40.4336H95.0469ZM95.1641 40.668L92.6445 41.3711L92.4102 41.4297C92.3906 41.4297 92.3516 41.4395 92.293 41.459C92.2344 41.4785 92.1953 41.4883 92.1758 41.4883C91.082 41.8398 90.5742 42.0449 90.6523 42.1035C90.7109 42.1035 91.2383 41.9668 92.2344 41.6934C92.4102 41.6543 92.7227 41.5469 93.1719 41.3711C94.4609 41 95.125 40.7656 95.1641 40.668ZM80.3398 40.3457L80.2812 40.4336V40.6094V40.3457H80.3398ZM87.0488 41.6055C82.3613 43.1875 79.4414 44.2324 78.2891 44.7402L78.2305 44.8574C78.9531 44.5449 80.3301 44.0469 82.3613 43.3633C84.4121 42.6602 85.9746 42.0742 87.0488 41.6055ZM76.1504 41.6055C76.1113 41.7422 76.0332 41.9668 75.916 42.2793L75.7109 42.6309C75.3984 43.4316 75.252 43.7441 75.2715 43.5684C75.2715 43.5293 75.2812 43.4609 75.3008 43.3633C75.4766 42.7773 75.5742 42.4551 75.5938 42.3965C75.6523 42.2793 75.7988 42.0645 76.0332 41.752L76.1504 41.6055ZM87.4297 43.1875C87.4102 43.1875 87.3613 43.1973 87.2832 43.2168C87.2246 43.2363 87.1074 43.2754 86.9316 43.334C86.7754 43.3926 86.6191 43.4414 86.4629 43.4805C86.4238 43.5 86.3457 43.5195 86.2285 43.5391C86.1113 43.5586 86.0332 43.5781 85.9941 43.5977H85.9648L85.9355 43.627L84.7637 44.0664C84.8027 44.0469 84.8906 44.0273 85.0273 44.0078L86.3457 43.7148C86.7949 43.5391 87.0977 43.4023 87.2539 43.3047L87.4297 43.1875ZM76.0332 42.8945C76.0332 42.9727 75.9941 43.1289 75.916 43.3633C75.8965 43.4219 75.8574 43.5195 75.7988 43.6562C75.7598 43.793 75.7305 43.8906 75.7109 43.9492C75.6914 43.9492 75.6523 43.959 75.5938 43.9785C75.5352 43.998 75.4961 44.0078 75.4766 44.0078L75.7109 43.5391L76.0332 42.8945ZM83.8848 43.3047H83.9434C83.9434 43.4023 83.8262 43.4805 83.5918 43.5391C83.416 43.5781 83.3086 43.6074 83.2695 43.627C83.25 43.627 83.2109 43.6172 83.1523 43.5977C83.1523 43.5 83.2793 43.4219 83.5332 43.3633C83.6113 43.3242 83.7285 43.3047 83.8848 43.3047ZM80.2227 44.4473C79.9102 44.4863 79.5098 44.6133 79.0215 44.8281C78.5527 45.043 78.25 45.1699 78.1133 45.209C78.1133 45.2285 78.1035 45.248 78.084 45.2676C78.0645 45.2871 78.0547 45.3066 78.0547 45.3262C78.0938 45.3066 78.1816 45.2773 78.3184 45.2383C78.4746 45.1992 78.5723 45.1699 78.6113 45.1504C79.6855 44.7598 80.2227 44.5254 80.2227 44.4473ZM73.8652 45.4141C73.7285 45.375 72.9766 45.707 71.6094 46.4102C70.2422 47.1133 69.5977 47.5918 69.6758 47.8457C69.9297 47.5332 70.9453 46.918 72.7227 46L73.8066 45.5312L73.8652 45.4141ZM76.2676 46.293L75.916 46.4688C75.0176 48.3633 74.5488 49.3691 74.5098 49.4863C74.4316 49.7402 74.4023 49.877 74.4219 49.8965C74.4414 49.916 74.4707 49.9355 74.5098 49.9551C74.5879 49.9746 74.7734 49.6816 75.0664 49.0762C75.3594 48.4512 75.6328 47.8359 75.8867 47.2305L76.2676 46.293ZM73.4551 46.3516L73.0156 46.5273C73.2695 46.4102 73.416 46.3516 73.4551 46.3516ZM72.4297 46.8496C72.4297 46.8301 72.2441 46.8496 71.873 46.9082C71.6191 47.084 71.375 47.2305 71.1406 47.3477C70.9258 47.4648 70.7891 47.543 70.7305 47.582C70.6719 47.6211 70.6035 47.6797 70.5254 47.7578C70.4473 47.8359 70.3398 47.9727 70.2031 48.168C70.2617 48.168 70.3594 48.1094 70.4961 47.9922C70.6328 47.875 70.7988 47.7383 70.9941 47.582C71.209 47.4062 71.4238 47.2793 71.6387 47.2012L72.4297 46.8496ZM72.6641 47.4355C72.4883 47.4355 71.9902 47.6992 71.1699 48.2266C70.877 48.4023 70.7988 48.4805 70.9355 48.4609C70.9551 48.4414 70.9844 48.4219 71.0234 48.4023C71.0625 48.3828 71.1309 48.3535 71.2285 48.3145C71.3262 48.2559 71.4238 48.1973 71.5215 48.1387C71.6191 48.0801 71.7266 48.0215 71.8438 47.9629C71.9609 47.8848 72.0684 47.8164 72.166 47.7578C72.2637 47.6992 72.3516 47.6504 72.4297 47.6113C72.5273 47.5527 72.5957 47.5137 72.6348 47.4941C72.6738 47.4551 72.6836 47.4355 72.6641 47.4355ZM76.3848 51.2148L76.4434 51.2734L76.3848 51.2148ZM71.6973 52.2988C71.6582 52.416 71.5117 52.748 71.2578 53.2949C71.0039 53.8418 70.8477 54.252 70.7891 54.5254V54.7598C70.8672 54.7012 71.0332 54.3203 71.2871 53.6172L71.5215 52.9434C71.5215 52.9629 71.5215 53.002 71.5215 53.0605C71.5215 53.1387 71.5215 53.1777 71.5215 53.1777C71.5215 53.1973 71.541 53.168 71.5801 53.0898L71.4336 53.7344L71.9902 52.416C71.9707 52.416 71.9219 52.3965 71.8438 52.3574C71.7656 52.3184 71.7168 52.2988 71.6973 52.2988ZM72.2539 52.416V52.4746C71.6094 54.0957 71.2676 54.9551 71.2285 55.0527C70.3496 57.4551 69.7246 59.3398 69.3535 60.707C68.9629 62.2109 68.709 63.4512 68.5918 64.4277C68.5918 64.4473 68.582 64.4766 68.5625 64.5156C68.543 64.5547 68.5332 64.584 68.5332 64.6035V64.7207C68.5527 64.6816 68.5918 64.6328 68.6504 64.5742C68.709 64.5156 68.748 64.4668 68.7676 64.4277C68.8652 63.5879 69.1387 62.3477 69.5879 60.707C69.998 59.2031 70.5254 57.5625 71.1699 55.7852C71.3457 55.3164 71.5801 54.7402 71.873 54.0566C72.1855 53.3535 72.3906 52.8652 72.4883 52.5918L72.2539 52.416ZM73.0742 52.8262C71.4336 57.1621 70.6133 59.5059 70.6133 59.8574C70.6133 60.209 71.5117 57.9141 73.3086 52.9727L73.0742 52.8262ZM96.0723 59.5645H95.8965H95.6914H95.8965H96.0723ZM97.0098 59.916H96.7754H97.0098ZM97.332 60.0918C97.4102 60.1309 97.4688 60.1504 97.5078 60.1504H97.625H97.7422L97.332 60.0918ZM92.0293 59.916C92.0684 59.916 92.0879 59.9355 92.0879 59.9746C92.0879 60.1309 92.0098 60.1699 91.8535 60.0918C91.7949 60.0332 91.7754 59.9941 91.7949 59.9746L92.0293 59.916ZM99.2363 60.4141H99.1191L99.1777 60.4727L99.2363 60.4141ZM90.3008 60.0918C90.3203 60.0918 90.3691 60.1016 90.4473 60.1211C90.5254 60.1406 90.5742 60.1504 90.5938 60.1504L90.6523 60.209H90.4766L90.2422 60.0918H90.3008ZM97.3906 60.4727H97.4492C97.4688 60.4727 97.4883 60.4824 97.5078 60.502C97.5273 60.5215 97.5469 60.5312 97.5664 60.5312L97.7422 60.5898C97.7812 60.6289 97.7715 60.6484 97.7129 60.6484C97.6738 60.6484 97.625 60.6289 97.5664 60.5898L97.3906 60.4727ZM98.4746 60.5312L98.5332 60.5898L98.4746 60.5312ZM90.9746 60.1504H91.0918C91.1699 60.1699 91.2188 60.1992 91.2383 60.2383L91.1504 60.2676C90.9551 60.248 90.8477 60.209 90.8281 60.1504H90.9746ZM95.3984 60.4727C95.418 60.4727 95.584 60.5117 95.8965 60.5898C95.9551 60.6094 96.043 60.6484 96.1602 60.707C96.2969 60.7656 96.4141 60.8145 96.5117 60.8535C96.6094 60.8926 96.6973 60.9219 96.7754 60.9414L97.0391 61.0586H97.0098H96.7168C96.6582 61.1172 96.4238 61.0781 96.0137 60.9414C95.623 60.8047 95.3984 60.6875 95.3398 60.5898C95.3398 60.5117 95.3594 60.4727 95.3984 60.4727ZM100.262 60.7656H100.203H100.262ZM93.4355 60.4141L93.4941 60.5898L93.3477 60.6484V60.5312L93.4355 60.4141ZM91.6777 60.3262L91.7949 60.4141L91.8535 60.4727H91.7363C91.7168 60.4336 91.6973 60.3848 91.6777 60.3262ZM95.2227 60.5898H95.2812C95.3203 60.6289 95.3398 60.668 95.3398 60.707L95.2812 60.8242C95.2422 60.7461 95.2227 60.6875 95.2227 60.6484V60.5898ZM99.7344 60.8828L99.5293 60.9414H99.6758H99.793H99.8516L99.7344 60.8828ZM93.9043 60.6484H94.0215C94.1777 60.7266 94.2559 60.7852 94.2559 60.8242C94.1777 60.8242 94.0996 60.8047 94.0215 60.7656L93.8457 60.6484H93.9043ZM92.8203 60.5898C92.8594 60.5898 92.918 60.5996 92.9961 60.6191C93.0938 60.6387 93.1523 60.6484 93.1719 60.6484C93.1914 60.6484 93.2207 60.6582 93.2598 60.6777C93.2988 60.6973 93.3281 60.707 93.3477 60.707C93.3281 60.707 93.2988 60.7168 93.2598 60.7363C93.2207 60.7559 93.1914 60.7656 93.1719 60.7656C93.1523 60.7656 93.0938 60.7559 92.9961 60.7363C92.8984 60.7168 92.8398 60.707 92.8203 60.707C92.8008 60.707 92.7715 60.6875 92.7324 60.6484C92.6934 60.6094 92.6641 60.5898 92.6445 60.5898H92.8203ZM97.6836 60.8828H97.7422V61H97.625V60.9414L97.6836 60.8828ZM71.1699 54.291C71.1309 54.4082 71.0723 54.5645 70.9941 54.7598L70.8184 55.1699C70.8379 55.1504 70.8477 55.1309 70.8477 55.1113C70.8867 55.0723 70.9551 54.9551 71.0527 54.7598C71.1309 54.6035 71.1699 54.4668 71.1699 54.3496V54.291ZM99.9688 61H100.027H99.9688ZM100.027 61L100.145 61.0586L100.086 61H100.027ZM94.4902 60.8242H94.5488L94.6953 60.8828C94.7148 60.9219 94.666 60.9414 94.5488 60.9414C94.4707 60.9219 94.4121 60.8828 94.373 60.8242H94.4902ZM98.0352 61H98.4746H98.5332C98.6113 61 98.6504 61.0586 98.6504 61.1758L98.5918 61.293C98.5137 61.2539 98.4551 61.2344 98.416 61.2344C98.3574 61.2344 98.3672 61.2637 98.4453 61.3223C98.5039 61.3613 98.5723 61.3906 98.6504 61.4102C98.8457 61.4688 98.9434 61.4883 98.9434 61.4688H99.0605L99.3535 61.5273H99.4707L99.793 61.7324C99.793 61.791 99.7344 61.8398 99.6172 61.8789C99.5 61.9375 99.4121 61.9473 99.3535 61.9082L99.2363 61.791H99.4121C99.5293 61.791 99.5293 61.7715 99.4121 61.7324L99.3535 61.6738C99.1191 61.5957 99.002 61.5957 99.002 61.6738C99.002 61.7129 98.7188 61.6445 98.1523 61.4688C97.625 61.293 97.332 61.2344 97.2734 61.293C97.2344 61.332 97.2051 61.3418 97.1855 61.3223C97.1855 61.3223 97.1953 61.293 97.2148 61.2344C97.2734 61.0977 97.4492 61.0781 97.7422 61.1758L98.0352 61.2344H98.1523C98.1523 61.1562 98.1133 61.1172 98.0352 61.1172C97.9961 61.1172 97.9766 61.0977 97.9766 61.0586L98.0352 61ZM99.1191 61.0586L99.1777 61.1172L99.2363 61.1758C99.2363 61.2148 99.1777 61.2344 99.0605 61.2344L99.002 61.1172C99.041 61.0781 99.0801 61.0586 99.1191 61.0586ZM95.2812 60.9414H95.3398L95.3984 61C95.3594 61.0195 95.3203 61.0195 95.2812 61C95.2422 61 95.2227 60.9805 95.2227 60.9414H95.2812ZM98.8262 61.1172L98.8848 61.1758H98.7676C98.7676 61.1562 98.7676 61.1367 98.7676 61.1172H98.8262ZM95.6914 61.0586L95.75 61.1172H95.8086C95.7695 61.1562 95.7305 61.1758 95.6914 61.1758C95.6523 61.1758 95.6328 61.1562 95.6328 61.1172C95.6328 61.0781 95.6523 61.0586 95.6914 61.0586ZM100.027 61.293C100.047 61.293 100.086 61.3027 100.145 61.3223C100.203 61.3418 100.242 61.3516 100.262 61.3516L100.496 61.5273C100.477 61.5469 100.379 61.5273 100.203 61.4688C100.047 61.4297 99.9688 61.3906 99.9688 61.3516L100.027 61.293ZM102.84 61.4688C102.801 61.4688 102.732 61.4785 102.635 61.498C102.537 61.5176 102.469 61.5273 102.43 61.5273L102.605 61.5859C102.625 61.5859 102.664 61.5664 102.723 61.5273C102.781 61.4883 102.82 61.4688 102.84 61.4688ZM94.373 61.0586C94.5879 61.0586 94.7539 61.0781 94.8711 61.1172C95.1055 61.1953 95.2617 61.2344 95.3398 61.2344H95.3984L95.457 61.3516C95.457 61.3906 95.418 61.4102 95.3398 61.4102C95.3203 61.4102 95.252 61.4004 95.1348 61.3809C95.0371 61.3613 94.9297 61.3516 94.8125 61.3516C94.7734 61.3516 94.6953 61.3418 94.5781 61.3223C94.4609 61.3027 94.3926 61.293 94.373 61.293C94.2559 61.293 94.1973 61.2539 94.1973 61.1758C94.1191 61.0977 94.1582 61.0586 94.3145 61.0586H94.373ZM96.4824 61.293L96.5996 61.3516L96.6582 61.4102H96.541C96.4824 61.3906 96.4629 61.3516 96.4824 61.293ZM95.5742 61.3516C95.75 61.4297 95.8965 61.4688 96.0137 61.4688C96.0918 61.4883 96.4043 61.6152 96.9512 61.8496C97.2051 62.0254 97.332 62.0645 97.332 61.9668C97.332 61.9277 97.3906 61.9082 97.5078 61.9082H97.5664C97.6445 61.9082 97.6445 61.9473 97.5664 62.0254C97.4883 62.1035 97.5273 62.1426 97.6836 62.1426C97.7617 62.1426 97.8594 62.2012 97.9766 62.3184L98.0352 62.3477L98.0059 62.377C97.9082 62.3574 97.8008 62.3379 97.6836 62.3184L97.0684 62.2012C96.834 62.084 96.5801 61.9668 96.3066 61.8496C95.7793 61.6738 95.5156 61.5273 95.5156 61.4102L95.5742 61.3516ZM101.229 61.7324H101.346C101.463 61.7324 101.521 61.791 101.521 61.9082H101.463H101.346C101.268 61.9473 101.209 61.9668 101.17 61.9668C101.15 61.9668 101.15 61.957 101.17 61.9375C101.189 61.918 101.209 61.9082 101.229 61.9082C101.346 61.9082 101.346 61.8496 101.229 61.7324ZM99.9688 61.7324C99.9883 61.7324 100.027 61.7422 100.086 61.7617C100.145 61.7812 100.184 61.791 100.203 61.791L100.438 61.9082C100.359 61.9473 100.262 61.9473 100.145 61.9082L99.9102 61.7324H99.9688ZM100.73 61.791H100.789L100.848 61.8496C100.848 61.8887 100.789 61.9082 100.672 61.9082L100.555 61.791H100.672H100.73ZM101.814 61.9668L101.873 62.0254H101.932C101.971 62.0254 102.01 62.0449 102.049 62.084C102.107 62.1426 102.137 62.1816 102.137 62.2012H101.814C101.639 62.1426 101.58 62.084 101.639 62.0254C101.678 61.9863 101.717 61.9668 101.756 61.9668H101.814ZM99.793 61.9668H99.8516L99.9102 62.084L99.793 62.1426C99.7539 62.1035 99.7344 62.0645 99.7344 62.0254C99.7344 61.9863 99.7539 61.9668 99.793 61.9668ZM100.73 62.084C100.828 62.084 101.033 62.123 101.346 62.2012C101.365 62.2012 101.395 62.2109 101.434 62.2305C101.473 62.25 101.502 62.2598 101.521 62.2598H101.58L101.756 62.377L100.76 62.1133L100.73 62.084ZM102.664 62.2598H102.723L102.781 62.3184H102.664C102.645 62.2988 102.625 62.2793 102.605 62.2598H102.664ZM98.1523 62.0254L98.2109 62.084L98.1523 62.2598V62.1426V62.0254ZM98.3281 62.084H98.416V62.2012L98.2695 62.2598V62.1426L98.3281 62.084ZM98.5918 62.1426V62.2012C98.6699 62.2402 98.7285 62.2793 98.7676 62.3184C98.7871 62.3379 98.7871 62.3477 98.7676 62.3477C98.748 62.3477 98.709 62.3379 98.6504 62.3184L98.5332 62.2012L98.5918 62.1426ZM104.041 62.5527V62.6699C104.08 62.709 104.139 62.7383 104.217 62.7578C104.295 62.7969 104.354 62.8164 104.393 62.8164C104.451 62.8164 104.49 62.8066 104.51 62.7871L104.275 62.6699L104.217 62.6113L104.041 62.5527ZM98.6504 62.4941H98.7676V62.6113C98.6504 62.6504 98.5527 62.6504 98.4746 62.6113C98.2402 62.5332 98.2402 62.4941 98.4746 62.4941H98.5332H98.6504ZM99.9688 62.6113H100.145L100.203 62.6699L100.262 62.7285C100.262 62.7871 100.203 62.7871 100.086 62.7285L99.8516 62.6113H99.9688ZM98.9434 62.6113C98.9629 62.6113 98.9922 62.6211 99.0312 62.6406C99.0703 62.6602 99.0996 62.6699 99.1191 62.6699L99.2949 62.7285C99.2949 62.7676 99.2363 62.7871 99.1191 62.7871L99.0605 62.7285L98.8848 62.6113H98.9434ZM102.781 62.7871C102.82 62.8262 102.859 62.8457 102.898 62.8457L102.957 62.9922C102.879 63.0703 102.82 63.0508 102.781 62.9336V62.7871ZM100.555 62.7285H100.613C100.691 62.7285 100.73 62.7969 100.73 62.9336C100.73 62.9727 100.672 62.9922 100.555 62.9922C100.477 62.9922 100.438 62.9238 100.438 62.7871C100.477 62.748 100.516 62.7285 100.555 62.7285ZM103.455 62.9922L103.514 63.0508C103.514 63.0898 103.553 63.1484 103.631 63.2266C103.65 63.2461 103.641 63.2559 103.602 63.2559C103.582 63.2754 103.533 63.2852 103.455 63.2852L103.25 63.168V63.0508C103.25 63.0898 103.27 63.1094 103.309 63.1094C103.406 63.1094 103.455 63.0898 103.455 63.0508V62.9922ZM99.6758 62.7285H99.7344V62.7871L99.8516 62.8457C99.8516 62.9043 99.793 62.9336 99.6758 62.9336C99.5195 62.875 99.4805 62.8164 99.5586 62.7578C99.5977 62.7383 99.6367 62.7285 99.6758 62.7285ZM103.865 63.1094H103.924V63.2852L103.807 63.4023V63.2266L103.865 63.1094ZM104.217 63.2852C104.236 63.2852 104.275 63.2949 104.334 63.3145C104.412 63.334 104.51 63.3633 104.627 63.4023C104.764 63.4414 104.891 63.4805 105.008 63.5195C105.203 63.6172 105.301 63.6758 105.301 63.6953C105.301 63.7344 105.311 63.7441 105.33 63.7246C105.35 63.7051 105.359 63.6758 105.359 63.6367L105.418 63.5781C105.457 63.6172 105.477 63.6562 105.477 63.6953C105.496 63.7734 105.486 63.8223 105.447 63.8418C105.428 63.8613 105.34 63.8516 105.184 63.8125C105.125 63.7734 105.057 63.7539 104.979 63.7539C104.92 63.7539 104.891 63.7734 104.891 63.8125C104.871 63.8711 104.891 63.9199 104.949 63.959C105.027 64.0176 105.086 64.0273 105.125 63.9883C105.242 63.9492 105.34 63.9492 105.418 63.9883C105.574 64.0469 105.652 64.0273 105.652 63.9297C105.652 63.8516 105.711 63.8125 105.828 63.8125C105.848 63.8125 105.857 63.832 105.857 63.8711C105.857 63.9102 105.857 63.9492 105.857 63.9883C105.877 64.0469 105.896 64.0859 105.916 64.1055L106.209 64.4277C106.229 64.4668 106.199 64.457 106.121 64.3984C105.906 64.2812 105.75 64.2324 105.652 64.252C105.496 64.2324 105.32 64.1836 105.125 64.1055C104.93 64.0469 104.764 63.9785 104.627 63.9004C104.49 63.8223 104.432 63.7539 104.451 63.6953C104.432 63.6953 104.422 63.6758 104.422 63.6367C104.422 63.5977 104.432 63.5586 104.451 63.5195C104.471 63.4609 104.48 63.4316 104.48 63.4316C104.48 63.4316 104.451 63.4609 104.393 63.5195L104.158 63.6367C104.139 63.6367 104.129 63.627 104.129 63.6074C104.148 63.5879 104.178 63.5586 104.217 63.5195C104.295 63.4414 104.295 63.3828 104.217 63.3438L104.158 63.2852H104.217ZM100.936 63.2266C100.975 63.2656 101.014 63.2852 101.053 63.2852L101.17 63.3438C101.189 63.3828 101.189 63.4023 101.17 63.4023C101.15 63.4023 101.111 63.3828 101.053 63.3438C100.896 63.2656 100.857 63.2266 100.936 63.2266ZM101.521 63.3438V63.4609L101.463 63.5195V63.4023L101.521 63.3438ZM102.605 63.4609L102.723 63.5195H102.781C102.781 63.5586 102.742 63.5586 102.664 63.5195C102.586 63.4805 102.566 63.4609 102.605 63.4609ZM101.814 63.5195C101.912 63.5195 102.078 63.5586 102.312 63.6367L102.605 63.7832C102.605 63.7832 102.469 63.7539 102.195 63.6953C102.078 63.6562 101.912 63.6367 101.697 63.6367C101.658 63.6367 101.639 63.6172 101.639 63.5781C101.639 63.5391 101.697 63.5195 101.814 63.5195ZM102.898 63.8711L102.957 63.9297H102.84C102.84 63.9102 102.84 63.8906 102.84 63.8711H102.898ZM104.217 64.1055H104.275L104.334 64.252C104.295 64.291 104.256 64.3105 104.217 64.3105C104.139 64.3105 104.1 64.2715 104.1 64.1934C104.1 64.1348 104.139 64.1055 104.217 64.1055ZM103.807 64.1055V64.252C103.807 64.3887 103.748 64.4277 103.631 64.3691C103.572 64.3105 103.553 64.2715 103.572 64.252C103.689 64.252 103.768 64.2324 103.807 64.1934V64.1055ZM104.217 64.3691V64.4863L104.158 64.5449V64.4863L104.217 64.3691ZM104.715 64.6035H104.773L104.832 64.6621H104.715C104.695 64.6426 104.676 64.623 104.656 64.6035H104.715ZM73.0156 58.3047V58.3633H72.957L73.0156 58.3047ZM72.6641 59.2129V59.2715V59.2129ZM70.2617 61.293V61.3516C70.2617 61.3906 70.252 61.4688 70.2324 61.5859C70.2129 61.7031 70.2031 61.791 70.2031 61.8496C70.2031 61.9277 70.1445 62.084 70.0273 62.3184L69.998 62.3477L70.0859 61.9668L70.2617 61.293ZM68.416 62.0254V62.084C68.416 62.123 68.3965 62.1914 68.3574 62.2891C68.3379 62.4062 68.3281 62.4941 68.3281 62.5527C68.3281 62.6113 68.3086 62.6992 68.2695 62.8164C68.2305 62.9336 68.2109 63.0117 68.2109 63.0508L68.1523 63.168C68.1328 63.1289 68.1523 62.9629 68.2109 62.6699L68.416 62.0254ZM69.1777 69.4082C68.748 69.1934 68.5332 67.8262 68.5332 65.3066C68.2793 65.9512 68.2988 66.9961 68.5918 68.4414C68.748 69.2227 68.9043 69.5938 69.0605 69.5547C69.0996 69.5547 69.1387 69.5059 69.1777 69.4082ZM73.4551 67.709C73.5332 67.709 73.5527 67.7773 73.5137 67.9141C73.4746 68.0117 73.3867 68.0703 73.25 68.0898C73.25 68.0703 73.2695 68.002 73.3086 67.8848C73.3672 67.7871 73.3965 67.7285 73.3965 67.709H73.4551Z" fill="white"/>
</svg>
