<svg width="24" height="24" viewBox="0 0 24 24" fill="none" xmlns="http://www.w3.org/2000/svg">
<path d="M23.1429 0H0.857143C0.383036 0 0 0.4875 0 1.09091V22.9091C0 23.5125 0.383036 24 0.857143 24H23.1429C23.617 24 24 23.5125 24 22.9091V1.09091C24 0.4875 23.617 0 23.1429 0ZM22.0714 3.77727V21.5455H1.92857V3.77727L1.18929 3.04432L2.24196 1.32273L3.38839 2.45795H20.6143L21.7607 1.32273L22.8134 3.04432L22.0714 3.77727V3.77727ZM20.6143 2.45455L12 10.9773L3.38571 2.45455L2.23929 1.31932L1.18661 3.04091L1.92589 3.77386L11.0759 12.8284C11.339 13.0886 11.6628 13.2298 11.996 13.2298C12.3292 13.2298 12.6529 13.0886 12.9161 12.8284L22.0714 3.77727L22.8107 3.04432L21.758 1.32273L20.6143 2.45455Z" fill="#F8F8F8"/>
</svg>
