<svg width="30" height="25" viewBox="0 0 30 25" fill="none" xmlns="http://www.w3.org/2000/svg">
<path d="M29.8846 2.86363C28.8021 3.33436 27.6241 3.67314 26.4107 3.80509C27.6705 3.05062 28.6139 1.85869 29.0639 0.452915C27.8817 1.16183 26.5867 1.65893 25.2362 1.92217C24.6718 1.31388 23.9891 0.829285 23.2308 0.498588C22.4725 0.167891 21.6547 -0.00182509 20.8284 1.48009e-05C17.4854 1.48009e-05 14.7969 2.73168 14.7969 6.08385C14.7969 6.55459 14.8535 7.02532 14.9454 7.47822C9.93979 7.21432 5.47537 4.80361 2.50735 1.11265C1.96655 2.04383 1.68315 3.10408 1.68664 4.1831C1.68664 6.29426 2.75144 8.15578 4.37519 9.25059C3.41829 9.2126 2.4838 8.94746 1.64772 8.47674V8.55163C1.64772 11.508 3.72074 13.9579 6.48358 14.5213C5.96483 14.6572 5.43118 14.7267 4.89521 14.7282C4.50254 14.7282 4.1311 14.689 3.75611 14.6355C4.52023 17.0462 6.74536 18.7972 9.395 18.8542C7.32198 20.4911 4.72541 21.4539 1.90597 21.4539C1.40009 21.4539 0.933133 21.4361 0.448486 21.379C3.12289 23.1086 6.29609 24.1071 9.71338 24.1071C20.8072 24.1071 26.8777 14.8423 26.8777 6.80065C26.8777 6.53676 26.8777 6.27286 26.86 6.00897C28.0345 5.14239 29.0639 4.06898 29.8846 2.86363Z" fill="white"/>
</svg>
