<svg width="25" height="25" viewBox="0 0 25 25" fill="none" xmlns="http://www.w3.org/2000/svg">
<path d="M12.2631 8.034C10.0519 8.034 8.2474 9.84025 8.2474 12.0536C8.2474 14.2669 10.0519 16.0731 12.2631 16.0731C14.4742 16.0731 16.2787 14.2669 16.2787 12.0536C16.2787 9.84025 14.4742 8.034 12.2631 8.034ZM24.307 12.0536C24.307 10.3891 24.3221 8.73961 24.2287 7.07811C24.1353 5.14824 23.6955 3.43547 22.2856 2.02425C20.8728 0.610014 19.1647 0.172776 17.2367 0.0792981C15.5738 -0.0141803 13.9259 0.000896922 12.2661 0.000896922C10.6032 0.000896922 8.95534 -0.0141803 7.29546 0.0792981C5.36746 0.172776 3.65637 0.613029 2.24652 2.02425C0.833662 3.43849 0.396851 5.14824 0.303464 7.07811C0.210077 8.74263 0.225139 10.3921 0.225139 12.0536C0.225139 13.7151 0.210077 15.3675 0.303464 17.029C0.396851 18.9589 0.836675 20.6717 2.24652 22.0829C3.65938 23.4971 5.36746 23.9344 7.29546 24.0278C8.95835 24.1213 10.6062 24.1062 12.2661 24.1062C13.929 24.1062 15.5768 24.1213 17.2367 24.0278C19.1647 23.9344 20.8758 23.4941 22.2856 22.0829C23.6985 20.6687 24.1353 18.9589 24.2287 17.029C24.3251 15.3675 24.307 13.7181 24.307 12.0536ZM12.2631 18.2382C8.84388 18.2382 6.08443 15.4761 6.08443 12.0536C6.08443 8.63106 8.84388 5.86892 12.2631 5.86892C15.6822 5.86892 18.4417 8.63106 18.4417 12.0536C18.4417 15.4761 15.6822 18.2382 12.2631 18.2382ZM18.6947 7.06002C17.8964 7.06002 17.2517 6.41472 17.2517 5.61563C17.2517 4.81654 17.8964 4.17124 18.6947 4.17124C19.493 4.17124 20.1377 4.81654 20.1377 5.61563C20.1379 5.80537 20.1008 5.9933 20.0284 6.16865C19.9559 6.344 19.8496 6.50333 19.7156 6.6375C19.5816 6.77167 19.4224 6.87805 19.2472 6.95056C19.072 7.02306 18.8843 7.06026 18.6947 7.06002Z" fill="white"/>
</svg>
