<svg width="25" height="25" viewBox="0 0 25 25" fill="none" xmlns="http://www.w3.org/2000/svg">
<path d="M5.61586 25H0.437778V8.30893H5.61586V25ZM3.0237 6.03214C1.36814 6.03214 0.0247803 4.65893 0.0247803 3.00179C0.0247803 2.20566 0.340737 1.44215 0.903143 0.879203C1.46555 0.316259 2.22833 0 3.0237 0C3.81906 0 4.58184 0.316259 5.14425 0.879203C5.70666 1.44215 6.02261 2.20566 6.02261 3.00179C6.02261 4.65893 4.67925 6.03214 3.0237 6.03214ZM24.9955 25H19.829V16.875C19.829 14.9384 19.7898 12.4554 17.137 12.4554C14.4449 12.4554 14.0319 14.5589 14.0319 16.7357V25H8.85918V8.30893H13.825V10.5857H13.8972C14.5885 9.27411 16.2771 7.89018 18.7961 7.89018C24.0366 7.89018 25 11.3446 25 15.8313V25H24.9955Z" fill="white"/>
</svg>
